<svg width="167" height="48" viewBox="0 0 167 48" fill="none" xmlns="http://www.w3.org/2000/svg">
<path d="M165.385 42.4645C165.385 45.0224 163.269 47.0944 160.653 47.0944H5.81453C3.19952 47.0944 1.0769 45.0224 1.0769 42.4645V5.5418C1.0769 2.98503 3.19952 0.905762 5.81453 0.905762H160.652C163.269 0.905762 165.383 2.98503 165.383 5.5418L165.385 42.4645Z" fill="white"/>
<path d="M160.154 0.961502C163.003 0.961502 165.321 3.222 165.321 6V42C165.321 44.778 163.003 47.0385 160.154 47.0385H6.30765C3.45842 47.0385 1.13996 44.778 1.13996 42V6C1.13996 3.222 3.45842 0.961502 6.30765 0.961502H160.154ZM160.154 3.8147e-06H6.30765C2.92458 3.8147e-06 0.153809 2.7015 0.153809 6V42C0.153809 45.2985 2.92458 48 6.30765 48H160.154C163.537 48 166.308 45.2985 166.308 42V6C166.308 2.7015 163.537 3.8147e-06 160.154 3.8147e-06Z" fill="#A6A6A6"/>
<path d="M37.2344 23.7408C37.1987 19.8732 40.4824 17.9916 40.6326 17.904C38.7729 15.2604 35.8904 14.8992 34.8775 14.8704C32.4566 14.622 30.1083 16.2828 28.8751 16.2828C27.6172 16.2828 25.7181 14.8944 23.6714 14.9352C21.0375 14.9748 18.5735 16.4616 17.2221 18.7704C14.4332 23.478 16.5132 30.396 19.1852 34.2012C20.5218 36.0648 22.0837 38.1456 24.128 38.0724C26.128 37.992 26.8751 36.8292 29.2886 36.8292C31.68 36.8292 32.3815 38.0724 34.4664 38.0256C36.6129 37.992 37.9643 36.1536 39.2541 34.2732C40.7987 32.1372 41.4191 30.0336 41.4437 29.9256C41.3932 29.9088 37.2751 28.3764 37.2344 23.7408Z" fill="black"/>
<path d="M33.296 12.3672C34.3717 11.0556 35.1077 9.27125 34.9034 7.46045C33.3464 7.52765 31.3994 8.51045 30.2781 9.79325C29.2861 10.9236 28.4 12.7764 28.6289 14.5188C30.3778 14.646 32.1735 13.6584 33.296 12.3672Z" fill="black"/>
<path d="M60.523 12.0107C60.523 13.4231 60.0886 14.4863 59.2209 15.2003C58.4172 15.8591 57.275 16.1891 55.7956 16.1891C55.0621 16.1891 54.4344 16.1579 53.9089 16.0955V8.37829C54.5944 8.27029 55.3329 8.21509 56.1304 8.21509C57.5396 8.21509 58.6018 8.51389 59.3181 9.11149C60.1206 9.78709 60.523 10.7531 60.523 12.0107ZM59.163 12.0455C59.163 11.1299 58.9144 10.4279 58.4172 9.93829C57.92 9.44989 57.1938 9.20509 56.2375 9.20509C55.8313 9.20509 55.4855 9.23149 55.1987 9.28669V15.1535C55.3575 15.1775 55.648 15.1883 56.0701 15.1883C57.0572 15.1883 57.819 14.9207 58.3557 14.3855C58.8923 13.8503 59.163 13.0703 59.163 12.0455Z" fill="black"/>
<path d="M67.7341 13.2445C67.7341 14.1145 67.4793 14.8273 66.9698 15.3865C66.4356 15.9613 65.7279 16.2481 64.8443 16.2481C63.9926 16.2481 63.3144 15.9733 62.8086 15.4213C62.3039 14.8705 62.0516 14.1757 62.0516 13.3381C62.0516 12.4621 62.3113 11.7433 62.8332 11.1853C63.355 10.6273 64.0566 10.3477 64.9403 10.3477C65.7919 10.3477 66.4763 10.6225 66.9944 11.1733C67.4867 11.7085 67.7341 12.3997 67.7341 13.2445ZM66.3963 13.2853C66.3963 12.7633 66.2806 12.3157 66.0504 11.9425C65.7796 11.4913 65.3944 11.2657 64.8935 11.2657C64.3753 11.2657 63.9815 11.4913 63.7107 11.9425C63.4793 12.3157 63.3649 12.7705 63.3649 13.3081C63.3649 13.8301 63.4806 14.2777 63.7107 14.6509C63.9901 15.1021 64.379 15.3277 64.8812 15.3277C65.3735 15.3277 65.7599 15.0985 66.0381 14.6389C66.2769 14.2585 66.3963 13.8073 66.3963 13.2853Z" fill="black"/>
<path d="M77.403 10.4629L75.5877 16.1197H74.4061L73.6541 13.6633C73.4633 13.0501 73.3083 12.4405 73.1877 11.8357H73.1643C73.0523 12.4573 72.8972 13.0657 72.6978 13.6633L71.899 16.1197H70.704L68.9969 10.4629H70.3224L70.9784 13.1521C71.1372 13.7881 71.2677 14.3941 71.3723 14.9677H71.3957C71.4917 14.4949 71.6504 13.8925 71.8744 13.1641L72.6978 10.4641H73.7489L74.5378 13.1065C74.7286 13.7509 74.8836 14.3713 75.003 14.9689H75.0387C75.1261 14.3869 75.2578 13.7665 75.4326 13.1065L76.1366 10.4641H77.403V10.4629Z" fill="black"/>
<path d="M84.0898 16.1196H82.8V12.8796C82.8 11.8812 82.411 11.382 81.6307 11.382C81.248 11.382 80.939 11.5188 80.699 11.7936C80.4615 12.0684 80.3409 12.3924 80.3409 12.7632V16.1184H79.051V12.0792C79.051 11.5824 79.035 11.0436 79.0043 10.4604H80.1378L80.1981 11.3448H80.2338C80.384 11.07 80.608 10.8432 80.9021 10.662C81.2517 10.4508 81.643 10.344 82.0713 10.344C82.6129 10.344 83.0633 10.5144 83.4215 10.8564C83.867 11.2752 84.0898 11.9004 84.0898 12.7308V16.1196Z" fill="black"/>
<path d="M87.6467 16.1196H86.3581V7.86719H87.6467V16.1196Z" fill="black"/>
<path d="M95.2406 13.2445C95.2406 14.1145 94.9858 14.8273 94.4763 15.3865C93.9421 15.9613 93.2332 16.2481 92.3507 16.2481C91.4978 16.2481 90.8196 15.9733 90.315 15.4213C89.8104 14.8705 89.5581 14.1757 89.5581 13.3381C89.5581 12.4621 89.8178 11.7433 90.3396 11.1853C90.8615 10.6273 91.563 10.3477 92.4455 10.3477C93.2984 10.3477 93.9815 10.6225 94.5009 11.1733C94.9932 11.7085 95.2406 12.3997 95.2406 13.2445ZM93.9015 13.2853C93.9015 12.7633 93.7858 12.3157 93.5556 11.9425C93.2861 11.4913 92.8996 11.2657 92.3999 11.2657C91.8806 11.2657 91.4867 11.4913 91.2172 11.9425C90.9858 12.3157 90.8713 12.7705 90.8713 13.3081C90.8713 13.8301 90.987 14.2777 91.2172 14.6509C91.4966 15.1021 91.8855 15.3277 92.3876 15.3277C92.88 15.3277 93.2652 15.0985 93.5433 14.6389C93.7833 14.2585 93.9015 13.8073 93.9015 13.2853Z" fill="black"/>
<path d="M101.483 16.1197H100.325L100.229 15.4681H100.193C99.7969 15.9877 99.232 16.2481 98.4984 16.2481C97.9507 16.2481 97.5077 16.0765 97.1741 15.7357C96.8714 15.4261 96.72 15.0409 96.72 14.5837C96.72 13.8925 97.0154 13.3657 97.6098 13.0009C98.203 12.6361 99.0375 12.4573 100.112 12.4657V12.3601C100.112 11.6149 99.7107 11.2429 98.907 11.2429C98.3347 11.2429 97.8301 11.3833 97.3944 11.6617L97.1323 10.8361C97.6714 10.5109 98.3372 10.3477 99.1224 10.3477C100.639 10.3477 101.399 11.1277 101.399 12.6877V14.7709C101.399 15.3361 101.428 15.7861 101.483 16.1197ZM100.144 14.1757V13.3033C98.7212 13.2793 98.0098 13.6597 98.0098 14.4433C98.0098 14.7385 98.091 14.9593 98.2572 15.1069C98.4234 15.2545 98.635 15.3277 98.8874 15.3277C99.1704 15.3277 99.435 15.2401 99.6763 15.0661C99.9187 14.8909 100.068 14.6689 100.123 14.3965C100.137 14.3353 100.144 14.2609 100.144 14.1757Z" fill="black"/>
<path d="M108.812 16.1196H107.668L107.607 15.2112H107.572C107.206 15.9024 106.583 16.248 105.708 16.248C105.009 16.248 104.427 15.9804 103.965 15.4452C103.504 14.91 103.274 14.2152 103.274 13.362C103.274 12.4464 103.524 11.7048 104.026 11.1384C104.512 10.6104 105.108 10.3464 105.817 10.3464C106.596 10.3464 107.141 10.602 107.451 11.1144H107.476V7.86719H108.767V14.5956C108.767 15.1464 108.781 15.654 108.812 16.1196ZM107.476 13.734V12.7908C107.476 12.6276 107.463 12.4956 107.44 12.3948C107.367 12.0924 107.211 11.838 106.973 11.6328C106.733 11.4276 106.444 11.3244 106.111 11.3244C105.629 11.3244 105.253 11.5104 104.976 11.8836C104.701 12.2568 104.562 12.7332 104.562 13.3152C104.562 13.8744 104.694 14.328 104.959 14.6772C105.238 15.0492 105.615 15.2352 106.086 15.2352C106.509 15.2352 106.848 15.0804 107.105 14.7696C107.354 14.4828 107.476 14.1372 107.476 13.734Z" fill="black"/>
<path d="M119.844 13.2445C119.844 14.1145 119.589 14.8273 119.079 15.3865C118.545 15.9613 117.839 16.2481 116.954 16.2481C116.103 16.2481 115.425 15.9733 114.918 15.4213C114.414 14.8705 114.161 14.1757 114.161 13.3381C114.161 12.4621 114.421 11.7433 114.943 11.1853C115.465 10.6273 116.166 10.3477 117.051 10.3477C117.901 10.3477 118.587 10.6225 119.104 11.1733C119.596 11.7085 119.844 12.3997 119.844 13.2445ZM118.507 13.2853C118.507 12.7633 118.391 12.3157 118.161 11.9425C117.889 11.4913 117.505 11.2657 117.003 11.2657C116.486 11.2657 116.092 11.4913 115.82 11.9425C115.589 12.3157 115.474 12.7705 115.474 13.3081C115.474 13.8301 115.59 14.2777 115.82 14.6509C116.1 15.1021 116.489 15.3277 116.991 15.3277C117.483 15.3277 117.871 15.0985 118.149 14.6389C118.386 14.2585 118.507 13.8073 118.507 13.2853Z" fill="black"/>
<path d="M126.779 16.1196H125.49V12.8796C125.49 11.8812 125.101 11.382 124.32 11.382C123.937 11.382 123.628 11.5188 123.389 11.7936C123.151 12.0684 123.031 12.3924 123.031 12.7632V16.1184H121.74V12.0792C121.74 11.5824 121.725 11.0436 121.695 10.4604H122.827L122.887 11.3448H122.923C123.074 11.07 123.298 10.8432 123.591 10.662C123.942 10.4508 124.332 10.344 124.762 10.344C125.302 10.344 125.753 10.5144 126.111 10.8564C126.557 11.2752 126.779 11.9004 126.779 12.7308V16.1196Z" fill="black"/>
<path d="M135.46 11.4048H134.039V14.1528C134.039 14.8512 134.292 15.2004 134.791 15.2004C135.023 15.2004 135.215 15.1812 135.366 15.1416L135.399 16.0956C135.145 16.1892 134.81 16.236 134.398 16.236C133.888 16.236 133.492 16.0848 133.205 15.7824C132.917 15.48 132.774 14.9712 132.774 14.2572V11.4048H131.926V10.4628H132.774V9.42596L134.038 9.05396V10.4616H135.458V11.4048H135.46Z" fill="black"/>
<path d="M142.288 16.1196H140.997V12.9036C140.997 11.8896 140.608 11.382 139.829 11.382C139.231 11.382 138.822 11.676 138.598 12.264C138.56 12.3876 138.538 12.5388 138.538 12.7164V16.1184H137.249V7.86719H138.538V11.2764H138.562C138.969 10.656 139.551 10.3464 140.305 10.3464C140.839 10.3464 141.281 10.5168 141.632 10.8588C142.069 11.2848 142.288 11.9184 142.288 12.756V16.1196Z" fill="black"/>
<path d="M149.332 13.0235C149.332 13.2491 149.314 13.4387 149.284 13.5935H145.415C145.433 14.1527 145.617 14.5787 145.975 14.8739C146.303 15.1379 146.725 15.2699 147.242 15.2699C147.814 15.2699 148.336 15.1811 148.806 15.0023L149.008 15.8759C148.458 16.1087 147.81 16.2251 147.061 16.2251C146.162 16.2251 145.455 15.9671 144.943 15.4511C144.428 14.9351 144.173 14.2427 144.173 13.3739C144.173 12.5207 144.411 11.8103 144.89 11.2439C145.389 10.6391 146.065 10.3367 146.918 10.3367C147.753 10.3367 148.386 10.6391 148.815 11.2439C149.161 11.7239 149.332 12.3179 149.332 13.0235ZM148.101 12.6983C148.111 12.3251 148.026 12.0035 147.851 11.7323C147.627 11.3831 147.286 11.2079 146.825 11.2079C146.404 11.2079 146.06 11.3783 145.798 11.7203C145.584 11.9927 145.457 12.3179 145.415 12.6983H148.101Z" fill="black"/>
<path d="M66.1784 37.8046H63.3833L61.8522 33.1138H56.5304L55.0719 37.8046H52.3507L57.6233 21.835H60.8799L66.1784 37.8046ZM61.3907 31.1458L60.0061 26.9758C59.8596 26.5498 59.5852 25.5466 59.1802 23.9674H59.131C58.9698 24.6466 58.7101 25.6498 58.3532 26.9758L56.9932 31.1458H61.3907Z" fill="black"/>
<path d="M79.7378 31.9054C79.7378 33.8638 79.195 35.4118 78.1095 36.5482C77.1372 37.5598 75.9298 38.065 74.4886 38.065C72.9329 38.065 71.8153 37.5202 71.1347 36.4306H71.0855V42.4966H68.4615V30.0802C68.4615 28.849 68.4283 27.5854 68.3643 26.2894H70.6719L70.8184 28.1146H70.8676C71.7427 26.7394 73.0707 26.053 74.8529 26.053C76.2461 26.053 77.4092 26.5894 78.3396 27.6634C79.2726 28.7386 79.7378 30.1522 79.7378 31.9054ZM77.0646 31.999C77.0646 30.8782 76.8061 29.9542 76.2867 29.227C75.7193 28.4686 74.9575 28.0894 74.0024 28.0894C73.355 28.0894 72.7667 28.3006 72.2412 28.717C71.7144 29.137 71.3698 29.6854 71.2086 30.3646C71.1273 30.6814 71.0867 30.9406 71.0867 31.1446V33.0646C71.0867 33.9022 71.3501 34.609 71.8769 35.1862C72.4036 35.7634 73.0879 36.0514 73.9298 36.0514C74.9181 36.0514 75.6873 35.6794 76.2375 34.9378C76.7889 34.195 77.0646 33.2158 77.0646 31.999Z" fill="black"/>
<path d="M93.3218 31.9054C93.3218 33.8638 92.779 35.4118 91.6922 36.5482C90.7212 37.5598 89.5138 38.065 88.0725 38.065C86.5168 38.065 85.3993 37.5202 84.7199 36.4306H84.6707V42.4966H82.0467V30.0802C82.0467 28.849 82.0135 27.5854 81.9495 26.2894H84.2572L84.4036 28.1146H84.4528C85.3267 26.7394 86.6547 26.053 88.4381 26.053C89.8301 26.053 90.9932 26.5894 91.9261 27.6634C92.8553 28.7386 93.3218 30.1522 93.3218 31.9054ZM90.6485 31.999C90.6485 30.8782 90.3888 29.9542 89.8695 29.227C89.3021 28.4686 88.5427 28.0894 87.5864 28.0894C86.9378 28.0894 86.3507 28.3006 85.8239 28.717C85.2972 29.137 84.9538 29.6854 84.7925 30.3646C84.7125 30.6814 84.6707 30.9406 84.6707 31.1446V33.0646C84.6707 33.9022 84.9341 34.609 85.4584 35.1862C85.9852 35.7622 86.6695 36.0514 87.5138 36.0514C88.5021 36.0514 89.2713 35.6794 89.8215 34.9378C90.3729 34.195 90.6485 33.2158 90.6485 31.999Z" fill="black"/>
<path d="M108.51 33.3263C108.51 34.6847 108.026 35.7899 107.055 36.6431C105.988 37.5755 104.502 38.0411 102.593 38.0411C100.831 38.0411 99.4178 37.7099 98.3483 37.0463L98.9563 34.9139C100.108 35.5931 101.372 35.9339 102.75 35.9339C103.738 35.9339 104.507 35.7155 105.06 35.2811C105.61 34.8467 105.884 34.2635 105.884 33.5363C105.884 32.8883 105.658 32.3423 105.204 31.8995C104.752 31.4567 103.997 31.0451 102.944 30.6647C100.076 29.6219 98.6437 28.0943 98.6437 26.0855C98.6437 24.7727 99.1458 23.6963 100.151 22.8587C101.153 22.0199 102.49 21.6011 104.161 21.6011C105.652 21.6011 106.89 21.8543 107.878 22.3595L107.222 24.4451C106.299 23.9555 105.255 23.7107 104.087 23.7107C103.164 23.7107 102.443 23.9327 101.926 24.3743C101.489 24.7691 101.27 25.2503 101.27 25.8203C101.27 26.4515 101.52 26.9735 102.022 27.3839C102.459 27.7631 103.253 28.1735 104.405 28.6163C105.814 29.1695 106.849 29.8163 107.515 30.5579C108.178 31.2971 108.51 32.2223 108.51 33.3263Z" fill="black"/>
<path d="M117.185 28.2094H114.293V33.8002C114.293 35.2222 114.802 35.9326 115.824 35.9326C116.293 35.9326 116.682 35.893 116.989 35.8138L117.062 37.7566C116.545 37.945 115.865 38.0398 115.021 38.0398C113.985 38.0398 113.175 37.7314 112.591 37.1158C112.009 36.499 111.716 35.4646 111.716 34.0114V28.207H109.993V26.287H111.716V24.1786L114.293 23.4202V26.287H117.185V28.2094Z" fill="black"/>
<path d="M130.235 31.9522C130.235 33.7222 129.716 35.1754 128.679 36.3118C127.593 37.4818 126.15 38.065 124.352 38.065C122.619 38.065 121.239 37.5046 120.21 36.3838C119.181 35.263 118.667 33.8482 118.667 32.143C118.667 30.3586 119.196 28.897 120.258 27.7606C121.318 26.623 122.748 26.0542 124.546 26.0542C126.279 26.0542 127.674 26.6146 128.726 27.7366C129.733 28.825 130.235 30.2302 130.235 31.9522ZM127.513 32.035C127.513 30.973 127.28 30.0622 126.809 29.3026C126.258 28.3834 125.472 27.925 124.453 27.925C123.398 27.925 122.597 28.3846 122.047 29.3026C121.575 30.0634 121.343 30.9886 121.343 32.083C121.343 33.145 121.575 34.0558 122.047 34.8142C122.614 35.7334 123.407 36.1918 124.429 36.1918C125.431 36.1918 126.218 35.7238 126.785 34.7902C127.269 34.0162 127.513 33.0958 127.513 32.035Z" fill="black"/>
<path d="M138.764 28.5394C138.505 28.4926 138.228 28.4686 137.937 28.4686C137.014 28.4686 136.3 28.8082 135.798 29.4886C135.361 30.0886 135.142 30.847 135.142 31.7626V37.8046H132.519L132.544 29.9158C132.544 28.5886 132.511 27.3802 132.445 26.2906H134.731L134.827 28.4938H134.9C135.177 27.7366 135.613 27.127 136.212 26.6698C136.796 26.2582 137.428 26.053 138.108 26.053C138.351 26.053 138.57 26.0698 138.764 26.0998V28.5394Z" fill="black"/>
<path d="M150.5 31.5023C150.5 31.9607 150.469 32.3471 150.404 32.6627H142.532C142.562 33.8003 142.943 34.6703 143.674 35.2703C144.337 35.8067 145.195 36.0755 146.249 36.0755C147.414 36.0755 148.478 35.8943 149.434 35.5307L149.845 37.3067C148.727 37.7819 147.408 38.0183 145.886 38.0183C144.054 38.0183 142.617 37.4927 141.57 36.4427C140.527 35.3927 140.004 33.9827 140.004 32.2139C140.004 30.4775 140.49 29.0315 141.463 27.8783C142.482 26.6471 143.86 26.0315 145.593 26.0315C147.295 26.0315 148.583 26.6471 149.458 27.8783C150.151 28.8563 150.5 30.0659 150.5 31.5023ZM147.998 30.8387C148.015 30.0803 147.844 29.4251 147.488 28.8719C147.034 28.1603 146.336 27.8051 145.397 27.8051C144.539 27.8051 143.841 28.1519 143.308 28.8479C142.871 29.4011 142.612 30.0647 142.532 30.8375H147.998V30.8387Z" fill="black"/>
</svg>
