<svg width="40" height="40" viewBox="0 0 40 40" fill="none" xmlns="http://www.w3.org/2000/svg">
<g id="Business, Products/Business, Chart">
<g id="Group">
<g id="Group_2">
<path id="Path" d="M5 15.0001V10.0001C5 8.15841 6.49167 6.66675 8.33333 6.66675H31.6667C33.5083 6.66675 35 8.15841 35 10.0001V30.0001C35 31.8417 33.5083 33.3334 31.6667 33.3334H21.6667" stroke="#00B795" stroke-width="2" stroke-linecap="round" stroke-linejoin="round"/>
<path id="Path_2" d="M15 33.3334L14.5817 32.2834C14.37 31.7518 14.0417 31.2734 13.6217 30.8851V30.8851C12.91 30.2251 11.975 29.8601 11.0067 29.8601H7.32671C6.35671 29.8601 5.42337 30.2268 4.71171 30.8851V30.8851C4.29171 31.2734 3.96337 31.7518 3.75171 32.2834L3.33337 33.3334" stroke="#00B795" stroke-width="2" stroke-linecap="round" stroke-linejoin="round"/>
<path id="Path_3" d="M11.2284 20.855C12.3667 21.9933 12.3667 23.84 11.2284 24.98C10.0901 26.1183 8.24338 26.1183 7.10338 24.98C5.96505 23.8417 5.96505 21.995 7.10338 20.855C8.24338 19.715 10.0901 19.715 11.2284 20.855" stroke="#00B795" stroke-width="2" stroke-linecap="round" stroke-linejoin="round"/>
<path id="Path_4" d="M18.3333 25V15" stroke="#00B795" stroke-width="2" stroke-linecap="round" stroke-linejoin="round"/>
<path id="Path_5" d="M23.3333 25.0001V19.4668" stroke="#00B795" stroke-width="2" stroke-linecap="round" stroke-linejoin="round"/>
<path id="Path_6" d="M28.3333 25.0001V15.9167" stroke="#00B795" stroke-width="2" stroke-linecap="round" stroke-linejoin="round"/>
</g>
</g>
</g>
</svg>
