<svg width="167" height="48" viewBox="0 0 167 48" fill="none" xmlns="http://www.w3.org/2000/svg">
<g id="App Store">
<g id="Group">
<path id="BG" d="M166.077 42.4643C166.077 45.0223 163.962 47.0943 161.345 47.0943H6.50685C3.89184 47.0943 1.76923 45.0223 1.76923 42.4643V5.54167C1.76923 2.9849 3.89184 0.90564 6.50685 0.90564H161.344C163.962 0.90564 166.076 2.9849 166.076 5.54167L166.077 42.4643Z" fill="black"/>
<path id="Border" d="M160.846 0.961502C163.695 0.961502 166.014 3.222 166.014 6V42C166.014 44.778 163.695 47.0385 160.846 47.0385H6.99998C4.15075 47.0385 1.83228 44.778 1.83228 42V6C1.83228 3.222 4.15075 0.961502 6.99998 0.961502H160.846ZM160.846 3.8147e-06H6.99998C3.6169 3.8147e-06 0.84613 2.7015 0.84613 6V42C0.84613 45.2985 3.6169 48 6.99998 48H160.846C164.229 48 167 45.2985 167 42V6C167 2.7015 164.229 3.8147e-06 160.846 3.8147e-06Z" fill="#A6A6A6"/>
<g id="Icon">
<g id="Vector">
<path d="M37.9268 23.7408C37.8911 19.8732 41.1748 17.9916 41.3249 17.904C39.4652 15.2604 36.5828 14.8992 35.5698 14.8704C33.1489 14.622 30.8006 16.2828 29.5674 16.2828C28.3095 16.2828 26.4105 14.8944 24.3637 14.9352C21.7298 14.9748 19.2658 16.4616 17.9145 18.7704C15.1255 23.478 17.2055 30.396 19.8775 34.2012C21.2141 36.0648 22.776 38.1456 24.8203 38.0724C26.8203 37.992 27.5674 36.8292 29.9809 36.8292C32.3723 36.8292 33.0738 38.0724 35.1588 38.0256C37.3052 37.992 38.6566 36.1536 39.9464 34.2732C41.4911 32.1372 42.1114 30.0336 42.136 29.9256C42.0855 29.9088 37.9674 28.3764 37.9268 23.7408Z" fill="white"/>
<path d="M33.9883 12.3672C35.064 11.0556 35.8 9.27125 35.5957 7.46045C34.0388 7.52765 32.0917 8.51045 30.9704 9.79325C29.9784 10.9236 29.0923 12.7764 29.3212 14.5188C31.0701 14.646 32.8658 13.6584 33.9883 12.3672Z" fill="white"/>
</g>
</g>
<g id="Download on the">
<path id="D" d="M61.2154 12.0108C61.2154 13.4232 60.7809 14.4864 59.9132 15.2004C59.1095 15.8592 57.9674 16.1892 56.488 16.1892C55.7544 16.1892 55.1267 16.158 54.6012 16.0956V8.37841C55.2867 8.27041 56.0252 8.21521 56.8227 8.21521C58.232 8.21521 59.2941 8.51401 60.0104 9.11161C60.8129 9.78721 61.2154 10.7532 61.2154 12.0108ZM59.8554 12.0456C59.8554 11.13 59.6067 10.428 59.1095 9.93841C58.6123 9.45001 57.8861 9.20521 56.9298 9.20521C56.5237 9.20521 56.1778 9.23161 55.891 9.28681V15.1536C56.0498 15.1776 56.3403 15.1884 56.7624 15.1884C57.7495 15.1884 58.5114 14.9208 59.048 14.3856C59.5846 13.8504 59.8554 13.0704 59.8554 12.0456Z" fill="white"/>
<path id="o" d="M68.4264 13.2443C68.4264 14.1143 68.1717 14.8271 67.6621 15.3863C67.128 15.9611 66.4203 16.2479 65.5366 16.2479C64.6849 16.2479 64.0067 15.9731 63.5009 15.4211C62.9963 14.8703 62.744 14.1755 62.744 13.3379C62.744 12.4619 63.0036 11.7431 63.5255 11.1851C64.0473 10.6271 64.7489 10.3475 65.6326 10.3475C66.4843 10.3475 67.1686 10.6223 67.6867 11.1731C68.179 11.7083 68.4264 12.3995 68.4264 13.2443ZM67.0886 13.2851C67.0886 12.7631 66.9729 12.3155 66.7427 11.9423C66.472 11.4911 66.0867 11.2655 65.5858 11.2655C65.0677 11.2655 64.6738 11.4911 64.403 11.9423C64.1717 12.3155 64.0572 12.7703 64.0572 13.3079C64.0572 13.8299 64.1729 14.2775 64.403 14.6507C64.6824 15.1019 65.0713 15.3275 65.5735 15.3275C66.0658 15.3275 66.4523 15.0983 66.7304 14.6387C66.9692 14.2583 67.0886 13.8071 67.0886 13.2851Z" fill="white"/>
<path id="w" d="M78.0954 10.4628L76.28 16.1196H75.0984L74.3464 13.6632C74.1557 13.05 74.0006 12.4404 73.88 11.8356H73.8566C73.7446 12.4572 73.5895 13.0656 73.3901 13.6632L72.5914 16.1196H71.3963L69.6892 10.4628H71.0147L71.6707 13.152C71.8295 13.788 71.96 14.394 72.0646 14.9676H72.088C72.184 14.4948 72.3427 13.8924 72.5667 13.164L73.3901 10.464H74.4412L75.2301 13.1064C75.4209 13.7508 75.576 14.3712 75.6954 14.9688H75.7311C75.8184 14.3868 75.9501 13.7664 76.1249 13.1064L76.8289 10.464H78.0954V10.4628Z" fill="white"/>
<path id="n" d="M84.7821 16.1196H83.4923V12.8796C83.4923 11.8812 83.1034 11.382 82.323 11.382C81.9403 11.382 81.6314 11.5188 81.3914 11.7936C81.1538 12.0684 81.0332 12.3924 81.0332 12.7632V16.1184H79.7434V12.0792C79.7434 11.5824 79.7274 11.0436 79.6966 10.4604H80.8301L80.8904 11.3448H80.9261C81.0763 11.07 81.3003 10.8432 81.5944 10.662C81.944 10.4508 82.3354 10.344 82.7637 10.344C83.3052 10.344 83.7557 10.5144 84.1138 10.8564C84.5594 11.2752 84.7821 11.9004 84.7821 12.7308V16.1196V16.1196Z" fill="white"/>
<path id="l" d="M88.339 16.1196H87.0504V7.86719H88.339V16.1196Z" fill="white"/>
<path id="o_2" d="M95.9329 13.2443C95.9329 14.1143 95.6781 14.8271 95.1686 15.3863C94.6344 15.9611 93.9255 16.2479 93.043 16.2479C92.1901 16.2479 91.512 15.9731 91.0073 15.4211C90.5027 14.8703 90.2504 14.1755 90.2504 13.3379C90.2504 12.4619 90.5101 11.7431 91.032 11.1851C91.5538 10.6271 92.2553 10.3475 93.1378 10.3475C93.9907 10.3475 94.6738 10.6223 95.1932 11.1731C95.6855 11.7083 95.9329 12.3995 95.9329 13.2443ZM94.5938 13.2851C94.5938 12.7631 94.4781 12.3155 94.248 11.9423C93.9784 11.4911 93.592 11.2655 93.0923 11.2655C92.5729 11.2655 92.179 11.4911 91.9095 11.9423C91.6781 12.3155 91.5637 12.7703 91.5637 13.3079C91.5637 13.8299 91.6793 14.2775 91.9095 14.6507C92.1889 15.1019 92.5778 15.3275 93.08 15.3275C93.5723 15.3275 93.9575 15.0983 94.2357 14.6387C94.4757 14.2583 94.5938 13.8071 94.5938 13.2851Z" fill="white"/>
<path id="a" d="M102.175 16.1195H101.017L100.921 15.4679H100.886C100.489 15.9875 99.9243 16.2479 99.1908 16.2479C98.6431 16.2479 98.2 16.0763 97.8665 15.7355C97.5637 15.4259 97.4123 15.0407 97.4123 14.5835C97.4123 13.8923 97.7077 13.3655 98.3021 13.0007C98.8954 12.6359 99.7298 12.4571 100.804 12.4655V12.3599C100.804 11.6147 100.403 11.2427 99.5994 11.2427C99.0271 11.2427 98.5225 11.3831 98.0868 11.6615L97.8246 10.8359C98.3637 10.5107 99.0295 10.3475 99.8148 10.3475C101.331 10.3475 102.092 11.1275 102.092 12.6875V14.7707C102.092 15.3359 102.12 15.7859 102.175 16.1195ZM100.836 14.1755V13.3031C99.4135 13.2791 98.7021 13.6595 98.7021 14.4431C98.7021 14.7383 98.7834 14.9591 98.9495 15.1067C99.1157 15.2543 99.3274 15.3275 99.5797 15.3275C99.8628 15.3275 100.127 15.2399 100.369 15.0659C100.611 14.8907 100.76 14.6687 100.815 14.3963C100.829 14.3351 100.836 14.2607 100.836 14.1755Z" fill="white"/>
<path id="d" d="M109.505 16.1196H108.36L108.3 15.2112H108.264C107.898 15.9024 107.276 16.248 106.401 16.248C105.702 16.248 105.119 15.9804 104.658 15.4452C104.196 14.91 103.966 14.2152 103.966 13.362C103.966 12.4464 104.216 11.7048 104.718 11.1384C105.204 10.6104 105.8 10.3464 106.509 10.3464C107.288 10.3464 107.833 10.602 108.143 11.1144H108.168V7.86719H109.459V14.5956C109.459 15.1464 109.474 15.654 109.505 16.1196ZM108.168 13.734V12.7908C108.168 12.6276 108.156 12.4956 108.132 12.3948C108.06 12.0924 107.903 11.838 107.666 11.6328C107.426 11.4276 107.137 11.3244 106.803 11.3244C106.322 11.3244 105.945 11.5104 105.668 11.8836C105.394 12.2568 105.255 12.7332 105.255 13.3152C105.255 13.8744 105.386 14.328 105.651 14.6772C105.93 15.0492 106.307 15.2352 106.778 15.2352C107.202 15.2352 107.54 15.0804 107.798 14.7696C108.046 14.4828 108.168 14.1372 108.168 13.734Z" fill="white"/>
<path id="o_3" d="M120.536 13.2443C120.536 14.1143 120.281 14.8271 119.772 15.3863C119.238 15.9611 118.531 16.2479 117.646 16.2479C116.796 16.2479 116.118 15.9731 115.61 15.4211C115.106 14.8703 114.854 14.1755 114.854 13.3379C114.854 12.4619 115.113 11.7431 115.635 11.1851C116.157 10.6271 116.858 10.3475 117.743 10.3475C118.594 10.3475 119.279 10.6223 119.796 11.1731C120.289 11.7083 120.536 12.3995 120.536 13.2443ZM119.199 13.2851C119.199 12.7631 119.084 12.3155 118.854 11.9423C118.582 11.4911 118.198 11.2655 117.695 11.2655C117.178 11.2655 116.785 11.4911 116.513 11.9423C116.281 12.3155 116.167 12.7703 116.167 13.3079C116.167 13.8299 116.282 14.2775 116.513 14.6507C116.792 15.1019 117.181 15.3275 117.683 15.3275C118.175 15.3275 118.563 15.0983 118.841 14.6387C119.079 14.2583 119.199 13.8071 119.199 13.2851Z" fill="white"/>
<path id="n_2" d="M127.471 16.1196H126.183V12.8796C126.183 11.8812 125.794 11.382 125.012 11.382C124.629 11.382 124.321 11.5188 124.082 11.7936C123.843 12.0684 123.724 12.3924 123.724 12.7632V16.1184H122.433V12.0792C122.433 11.5824 122.418 11.0436 122.387 10.4604H123.519L123.58 11.3448H123.615C123.767 11.07 123.991 10.8432 124.284 10.662C124.634 10.4508 125.025 10.344 125.454 10.344C125.994 10.344 126.445 10.5144 126.803 10.8564C127.25 11.2752 127.471 11.9004 127.471 12.7308V16.1196V16.1196Z" fill="white"/>
<path id="t" d="M136.152 11.4048H134.732V14.1528C134.732 14.8512 134.984 15.2004 135.484 15.2004C135.715 15.2004 135.907 15.1812 136.058 15.1416L136.092 16.0956C135.837 16.1892 135.502 16.236 135.09 16.236C134.58 16.236 134.184 16.0848 133.897 15.7824C133.609 15.48 133.466 14.9712 133.466 14.2572V11.4048H132.618V10.4628H133.466V9.42596L134.73 9.05396V10.4616H136.151V11.4048H136.152Z" fill="white"/>
<path id="h" d="M142.98 16.1196H141.689V12.9036C141.689 11.8896 141.3 11.382 140.521 11.382C139.923 11.382 139.514 11.676 139.29 12.264C139.252 12.3876 139.23 12.5388 139.23 12.7164V16.1184H137.941V7.86719H139.23V11.2764H139.255C139.661 10.656 140.243 10.3464 140.997 10.3464C141.532 10.3464 141.973 10.5168 142.324 10.8588C142.761 11.2848 142.98 11.9184 142.98 12.756V16.1196V16.1196Z" fill="white"/>
<path id="e" d="M150.024 13.0236C150.024 13.2492 150.007 13.4388 149.976 13.5936H146.108C146.125 14.1528 146.309 14.5788 146.668 14.874C146.995 15.138 147.417 15.27 147.934 15.27C148.506 15.27 149.028 15.1812 149.498 15.0024L149.7 15.876C149.15 16.1088 148.503 16.2252 147.753 16.2252C146.855 16.2252 146.147 15.9672 145.635 15.4512C145.121 14.9352 144.866 14.2428 144.866 13.374C144.866 12.5208 145.103 11.8104 145.582 11.244C146.082 10.6392 146.757 10.3368 147.61 10.3368C148.445 10.3368 149.079 10.6392 149.507 11.244C149.853 11.724 150.024 12.318 150.024 13.0236ZM148.793 12.6984C148.803 12.3252 148.718 12.0036 148.543 11.7324C148.319 11.3832 147.978 11.208 147.517 11.208C147.096 11.208 146.753 11.3784 146.49 11.7204C146.276 11.9928 146.149 12.318 146.108 12.6984H148.793Z" fill="white"/>
</g>
<g id="App Store_2">
<path id="A" d="M66.8707 37.8048H64.0756L62.5446 33.114H57.2227L55.7643 37.8048H53.043L58.3156 21.8352H61.5723L66.8707 37.8048ZM62.083 31.146L60.6984 26.976C60.552 26.55 60.2775 25.5468 59.8726 23.9676H59.8233C59.6621 24.6468 59.4024 25.65 59.0455 26.976L57.6855 31.146H62.083V31.146Z" fill="white"/>
<path id="p" d="M80.4301 31.9056C80.4301 33.864 79.8873 35.412 78.8018 36.5484C77.8295 37.56 76.6221 38.0652 75.1809 38.0652C73.6252 38.0652 72.5077 37.5204 71.827 36.4308H71.7778V42.4968H69.1538V30.0804C69.1538 28.8492 69.1206 27.5856 69.0566 26.2896H71.3643L71.5107 28.1148H71.56C72.435 26.7396 73.763 26.0532 75.5452 26.0532C76.9384 26.0532 78.1015 26.5896 79.032 27.6636C79.9649 28.7388 80.4301 30.1524 80.4301 31.9056ZM77.7569 31.9992C77.7569 30.8784 77.4984 29.9544 76.979 29.2272C76.4117 28.4688 75.6498 28.0896 74.6947 28.0896C74.0473 28.0896 73.459 28.3008 72.9335 28.7172C72.4067 29.1372 72.0621 29.6856 71.9009 30.3648C71.8197 30.6816 71.779 30.9408 71.779 31.1448V33.0648C71.779 33.9024 72.0424 34.6092 72.5692 35.1864C73.096 35.7636 73.7803 36.0516 74.6221 36.0516C75.6104 36.0516 76.3797 35.6796 76.9298 34.938C77.4812 34.1952 77.7569 33.216 77.7569 31.9992Z" fill="white"/>
<path id="p_2" d="M94.0141 31.9056C94.0141 33.864 93.4713 35.412 92.3846 36.5484C91.4135 37.56 90.2061 38.0652 88.7649 38.0652C87.2092 38.0652 86.0916 37.5204 85.4122 36.4308H85.363V42.4968H82.739V30.0804C82.739 28.8492 82.7058 27.5856 82.6418 26.2896H84.9495L85.0959 28.1148H85.1452C86.019 26.7396 87.347 26.0532 89.1304 26.0532C90.5224 26.0532 91.6855 26.5896 92.6184 27.6636C93.5476 28.7388 94.0141 30.1524 94.0141 31.9056ZM91.3409 31.9992C91.3409 30.8784 91.0812 29.9544 90.5618 29.2272C89.9944 28.4688 89.235 28.0896 88.2787 28.0896C87.6301 28.0896 87.043 28.3008 86.5163 28.7172C85.9895 29.1372 85.6461 29.6856 85.4849 30.3648C85.4049 30.6816 85.363 30.9408 85.363 31.1448V33.0648C85.363 33.9024 85.6264 34.6092 86.1507 35.1864C86.6775 35.7624 87.3618 36.0516 88.2061 36.0516C89.1944 36.0516 89.9636 35.6796 90.5138 34.938C91.0652 34.1952 91.3409 33.216 91.3409 31.9992Z" fill="white"/>
<path id="S" d="M109.202 33.3264C109.202 34.6848 108.718 35.79 107.747 36.6432C106.68 37.5756 105.194 38.0412 103.286 38.0412C101.523 38.0412 100.11 37.71 99.0406 37.0464L99.6486 34.914C100.801 35.5932 102.065 35.934 103.442 35.934C104.43 35.934 105.199 35.7156 105.752 35.2812C106.302 34.8468 106.577 34.2636 106.577 33.5364C106.577 32.8884 106.35 32.3424 105.896 31.8996C105.444 31.4568 104.69 31.0452 103.636 30.6648C100.769 29.622 99.336 28.0944 99.336 26.0856C99.336 24.7728 99.8381 23.6964 100.844 22.8588C101.846 22.02 103.182 21.6012 104.854 21.6012C106.344 21.6012 107.582 21.8544 108.57 22.3596L107.914 24.4452C106.991 23.9556 105.948 23.7108 104.78 23.7108C103.857 23.7108 103.135 23.9328 102.618 24.3744C102.182 24.7692 101.962 25.2504 101.962 25.8204C101.962 26.4516 102.212 26.9736 102.714 27.384C103.151 27.7632 103.945 28.1736 105.097 28.6164C106.506 29.1696 107.542 29.8164 108.207 30.558C108.871 31.2972 109.202 32.2224 109.202 33.3264Z" fill="white"/>
<path id="t_2" d="M117.877 28.2096H114.985V33.8004C114.985 35.2224 115.495 35.9328 116.516 35.9328C116.985 35.9328 117.374 35.8932 117.682 35.814L117.754 37.7568C117.237 37.9452 116.557 38.04 115.714 38.04C114.677 38.04 113.868 37.7316 113.283 37.116C112.701 36.4992 112.408 35.4648 112.408 34.0116V28.2072H110.685V26.2872H112.408V24.1788L114.985 23.4204V26.2872H117.877V28.2096Z" fill="white"/>
<path id="o_4" d="M130.927 31.9524C130.927 33.7224 130.408 35.1756 129.372 36.312C128.285 37.482 126.842 38.0652 125.044 38.0652C123.311 38.0652 121.932 37.5048 120.903 36.384C119.874 35.2632 119.359 33.8484 119.359 32.1432C119.359 30.3588 119.889 28.8972 120.951 27.7608C122.01 26.6232 123.441 26.0544 125.239 26.0544C126.972 26.0544 128.366 26.6148 129.418 27.7368C130.425 28.8252 130.927 30.2304 130.927 31.9524ZM128.205 32.0352C128.205 30.9732 127.972 30.0624 127.501 29.3028C126.951 28.3836 126.164 27.9252 125.145 27.9252C124.09 27.9252 123.289 28.3848 122.739 29.3028C122.268 30.0636 122.035 30.9888 122.035 32.0832C122.035 33.1452 122.268 34.056 122.739 34.8144C123.306 35.7336 124.099 36.192 125.122 36.192C126.124 36.192 126.91 35.724 127.477 34.7904C127.961 34.0164 128.205 33.096 128.205 32.0352Z" fill="white"/>
<path id="r" d="M139.457 28.5396C139.197 28.4928 138.92 28.4688 138.63 28.4688C137.706 28.4688 136.993 28.8084 136.49 29.4888C136.054 30.0888 135.834 30.8472 135.834 31.7628V37.8048H133.212L133.236 29.916C133.236 28.5888 133.203 27.3804 133.138 26.2908H135.423L135.519 28.494H135.592C135.869 27.7368 136.306 27.1272 136.904 26.67C137.489 26.2584 138.12 26.0532 138.801 26.0532C139.043 26.0532 139.262 26.07 139.457 26.1V28.5396Z" fill="white"/>
<path id="e_2" d="M151.192 31.5024C151.192 31.9608 151.161 32.3472 151.096 32.6628H143.224C143.255 33.8004 143.635 34.6704 144.366 35.2704C145.029 35.8068 145.887 36.0756 146.941 36.0756C148.106 36.0756 149.17 35.8944 150.126 35.5308L150.537 37.3068C149.42 37.782 148.1 38.0184 146.578 38.0184C144.746 38.0184 143.309 37.4928 142.263 36.4428C141.219 35.3928 140.696 33.9828 140.696 32.214C140.696 30.4776 141.182 29.0316 142.156 27.8784C143.175 26.6472 144.552 26.0316 146.285 26.0316C147.987 26.0316 149.276 26.6472 150.151 27.8784C150.844 28.8564 151.192 30.066 151.192 31.5024ZM148.69 30.8388C148.707 30.0804 148.536 29.4252 148.18 28.872C147.726 28.1604 147.028 27.8052 146.089 27.8052C145.231 27.8052 144.533 28.152 144.001 28.848C143.564 29.4012 143.304 30.0648 143.224 30.8376H148.69V30.8388Z" fill="white"/>
</g>
</g>
</g>
</svg>
