<svg width="167" height="48" viewBox="0 0 167 48" fill="none" xmlns="http://www.w3.org/2000/svg">
<g id="Google Play">
<g id="Group">
<path id="BG" d="M160 48H6.15382C2.77074 48 -3.05176e-05 45.2985 -3.05176e-05 42V6C-3.05176e-05 2.7015 2.77074 2.86102e-06 6.15382 2.86102e-06H160C163.383 2.86102e-06 166.154 2.7015 166.154 6V42C166.154 45.2985 163.383 48 160 48Z" fill="black"/>
<path id="Border" d="M160 0.961501C162.849 0.961501 165.168 3.222 165.168 6V42C165.168 44.778 162.849 47.0385 160 47.0385H6.15382C3.30458 47.0385 0.986123 44.778 0.986123 42V6C0.986123 3.222 3.30458 0.961501 6.15382 0.961501H160ZM160 2.86102e-06H6.15382C2.77074 2.86102e-06 -3.05176e-05 2.7015 -3.05176e-05 6V42C-3.05176e-05 45.2985 2.77074 48 6.15382 48H160C163.383 48 166.154 45.2985 166.154 42V6C166.154 2.7015 163.383 2.86102e-06 160 2.86102e-06Z" fill="#A6A6A6"/>
<g id="Icon">
<path id="Vector" d="M12.843 9.04652C12.4815 9.41552 12.2723 9.99002 12.2723 10.734V37.272C12.2723 38.016 12.4815 38.5905 12.843 38.9595L12.9323 39.0405L28.1846 24.1755V23.8245L12.9323 8.95952L12.843 9.04652Z" fill="url(#paint0_linear_1_964)"/>
<path id="Vector_2" d="M33.263 29.1329L28.1845 24.1754V23.8244L33.2692 18.8669L33.383 18.9314L39.4045 22.2719C41.123 23.2199 41.123 24.7799 39.4045 25.7339L33.383 29.0684L33.263 29.1329V29.1329Z" fill="url(#paint1_linear_1_964)"/>
<path id="Vector_3" d="M33.383 29.0685L28.1846 24L12.843 38.9595C13.4138 39.5445 14.3446 39.615 15.403 39.03L33.383 29.0685" fill="url(#paint2_linear_1_964)"/>
<path id="Vector_4" d="M33.383 18.9315L15.403 8.97C14.3446 8.391 13.4138 8.4615 12.843 9.0465L28.1846 24L33.383 18.9315Z" fill="url(#paint3_linear_1_964)"/>
</g>
<g id="GET IT ON">
<path id="G" d="M58.36 12.2924C58.36 13.2944 58.0523 14.0969 57.4461 14.6954C56.7492 15.4049 55.8415 15.7619 54.7292 15.7619C53.6661 15.7619 52.7584 15.3989 52.0138 14.6834C51.2677 13.9574 50.8954 13.0664 50.8954 11.9999C50.8954 10.9334 51.2677 10.0424 52.0138 9.32242C52.7584 8.60092 53.6661 8.23792 54.7292 8.23792C55.2584 8.23792 55.763 8.34442 56.2446 8.54242C56.7246 8.74192 57.1154 9.01191 57.3984 9.34491L56.7554 9.97792C56.2615 9.40942 55.5892 9.12892 54.7292 9.12892C53.9538 9.12892 53.2815 9.39291 52.7107 9.92541C52.1461 10.4594 51.863 11.1509 51.863 11.9999C51.863 12.8489 52.1461 13.5464 52.7107 14.0804C53.2815 14.6069 53.9538 14.8769 54.7292 14.8769C55.5523 14.8769 56.2446 14.6069 56.7907 14.0744C57.1507 13.7219 57.3554 13.2359 57.4092 12.6149H54.7292V11.7479H58.3046C58.3477 11.9354 58.36 12.1169 58.36 12.2924V12.2924Z" fill="white" stroke="white" stroke-width="0.16" stroke-miterlimit="10"/>
<path id="E" d="M64.0323 9.28645H60.6738V11.5665H63.7015V12.4335H60.6738V14.7135H64.0323V15.597H59.7231V8.40295H64.0323V9.28645Z" fill="white" stroke="white" stroke-width="0.16" stroke-miterlimit="10"/>
<path id="T" d="M68.0353 15.597H67.0846V9.28645H65.0246V8.40295H70.0969V9.28645H68.0353V15.597V15.597Z" fill="white" stroke="white" stroke-width="0.16" stroke-miterlimit="10"/>
<path id="I" d="M73.7677 15.597V8.40295H74.7169V15.597H73.7677Z" fill="white" stroke="white" stroke-width="0.16" stroke-miterlimit="10"/>
<path id="T_2" d="M78.9245 15.597H77.9815V9.28645H75.9138V8.40295H80.9922V9.28645H78.9245V15.597Z" fill="white" stroke="white" stroke-width="0.16" stroke-miterlimit="10"/>
<path id="O" d="M90.5954 14.6714C89.8677 15.3989 88.9661 15.7619 87.8907 15.7619C86.8092 15.7619 85.9077 15.3989 85.18 14.6714C84.4538 13.9454 84.0923 13.0544 84.0923 11.9999C84.0923 10.9454 84.4538 10.0544 85.18 9.32842C85.9077 8.60092 86.8092 8.23792 87.8907 8.23792C88.96 8.23792 89.8615 8.60091 90.5892 9.33441C91.3215 10.0664 91.6831 10.9514 91.6831 11.9999C91.6831 13.0544 91.3215 13.9454 90.5954 14.6714ZM85.8831 14.0684C86.4307 14.6069 87.0969 14.8769 87.8907 14.8769C88.6784 14.8769 89.3507 14.6069 89.8923 14.0684C90.4384 13.5299 90.7154 12.8384 90.7154 11.9999C90.7154 11.1614 90.4384 10.4699 89.8923 9.93142C89.3507 9.39292 88.6784 9.12292 87.8907 9.12292C87.0969 9.12292 86.4307 9.39292 85.8831 9.93142C85.3369 10.4699 85.06 11.1614 85.06 11.9999C85.06 12.8384 85.3369 13.5299 85.8831 14.0684V14.0684Z" fill="white" stroke="white" stroke-width="0.16" stroke-miterlimit="10"/>
<path id="N" d="M93.0169 15.597V8.40295H94.1707L97.7584 13.998H97.8L97.7584 12.615V8.40295H98.7077V15.597H97.7169L93.96 9.72595H93.9184L93.96 11.115V15.597H93.0169V15.597Z" fill="white" stroke="white" stroke-width="0.16" stroke-miterlimit="10"/>
</g>
<g id="Google Play_2">
<path id="Google Play_3" d="M83.8584 26.1031C80.9677 26.1031 78.6061 28.2481 78.6061 31.2076C78.6061 34.1431 80.9677 36.3106 83.8584 36.3106C86.7553 36.3106 89.1169 34.1431 89.1169 31.2076C89.1169 28.2481 86.7553 26.1031 83.8584 26.1031ZM83.8584 34.3006C82.2723 34.3006 80.9077 33.0241 80.9077 31.2076C80.9077 29.3671 82.2723 28.1131 83.8584 28.1131C85.4446 28.1131 86.8153 29.3671 86.8153 31.2076C86.8153 33.0241 85.4446 34.3006 83.8584 34.3006V34.3006ZM72.3984 26.1031C69.5015 26.1031 67.1461 28.2481 67.1461 31.2076C67.1461 34.1431 69.5015 36.3106 72.3984 36.3106C75.2938 36.3106 77.6507 34.1431 77.6507 31.2076C77.6507 28.2481 75.2938 26.1031 72.3984 26.1031ZM72.3984 34.3006C70.8107 34.3006 69.4415 33.0241 69.4415 31.2076C69.4415 29.3671 70.8107 28.1131 72.3984 28.1131C73.9846 28.1131 75.3492 29.3671 75.3492 31.2076C75.3492 33.0241 73.9846 34.3006 72.3984 34.3006ZM58.7615 27.6676V29.8366H64.0738C63.9184 31.0486 63.503 31.9396 62.8661 32.5606C62.0907 33.3106 60.883 34.1431 58.7615 34.1431C55.4923 34.1431 52.9323 31.5706 52.9323 28.3831C52.9323 25.1956 55.4923 22.6231 58.7615 22.6231C60.5292 22.6231 61.8154 23.2966 62.7646 24.1696L64.3323 22.6411C63.0046 21.4051 61.2384 20.4556 58.7615 20.4556C54.2784 20.4556 50.5107 24.0121 50.5107 28.3831C50.5107 32.7541 54.2784 36.3106 58.7615 36.3106C61.1846 36.3106 63.0046 35.5366 64.4354 34.0846C65.9015 32.6551 66.3584 30.6451 66.3584 29.0221C66.3584 28.5181 66.3154 28.0546 66.2384 27.6676H58.7615ZM114.525 29.3491C114.092 28.2076 112.758 26.1031 110.041 26.1031C107.349 26.1031 105.108 28.1716 105.108 31.2076C105.108 34.0666 107.326 36.3106 110.3 36.3106C112.705 36.3106 114.092 34.8811 114.663 34.0486L112.878 32.8891C112.283 33.7381 111.472 34.3006 110.3 34.3006C109.135 34.3006 108.3 33.7801 107.765 32.7541L114.766 29.9296L114.525 29.3491V29.3491ZM107.386 31.0486C107.326 29.0806 108.954 28.0726 110.12 28.0726C111.034 28.0726 111.809 28.5181 112.068 29.1556L107.386 31.0486V31.0486ZM101.695 36.0001H103.997V21.0001H101.695V36.0001ZM97.9261 27.2401H97.8492C97.3323 26.6431 96.3461 26.1031 95.0969 26.1031C92.4754 26.1031 90.0784 28.3471 90.0784 31.2241C90.0784 34.0846 92.4754 36.3106 95.0969 36.3106C96.3461 36.3106 97.3323 35.7661 97.8492 35.1511H97.9261V35.8831C97.9261 37.8346 96.8569 38.8831 95.1323 38.8831C93.7261 38.8831 92.8538 37.8931 92.4938 37.0606L90.4923 37.8751C91.0692 39.2281 92.5969 40.8931 95.1323 40.8931C97.8307 40.8931 100.108 39.3451 100.108 35.5786V26.4136H97.9261V27.2401V27.2401ZM95.2938 34.3006C93.7077 34.3006 92.38 33.0061 92.38 31.2241C92.38 29.4256 93.7077 28.1131 95.2938 28.1131C96.8569 28.1131 98.0892 29.4256 98.0892 31.2241C98.0892 33.0061 96.8569 34.3006 95.2938 34.3006V34.3006ZM125.3 21.0001H119.795V36.0001H122.091V30.3166H125.3C127.849 30.3166 130.349 28.5181 130.349 25.6576C130.349 22.7986 127.843 21.0001 125.3 21.0001V21.0001ZM125.36 28.2301H122.091V23.0866H125.36C127.074 23.0866 128.052 24.4741 128.052 25.6576C128.052 26.8186 127.074 28.2301 125.36 28.2301ZM139.549 26.0746C137.891 26.0746 136.166 26.7886 135.457 28.3711L137.494 29.2036C137.932 28.3711 138.738 28.1011 139.591 28.1011C140.781 28.1011 141.989 28.7986 142.008 30.0301V30.1876C141.592 29.9536 140.703 29.6071 139.609 29.6071C137.415 29.6071 135.18 30.7846 135.18 32.9821C135.18 34.9921 136.977 36.2866 138.997 36.2866C140.541 36.2866 141.394 35.6071 141.929 34.8166H142.008V35.9761H144.225V30.2221C144.225 27.5626 142.188 26.0746 139.549 26.0746ZM139.272 34.2946C138.521 34.2946 137.475 33.9316 137.475 33.0241C137.475 31.8631 138.78 31.4176 139.909 31.4176C140.92 31.4176 141.394 31.6351 142.008 31.9216C141.828 33.3106 140.601 34.2946 139.272 34.2946V34.2946ZM152.301 26.4031L149.663 32.9056H149.585L146.857 26.4031H144.381L148.48 35.4901L146.141 40.5466H148.54L154.855 26.4031H152.301V26.4031ZM131.611 36.0001H133.912V21.0001H131.611V36.0001Z" fill="white"/>
</g>
</g>
</g>
<defs>
<linearGradient id="paint0_linear_1_964" x1="26.8304" y1="37.5484" x2="6.69793" y2="16.8998" gradientUnits="userSpaceOnUse">
<stop stop-color="#00A0FF"/>
<stop offset="0.0066" stop-color="#00A1FF"/>
<stop offset="0.2601" stop-color="#00BEFF"/>
<stop offset="0.5122" stop-color="#00D2FF"/>
<stop offset="0.7604" stop-color="#00DFFF"/>
<stop offset="1" stop-color="#00E3FF"/>
</linearGradient>
<linearGradient id="paint1_linear_1_964" x1="41.6423" y1="23.9983" x2="11.8615" y2="23.9983" gradientUnits="userSpaceOnUse">
<stop stop-color="#FFE000"/>
<stop offset="0.4087" stop-color="#FFBD00"/>
<stop offset="0.7754" stop-color="#FFA500"/>
<stop offset="1" stop-color="#FF9C00"/>
</linearGradient>
<linearGradient id="paint2_linear_1_964" x1="30.5562" y1="21.2447" x2="3.25504" y2="-6.75659" gradientUnits="userSpaceOnUse">
<stop stop-color="#FF3A44"/>
<stop offset="1" stop-color="#C31162"/>
</linearGradient>
<linearGradient id="paint3_linear_1_964" x1="8.98123" y1="47.7886" x2="21.1724" y2="35.2849" gradientUnits="userSpaceOnUse">
<stop stop-color="#32A071"/>
<stop offset="0.0685" stop-color="#2DA771"/>
<stop offset="0.4762" stop-color="#15CF74"/>
<stop offset="0.8009" stop-color="#06E775"/>
<stop offset="1" stop-color="#00F076"/>
</linearGradient>
</defs>
</svg>
