<svg width="25" height="24" viewBox="0 0 25 24" fill="none" xmlns="http://www.w3.org/2000/svg">
<g id="_Linkedin" clip-path="url(#clip0_1_929)">
<path id="Vector" d="M0.5 3.20218C0.5 2.42996 0.770278 1.7929 1.31081 1.29098C1.85134 0.789043 2.55406 0.538086 3.41892 0.538086C4.26835 0.538086 4.95559 0.785175 5.4807 1.2794C6.02123 1.78905 6.29151 2.45313 6.29151 3.27168C6.29151 4.01299 6.02897 4.63073 5.50386 5.12496C4.96333 5.63461 4.2529 5.88944 3.37259 5.88944H3.34942C2.49999 5.88944 1.81275 5.63461 1.28764 5.12496C0.762541 4.61531 0.5 3.97437 0.5 3.20218ZM0.801158 23.4724V7.99755H5.94402V23.4724H0.801158ZM8.79344 23.4724H13.9363V14.8315C13.9363 14.291 13.9981 13.874 14.1216 13.5806C14.3378 13.0555 14.666 12.6114 15.1062 12.2485C15.5463 11.8856 16.0984 11.7041 16.7625 11.7041C18.4923 11.7041 19.3571 12.8701 19.3571 15.2022V23.4724H24.5V14.5999C24.5 12.3141 23.9595 10.5806 22.8784 9.39909C21.7973 8.21762 20.3687 7.62689 18.5927 7.62689C16.6004 7.62689 15.0483 8.48403 13.9363 10.1983V10.2446H13.9131L13.9363 10.1983V7.99755H8.79344C8.82432 8.49175 8.83977 10.0284 8.83977 12.6076C8.83977 15.1867 8.82432 18.8083 8.79344 23.4724Z" fill="#00B795"/>
</g>
<defs>
<clipPath id="clip0_1_929">
<rect width="24" height="24" fill="white" transform="translate(0.5)"/>
</clipPath>
</defs>
</svg>
