<svg width="2293" height="831" viewBox="0 0 2293 831" fill="none" xmlns="http://www.w3.org/2000/svg">
<path d="M51.9122 517.903L51.7239 518.016L51.9122 518.129V517.903ZM55.6794 511.386V524.645L50.0286 521.368L49.8403 521.255L44.1894 517.978L49.8403 514.701L50.0286 514.588L55.6794 511.311V511.386Z" fill="#00B795"/>
<path d="M118.442 515.605V520.389L122.586 518.016L118.442 515.643M114.675 509.126L120.325 512.403L124.469 514.776L130.12 518.053L124.469 521.33L120.325 523.703L114.675 526.98V509.164V509.126Z" fill="#00B795"/>
<path d="M17.819 459.031V459.257L18.0073 459.144L17.819 459.031ZM14.0517 452.515L19.7026 455.792L19.8909 455.905L25.5417 459.182L19.8909 462.459L19.7026 462.572L14.0517 465.849V452.59V452.515Z" fill="#00B795"/>
<path d="M154.494 457.977L152.46 459.144L154.494 460.312V457.977ZM158.261 451.461V466.866L152.61 463.589L150.576 462.421L144.925 459.144L150.576 455.867L152.61 454.7L158.261 451.423V451.461Z" fill="#00B795"/>
<path d="M220.119 456.206V462.082L225.205 459.144L220.119 456.206ZM216.352 449.69L222.003 452.967L227.089 455.905L232.74 459.182L227.089 462.459L222.003 465.397L216.352 468.673V449.765V449.69Z" fill="#00B795"/>
<path d="M262.011 507.243L243.363 518.016L262.011 528.788V507.243ZM265.778 500.727V535.304L260.127 532.027L241.479 521.255L235.829 517.978L241.479 514.701L260.127 503.929L265.778 500.652V500.727Z" fill="#00B795"/>
<path d="M116.747 394.924V405.659L126.051 400.31L116.747 394.962M112.979 388.446L118.63 391.723L127.935 397.071L133.586 400.348L127.935 403.625L118.63 408.974L112.979 412.25V388.483V388.446Z" fill="#00B795"/>
<path d="M260.918 391.421L245.586 400.272L260.918 409.124V391.383M264.686 384.867V415.64L259.035 412.363L243.702 403.512L238.051 400.235L243.702 396.958L259.035 388.107L264.686 384.83V384.867Z" fill="#00B795"/>
<path d="M316.146 504.833V531.198L338.975 518.016L316.146 504.833ZM312.379 498.316L318.03 501.593L340.859 514.776L346.51 518.053L340.859 521.33L318.03 534.513L312.379 537.79V498.392V498.316Z" fill="#00B795"/>
<path d="M166.022 320.346L129.48 341.439L166.022 362.532V320.346ZM169.789 313.83V369.048L164.138 365.771L127.596 344.678L121.945 341.401L127.596 338.125L164.138 317.032L169.789 313.755V313.83Z" fill="#00B795"/>
<path d="M203.656 310.026V372.815L258.055 341.401L203.656 309.988M199.889 303.472L205.54 306.749L259.939 338.162L265.59 341.439L259.939 344.716L205.54 376.129L199.889 379.406V303.547V303.472Z" fill="#00B795"/>
<path d="M319.687 393.229V407.354L331.893 400.311L319.687 393.267M315.92 386.751L321.571 390.028L333.776 397.071L339.427 400.348L333.776 403.625L321.571 410.669L315.92 413.946V386.789V386.751Z" fill="#00B795"/>
<path d="M361.051 453.457L351.181 459.144L361.051 464.832V453.457ZM364.818 446.941V471.385L359.168 468.109L349.297 462.421L343.647 459.144L349.297 455.867L359.168 450.18L364.818 446.903V446.941Z" fill="#00B795"/>
<path d="M112.942 270.627V294.545L133.661 282.605L112.942 270.665M109.174 264.149L114.825 267.426L135.545 279.366L141.196 282.643L135.545 285.92L114.825 297.86L109.174 301.137V264.187V264.149Z" fill="#00B795"/>
<path d="M279.227 241.964L208.855 282.568L279.227 323.171V241.964ZM282.994 235.448V329.725L277.343 326.448L206.972 285.844L201.321 282.568L206.972 279.291L277.343 238.687L282.994 235.41V235.448Z" fill="#00B795"/>
<path d="M300.323 241.964V323.171L370.695 282.567L300.323 241.964ZM296.556 235.448L302.207 238.725L372.579 279.328L378.23 282.605L372.579 285.882L302.207 326.486L296.556 329.763V235.485V235.448Z" fill="#00B795"/>
<path d="M374.726 312.06L323.869 341.401L374.726 370.743V312.022M378.494 305.506V377.259L372.843 373.982L321.985 344.641L316.334 341.364L321.985 338.087L372.843 308.745L378.494 305.468V305.506Z" fill="#00B795"/>
<path d="M423.361 455.039V463.25L430.481 459.144L423.361 455.039ZM419.594 448.522L425.245 451.799L432.365 455.905L438.016 459.182L432.365 462.459L425.245 466.564L419.594 469.841V448.598V448.522Z" fill="#00B795"/>
<path d="M468.041 503.59L443.064 518.015L468.041 532.441V503.59ZM471.808 497.073V538.958L466.157 535.681L441.18 521.255L435.529 517.978L441.18 514.701L466.157 500.275L471.808 496.998V497.073Z" fill="#00B795"/>
<path d="M5.42463 202.151V245.241L42.7578 223.696L5.42463 202.151ZM1.65739 195.635L7.30824 198.912L44.6414 220.457L50.2922 223.734L44.6414 227.011L7.30824 248.555L1.65739 251.832V195.673V195.635Z" fill="#00B795"/>
<path d="M177.286 183.093L106.914 223.696L177.286 264.3V183.093ZM181.053 176.577V270.854L175.402 267.577L105.03 226.973L99.3794 223.696L105.03 220.42L175.402 179.816L181.053 176.539V176.577Z" fill="#00B795"/>
<path d="M198.344 183.093V264.3L268.716 223.696L198.344 183.093ZM194.577 176.577L200.228 179.854L270.6 220.457L276.251 223.734L270.6 227.011L200.228 267.615L194.577 270.891V176.614V176.577Z" fill="#00B795"/>
<path d="M381.206 183.093L310.834 223.696L381.206 264.3V183.093ZM384.973 176.577V270.854L379.322 267.577L308.951 226.973L303.3 223.696L308.951 220.42L379.322 179.816L384.973 176.539V176.577Z" fill="#00B795"/>
<path d="M412.21 317.973V364.867L452.821 341.439L412.21 318.011M408.443 311.495L414.094 314.772L454.705 338.2L460.355 341.477L454.705 344.753L414.094 368.181L408.443 371.458V311.532V311.495Z" fill="#00B795"/>
<path d="M464.198 392.514L450.749 400.273L464.198 408.032V392.514ZM467.965 385.998V414.586L462.314 411.309L448.865 403.55L443.215 400.273L448.865 396.996L462.314 389.237L467.965 385.96V385.998Z" fill="#00B795"/>
<path d="M519.614 504.004V532.027L543.875 518.016L519.614 504.004ZM515.847 497.488L521.498 500.765L545.759 514.776L551.41 518.053L545.759 521.33L521.498 535.342L515.847 538.619V497.563V497.488Z" fill="#00B795"/>
<path d="M72.4061 129.269L10.7366 164.863L72.4061 200.457V129.269ZM76.1733 122.753V207.011L70.5225 203.734L8.85296 168.14L3.20211 164.863L8.85296 161.586L70.5225 125.992L76.1733 122.715V122.753Z" fill="#00B795"/>
<path d="M96.4788 124.372V205.316L166.587 164.825L96.4788 124.335M92.7115 117.818L98.3624 121.095L168.47 161.586L174.121 164.863L168.47 168.14L98.3624 208.63L92.7115 211.907V117.856V117.818Z" fill="#00B795"/>
<path d="M279.227 124.259L208.855 164.862L279.227 205.466V124.259ZM282.994 117.743V212.02L277.343 208.743L206.972 168.139L201.321 164.862L206.972 161.586L277.343 120.982L282.994 117.705V117.743Z" fill="#00B795"/>
<path d="M300.323 124.259V205.466L370.695 164.862L300.323 124.259ZM296.556 117.743L302.207 121.02L372.579 161.623L378.23 164.9L372.579 168.177L302.207 208.781L296.556 212.058V117.705V117.743Z" fill="#00B795"/>
<path d="M402.265 183.093V264.3L472.637 223.696L402.265 183.093ZM398.498 176.577L404.148 179.854L474.52 220.457L480.171 223.734L474.52 227.011L404.148 267.615L398.498 270.891V176.614V176.577Z" fill="#00B795"/>
<path d="M477.572 251.682L424.077 282.568L477.572 313.453V251.682ZM481.339 245.166V320.007L475.688 316.73L422.193 285.844L416.542 282.568L422.193 279.291L475.688 248.405L481.339 245.128V245.166Z" fill="#00B795"/>
<path d="M519.84 386.713V413.908L543.385 400.31L519.84 386.713ZM516.073 380.197L521.724 383.474L545.269 397.071L550.92 400.348L545.269 403.625L521.724 417.222L516.073 420.499V380.272V380.197Z" fill="#00B795"/>
<path d="M564.783 453.796L555.478 459.144L564.783 464.493V453.758M568.55 447.242V471.009L562.899 467.732L553.594 462.383L547.944 459.106L553.594 455.83L562.899 450.481L568.55 447.204V447.242Z" fill="#00B795"/>
<path d="M3.76715 81.5835V130.398L46.0354 105.991L3.76715 81.5835ZM-8.01086e-05 75.0674L5.65076 78.3443L47.919 102.752L53.5698 106.029L47.919 109.305L5.65076 133.713L-8.01086e-05 136.99V75.0674Z" fill="#00B795"/>
<path d="M175.628 68.2501L110.229 105.991L175.628 143.732V68.2501ZM179.396 61.734V150.286L173.745 147.009L108.346 109.268L102.695 105.991L108.346 102.714L173.745 64.9732L179.396 61.6963V61.734Z" fill="#00B795"/>
<path d="M199.399 67.1578V144.824L266.682 105.991L199.399 67.1578ZM195.632 60.6416L201.283 63.9185L268.566 102.752L274.217 106.029L268.566 109.306L201.283 148.139L195.632 151.416V60.6416Z" fill="#00B795"/>
<path d="M381.206 65.3873L310.834 105.991L381.206 146.594V65.3873ZM384.973 58.8712V153.148L379.322 149.871L308.951 109.268L303.3 105.991L308.951 102.714L379.322 62.1104L384.973 58.8335V58.8712Z" fill="#00B795"/>
<path d="M402.265 65.3877V146.595L472.637 105.991L402.265 65.3877ZM398.498 58.8716L404.148 62.1485L474.52 102.752L480.171 106.029L474.52 109.306L404.148 149.909L398.498 153.186V58.8716Z" fill="#00B795"/>
<path d="M483.185 124.259L412.813 164.862L483.185 205.466V124.259ZM486.952 117.743V212.02L481.301 208.743L410.929 168.139L405.279 164.862L410.929 161.586L481.301 120.982L486.952 117.705V117.743Z" fill="#00B795"/>
<path d="M511.628 254.733V310.44L559.886 282.605L511.628 254.771M507.861 248.254L513.511 251.531L561.77 279.366L567.42 282.643L561.77 285.92L513.511 313.755L507.861 317.032V248.292V248.254Z" fill="#00B795"/>
<path d="M576.913 315.073L531.255 341.439L576.913 367.805V315.073ZM580.681 308.557V374.321L575.03 371.044L529.371 344.678L523.72 341.401L529.371 338.124L575.03 311.758L580.681 308.481V308.557Z" fill="#00B795"/>
<path d="M628.713 457.524V460.801L631.539 459.182L628.713 457.562M624.946 451.046L630.597 454.323L633.422 455.942L639.073 459.219L633.422 462.496L630.597 464.116L624.946 467.393V451.084V451.046Z" fill="#00B795"/>
<path d="M672.978 501.857L645.025 517.978L672.978 534.099V501.819M676.745 495.303V540.615L671.094 537.338L643.141 521.217L637.491 517.94L643.141 514.663L671.094 498.543L676.745 495.266V495.303Z" fill="#00B795"/>
<path d="M55.6418 40.4908V47.0823V53.6738L49.9535 50.3592L44.4533 47.1199L49.9158 43.843L55.6044 40.4531L55.6418 40.4908Z" fill="#00B795"/>
<path d="M118.14 44.2193V50.0951L123.226 47.1572L118.14 44.2193ZM114.373 37.7031L120.024 40.98L125.11 43.918L130.76 47.1949L125.11 50.4718L120.024 53.4097L114.373 56.6866V37.7785V37.7031Z" fill="#00B795"/>
<path d="M319.988 40.6036L325.639 43.8428L331.328 47.1197L325.639 50.359L319.988 53.5606V47.0821V40.5659V40.6036Z" fill="#00B795"/>
<path d="M504.244 124.259V205.466L574.615 164.862L504.244 124.259ZM500.476 117.743L506.127 121.02L576.499 161.623L582.15 164.9L576.499 168.177L506.127 208.781L500.476 212.058V117.705V117.743Z" fill="#00B795"/>
<path d="M585.126 183.093L514.754 223.696L585.126 264.3V183.093ZM588.894 176.577V270.854L583.243 267.577L512.871 226.973L507.22 223.696L512.871 220.42L583.243 179.816L588.894 176.539V176.577Z" fill="#00B795"/>
<path d="M613.004 312.587V370.291L662.995 341.439L613.004 312.587ZM609.236 306.071L614.887 309.348L664.878 338.2L670.529 341.477L664.878 344.753L614.887 373.605L609.236 376.882V306.146V306.071Z" fill="#00B795"/>
<path d="M671.735 386.299L647.474 400.311L671.735 414.322V386.299ZM675.502 379.783V420.838L669.851 417.561L645.59 403.55L639.939 400.273L645.59 396.996L669.851 382.984L675.502 379.708V379.783Z" fill="#00B795"/>
<path d="M721.312 500.125V535.907L752.316 518.016L721.312 500.125ZM717.544 493.608L723.195 496.885L754.199 514.776L759.85 518.053L754.199 521.33L723.195 539.221L717.544 542.498V493.646V493.608Z" fill="#00B795"/>
<path d="M765.953 576.322L764.974 576.887L765.953 577.452V576.322ZM769.72 569.806V583.968L764.07 580.691L763.09 580.126L757.439 576.849L763.09 573.572L764.07 573.007L769.72 569.73V569.806Z" fill="#00B795"/>
<path d="M585.051 65.5383L514.943 106.029L585.051 146.519V65.5383ZM588.818 59.0221V153.036L583.167 149.759L513.059 109.268L507.408 105.991L513.059 102.714L583.167 62.2237L588.818 58.9468V59.0221Z" fill="#00B795"/>
<path d="M606.223 183.093V264.3L676.594 223.696L606.223 183.093ZM602.455 176.577L608.106 179.854L678.478 220.457L684.129 223.734L678.478 227.011L608.106 267.615L602.455 270.891V176.614V176.577Z" fill="#00B795"/>
<path d="M682.396 250.137L626.189 282.567L682.396 314.998V250.137ZM686.163 243.621V321.551L680.512 318.274L624.305 285.844L618.655 282.567L624.305 279.291L680.512 246.86L686.163 243.583V243.621Z" fill="#00B795"/>
<path d="M724.966 388.747V411.874L744.97 400.31L724.966 388.747ZM721.198 382.231L726.849 385.508L746.853 397.071L752.504 400.348L746.853 403.625L726.849 415.188L721.198 418.465V382.306V382.231Z" fill="#00B795"/>
<path d="M832.784 575.456V578.243L835.195 576.849L832.784 575.456ZM829.017 568.939L834.668 572.216L837.079 573.61L842.729 576.887L837.079 580.164L834.668 581.557L829.017 584.834V568.977V568.939Z" fill="#00B795"/>
<path d="M606.298 65.5382V146.482L676.406 105.991L606.298 65.5005M602.531 58.9844L608.182 62.2613L678.29 102.752L683.941 106.029L678.29 109.306L608.182 149.796L602.531 153.073V58.9844Z" fill="#00B795"/>
<path d="M687.105 124.259L616.733 164.862L687.105 205.466V124.259ZM690.872 117.743V212.02L685.221 208.743L614.85 168.139L609.199 164.862L614.85 161.586L685.221 120.982L690.872 117.705V117.743Z" fill="#00B795"/>
<path d="M712.006 248.556V316.58L770.926 282.568L712.006 248.556ZM708.239 242.04L713.89 245.316L772.81 279.329L778.46 282.605L772.81 285.882L713.89 319.894L708.239 323.171V242.115V242.04Z" fill="#00B795"/>
<path d="M781.7 313.604L733.442 341.439L781.7 369.274V313.567M785.467 307.05V375.79L779.816 372.513L731.558 344.678L725.907 341.401L731.558 338.124L779.816 310.29L785.467 307.013V307.05Z" fill="#00B795"/>
<path d="M872.076 510.256L858.627 518.016L872.076 525.775V510.256ZM875.843 503.74V532.329L870.192 529.052L856.743 521.292L851.093 518.016L856.743 514.739L870.192 506.98L875.843 503.703V503.74Z" fill="#00B795"/>
<path d="M663.711 47.0445L663.522 47.1575L663.711 47.2705V47.0445ZM667.478 40.5283V53.7866L661.827 50.5474L661.639 50.4344L655.988 47.1575L661.639 43.8806L661.827 43.7676L667.478 40.5283Z" fill="#00B795"/>
<path d="M708.164 124.259V205.466L778.536 164.862L708.164 124.259ZM704.397 117.743L710.048 121.02L780.419 161.623L786.07 164.9L780.419 168.177L710.048 208.781L704.397 212.058V117.705V117.743Z" fill="#00B795"/>
<path d="M789.084 183.093L718.712 223.696L789.084 264.3V183.093ZM792.851 176.577V270.854L787.2 267.577L716.829 226.973L711.178 223.696L716.829 220.42L787.2 179.816L792.851 176.539V176.577Z" fill="#00B795"/>
<path d="M818.657 315.563V367.315L863.449 341.439L818.657 315.563ZM814.89 309.046L820.54 312.323L865.333 338.2L870.984 341.477L865.333 344.753L820.54 370.63L814.89 373.907V309.122V309.046Z" fill="#00B795"/>
<path d="M876.145 385.432L850.415 400.273L876.145 415.113V385.432ZM879.912 378.916V421.667L874.261 418.39L848.531 403.549L842.88 400.273L848.531 396.996L874.261 382.155L879.912 378.878V378.916Z" fill="#00B795"/>
<path d="M931.485 510.972V525.097L943.691 518.053L931.485 511.01M927.718 504.494L933.369 507.771L945.575 514.814L951.226 518.091L945.575 521.368L933.369 528.411L927.718 531.688V504.531V504.494Z" fill="#00B795"/>
<path d="M969.76 576.472L969.082 576.849L969.76 577.226V576.435M973.528 569.919V583.742L967.877 580.465L967.199 580.088L961.548 576.811L967.199 573.534L967.877 573.158L973.528 569.881V569.919Z" fill="#00B795"/>
<path d="M786.183 70.3971L724.514 105.991L786.183 141.585V70.3971ZM789.95 63.8809V148.139L784.3 144.862L722.63 109.268L716.979 105.991L722.63 102.714L784.3 67.1202L789.95 63.8433V63.8809Z" fill="#00B795"/>
<path d="M810.143 183.093V264.3L880.515 223.696L810.143 183.093ZM806.376 176.577L812.026 179.854L882.398 220.457L888.049 223.734L882.398 227.011L812.026 267.615L806.376 270.891V176.614V176.577Z" fill="#00B795"/>
<path d="M884.244 253.716L834.253 282.567L884.244 311.419V253.716ZM888.011 247.199V317.935L882.36 314.659L832.369 285.807L826.718 282.53L832.369 279.253L882.36 250.401L888.011 247.124V247.199Z" fill="#00B795"/>
<path d="M925.985 383.737V416.883L954.691 400.31L925.985 383.737ZM922.218 377.221L927.869 380.498L956.575 397.071L962.226 400.348L956.575 403.625L927.869 420.198L922.218 423.475V377.297V377.221Z" fill="#00B795"/>
<path d="M1034.97 572.48V581.294L1042.62 576.887L1034.97 572.48ZM1031.2 565.964L1036.85 569.241L1044.5 573.648L1050.15 576.925L1044.5 580.201L1036.85 584.608L1031.2 587.885V566.002V565.964Z" fill="#00B795"/>
<path d="M811.499 67.7228V144.297L877.84 105.991L811.499 67.6851M807.732 61.1689L813.383 64.4459L879.724 102.752L885.375 106.029L879.724 109.306L813.383 147.612L807.732 150.888V61.1689Z" fill="#00B795"/>
<path d="M891.025 124.259L820.653 164.862L891.025 205.466V124.259ZM894.792 117.743V212.02L889.142 208.743L818.77 168.139L813.119 164.862L818.77 161.586L889.142 120.982L894.792 117.705V117.743Z" fill="#00B795"/>
<path d="M916.831 250.137V314.997L973.038 282.567L916.831 250.137ZM913.064 243.621L918.714 246.898L974.921 279.328L980.572 282.605L974.921 285.882L918.714 318.312L913.064 321.589V243.659V243.621Z" fill="#00B795"/>
<path d="M988.597 308.482L931.485 341.439L988.597 374.396V308.482ZM992.364 301.965V380.95L986.713 377.673L929.602 344.716L923.951 341.439L929.602 338.162L986.713 305.205L992.364 301.928V301.965Z" fill="#00B795"/>
<path d="M1033.84 452.779V465.51L1044.88 459.144L1033.84 452.779ZM1030.07 446.263L1035.72 449.54L1046.76 455.905L1052.41 459.182L1046.76 462.459L1035.72 468.824L1030.07 472.101V446.338V446.263Z" fill="#00B795"/>
<path d="M1079.12 504.833L1056.29 518.016L1079.12 531.199V504.833ZM1082.89 498.317V537.715L1077.24 534.438L1054.41 521.255L1048.76 517.978L1054.41 514.701L1077.24 501.518L1082.89 498.241V498.317Z" fill="#00B795"/>
<path d="M869.138 44.483L864.542 47.1573L869.138 49.8315V44.5207M872.905 38.0045V56.3854L867.254 53.1085L862.658 50.4342L857.007 47.1573L862.658 43.8804L867.254 41.2061L872.905 37.9292V38.0045Z" fill="#00B795"/>
<path d="M912.122 124.259V205.466L982.494 164.862L912.122 124.259ZM908.355 117.743L914.005 121.02L984.377 161.623L990.028 164.9L984.377 168.177L914.005 208.781L908.355 212.058V117.705V117.743Z" fill="#00B795"/>
<path d="M993.004 183.093L922.632 223.696L993.004 264.3V183.093ZM996.771 176.577V270.854L991.121 267.577L920.749 226.973L915.098 223.696L920.749 220.42L991.121 179.816L996.771 176.539V176.577Z" fill="#00B795"/>
<path d="M1014.06 300.836V382.043L1084.43 341.439L1014.06 300.836ZM1010.3 294.319L1015.95 297.596L1086.32 338.2L1091.97 341.477L1086.32 344.754L1015.95 385.357L1010.3 388.634V294.357V294.319Z" fill="#00B795"/>
<path d="M1092.99 363.097L1028.53 400.31L1092.99 437.524V363.097ZM1096.75 356.581V444.04L1091.1 440.763L1026.65 403.55L1020.99 400.273L1026.65 396.996L1091.1 359.782L1096.75 356.505V356.581Z" fill="#00B795"/>
<path d="M1131.64 504.418V531.613L1155.18 518.015L1131.64 504.418ZM1127.87 497.902L1133.52 501.179L1157.07 514.776L1162.72 518.053L1157.07 521.33L1133.52 534.927L1127.87 538.204V497.977V497.902Z" fill="#00B795"/>
<path d="M1180.84 564.118L1158.72 576.887L1180.84 589.656V564.118ZM1184.61 557.602V596.172L1178.95 592.895L1156.84 580.126L1151.19 576.849L1156.84 573.572L1178.95 560.804L1184.61 557.527V557.602Z" fill="#00B795"/>
<path d="M928.886 35.5939V58.7206L948.89 47.1572L928.886 35.5939ZM925.119 29.0777L930.769 32.3546L950.773 43.918L956.424 47.1949L950.773 50.4718L930.769 62.0351L925.119 65.312V29.04V29.0777Z" fill="#00B795"/>
<path d="M993.004 65.3873L922.632 105.991L993.004 146.594V65.3873ZM996.771 58.8712V153.148L991.121 149.871L920.749 109.268L915.098 105.991L920.749 102.714L991.121 62.1104L996.771 58.8335V58.8712Z" fill="#00B795"/>
<path d="M1014.06 183.093V264.3L1084.43 223.696L1014.06 183.093ZM1010.3 176.577L1015.95 179.854L1086.32 220.457L1091.97 223.734L1086.32 227.011L1015.95 267.615L1010.3 270.891V176.614V176.577Z" fill="#00B795"/>
<path d="M1094.98 241.964L1024.61 282.568L1094.98 323.171V241.964ZM1098.75 235.448V329.725L1093.1 326.448L1022.73 285.844L1017.08 282.568L1022.73 279.291L1093.1 238.687L1098.75 235.41V235.448Z" fill="#00B795"/>
<path d="M1116.04 359.669V440.876L1186.41 400.273L1116.04 359.669ZM1112.27 353.153L1117.93 356.43L1188.3 397.033L1193.95 400.31L1188.3 403.587L1117.93 444.191L1112.27 447.468V353.19V353.153Z" fill="#00B795"/>
<path d="M1179.03 449.539L1162.38 459.144L1179.03 468.749V449.539ZM1182.8 443.023V475.302L1177.15 472.026L1160.5 462.421L1154.84 459.144L1160.5 455.867L1177.15 446.262L1182.8 442.985V443.023Z" fill="#00B795"/>
<path d="M1233.62 563.29V590.484L1257.16 576.887L1233.62 563.29ZM1229.85 556.773L1235.5 560.05L1259.05 573.648L1264.7 576.925L1259.05 580.201L1235.5 593.799L1229.85 597.076V556.849V556.773Z" fill="#00B795"/>
<path d="M1279.13 629.355L1268.09 635.721L1279.13 642.086V629.355ZM1282.89 622.839V648.602L1277.24 645.325L1266.2 638.96L1260.55 635.683L1266.2 632.406L1277.24 626.041L1282.89 622.764V622.839Z" fill="#00B795"/>
<path d="M1014.06 65.3877V146.595L1084.43 105.991L1014.06 65.3877ZM1010.3 58.8716L1015.95 62.1485L1086.32 102.752L1091.97 106.029L1086.32 109.306L1015.95 149.909L1010.3 153.186V58.8716Z" fill="#00B795"/>
<path d="M1094.98 124.259L1024.61 164.862L1094.98 205.466V124.259ZM1098.75 117.743V212.02L1093.1 208.743L1022.73 168.139L1017.08 164.862L1022.73 161.586L1093.1 120.982L1098.75 117.705V117.743Z" fill="#00B795"/>
<path d="M1116.04 241.964V323.171L1186.41 282.567L1116.04 241.964ZM1112.27 235.448L1117.93 238.725L1188.3 279.328L1193.95 282.605L1188.3 285.882L1117.93 326.486L1112.27 329.763V235.485V235.448Z" fill="#00B795"/>
<path d="M1196.92 300.836L1126.55 341.439L1196.92 382.043V300.836ZM1200.69 294.319V388.596L1195.04 385.32L1124.67 344.716L1119.02 341.439L1124.67 338.162L1195.04 297.559L1200.69 294.282V294.319Z" fill="#00B795"/>
<path d="M1239.61 455.942V462.383L1245.18 459.182L1239.61 455.98M1235.84 449.464L1241.49 452.741L1247.07 455.942L1252.72 459.219L1247.07 462.496L1241.49 465.698L1235.84 468.975V449.502V449.464Z" fill="#00B795"/>
<path d="M1277.13 515.078L1272.04 518.016L1277.13 520.954V515.078ZM1280.9 508.562V527.47L1275.25 524.193L1270.16 521.255L1264.51 517.978L1270.16 514.701L1275.25 511.763L1280.9 508.486V508.562Z" fill="#00B795"/>
<path d="M1339.36 628.677V642.802L1351.57 635.758L1339.36 628.715M1335.6 622.199L1341.25 625.476L1353.45 632.519L1359.1 635.796L1353.45 639.073L1341.25 646.116L1335.6 649.393V622.236V622.199Z" fill="#00B795"/>
<path d="M1081.84 29.2286L1050.83 47.1198L1081.84 65.011V29.2286ZM1085.6 22.7125V71.5648L1079.95 68.2879L1048.95 50.3967L1043.3 47.1198L1048.95 43.8429L1079.95 25.9517L1085.6 22.6748V22.7125Z" fill="#00B795"/>
<path d="M1116.04 124.259V205.466L1186.41 164.862L1116.04 124.259ZM1112.27 117.743L1117.93 121.02L1188.3 161.623L1193.95 164.9L1188.3 168.177L1117.93 208.781L1112.27 212.058V117.705V117.743Z" fill="#00B795"/>
<path d="M1196.92 183.093L1126.55 223.696L1196.92 264.3V183.093ZM1200.69 176.577V270.854L1195.04 267.577L1124.67 226.973L1119.02 223.696L1124.67 220.42L1195.04 179.816L1200.69 176.539V176.577Z" fill="#00B795"/>
<path d="M1218.02 300.836V382.043L1288.39 341.439L1218.02 300.836ZM1214.25 294.319L1219.9 297.596L1290.28 338.2L1295.93 341.477L1290.28 344.754L1219.9 385.357L1214.25 388.634V294.357V294.319Z" fill="#00B795"/>
<path d="M1292.69 370.442L1240.96 400.31L1292.69 430.179V370.442ZM1296.45 363.925V436.695L1290.8 433.419L1239.08 403.55L1233.43 400.273L1239.08 396.996L1290.8 367.127L1296.45 363.85V363.925Z" fill="#00B795"/>
<path d="M1335.11 503.589V532.441L1360.08 518.015L1335.11 503.589ZM1331.34 497.073L1336.99 500.35L1361.97 514.776L1367.62 518.053L1361.97 521.33L1336.99 535.756L1331.34 539.033V497.149V497.073Z" fill="#00B795"/>
<path d="M1394.06 548.035L1344.07 576.887L1394.06 605.739V548.035ZM1397.83 541.519V612.255L1392.18 608.978L1342.19 580.126L1336.54 576.849L1342.19 573.572L1392.18 544.72L1397.83 541.443V541.519Z" fill="#00B795"/>
<path d="M1444.58 693.198V695.986L1446.99 694.592L1444.58 693.198ZM1440.81 686.682L1446.47 689.959L1448.88 691.353L1454.53 694.63L1448.88 697.906L1446.47 699.3L1440.81 702.577V686.72V686.682Z" fill="#00B795"/>
<path d="M1127.57 26.5167V67.7606L1163.28 47.1198L1127.57 26.479M1123.8 19.9629L1129.45 23.2398L1165.17 43.8806L1170.82 47.1575L1165.17 50.4344L1129.45 71.0752L1123.8 74.3521V20.0006V19.9629Z" fill="#00B795"/>
<path d="M1196.92 65.3873L1126.55 105.991L1196.92 146.594V65.3873ZM1200.69 58.8712V153.148L1195.04 149.871L1124.67 109.268L1119.02 105.991L1124.67 102.714L1195.04 62.1104L1200.69 58.8335V58.8712Z" fill="#00B795"/>
<path d="M1218.02 183.093V264.3L1288.39 223.696L1218.02 183.093ZM1214.25 176.577L1219.9 179.854L1290.28 220.457L1295.93 223.734L1290.28 227.011L1219.9 267.615L1214.25 270.891V176.614V176.577Z" fill="#00B795"/>
<path d="M1298.9 241.964L1228.53 282.568L1298.9 323.171V241.964ZM1302.67 235.448V329.725L1297.02 326.448L1226.65 285.844L1221 282.568L1226.65 279.291L1297.02 238.687L1302.67 235.41V235.448Z" fill="#00B795"/>
<path d="M1328.48 374.434V426.187L1373.27 400.31L1328.48 374.434ZM1324.71 367.918L1330.36 371.195L1375.15 397.071L1380.8 400.348L1375.15 403.625L1330.36 429.501L1324.71 432.778V367.993V367.918Z" fill="#00B795"/>
<path d="M1387.73 441.253L1356.73 459.144L1387.73 477.035V441.253ZM1391.5 434.737V483.589L1385.85 480.312L1354.85 462.421L1349.2 459.144L1354.85 455.867L1385.85 437.976L1391.5 434.699V434.737Z" fill="#00B795"/>
<path d="M1426.35 543.892V609.806L1483.46 576.849L1426.35 543.892ZM1422.58 537.375L1428.23 540.652L1485.34 573.61L1490.99 576.887L1485.34 580.164L1428.23 613.121L1422.58 616.398V537.413V537.375Z" fill="#00B795"/>
<path d="M1485.38 625.362L1467.41 635.758L1485.38 646.154V625.4M1489.15 618.884V652.708L1483.5 649.431L1465.53 639.035L1459.88 635.758L1465.53 632.481L1483.5 622.086L1489.15 618.809V618.884Z" fill="#00B795"/>
<path d="M1218.02 65.3877V146.595L1288.39 105.991L1218.02 65.3877ZM1214.25 58.8716L1219.9 62.1485L1290.28 102.752L1295.93 106.029L1290.28 109.306L1219.9 149.909L1214.25 153.186V58.8716Z" fill="#00B795"/>
<path d="M1298.9 124.259L1228.53 164.862L1298.9 205.466V124.259ZM1302.67 117.743V212.02L1297.02 208.743L1226.65 168.139L1221 164.862L1226.65 161.586L1297.02 120.982L1302.67 117.705V117.743Z" fill="#00B795"/>
<path d="M1319.96 241.964V323.171L1390.33 282.567L1319.96 241.964ZM1316.19 235.448L1321.85 238.725L1392.22 279.328L1397.87 282.605L1392.22 285.882L1321.85 326.486L1316.19 329.763V235.485V235.448Z" fill="#00B795"/>
<path d="M1397.34 306.9L1337.52 341.439L1397.34 375.978V306.9ZM1401.11 300.383V382.495L1395.46 379.218L1335.63 344.678L1329.98 341.401L1335.63 338.124L1395.46 303.585L1401.11 300.308V300.383Z" fill="#00B795"/>
<path d="M1430.45 433.268V485.021L1475.25 459.144L1430.45 433.268ZM1426.69 426.752L1432.34 430.029L1477.13 455.905L1482.78 459.182L1477.13 462.459L1432.34 488.335L1426.69 491.612V426.827V426.752Z" fill="#00B795"/>
<path d="M1502.82 477.412L1432.45 518.015L1502.82 558.619V477.412ZM1506.59 470.896V565.173L1500.94 561.896L1430.57 521.292L1424.92 518.015L1430.57 514.738L1500.94 474.135L1506.59 470.858V470.896Z" fill="#00B795"/>
<path d="M1541.81 626.116V645.325L1558.47 635.72L1541.81 626.116ZM1538.05 619.6L1543.7 622.877L1560.35 632.481L1566 635.758L1560.35 639.035L1543.7 648.64L1538.05 651.917V619.637V619.6Z" fill="#00B795"/>
<path d="M1286.28 28.3244L1253.73 47.1196L1286.28 65.9147V28.3244ZM1290.05 21.8082V72.4309L1284.4 69.1539L1251.85 50.3588L1246.2 47.0819L1251.85 43.805L1284.4 25.0098L1290.05 21.7329V21.8082Z" fill="#00B795"/>
<path d="M1319.96 124.259V205.466L1390.33 164.862L1319.96 124.259ZM1316.19 117.743L1321.85 121.02L1392.22 161.623L1397.87 164.9L1392.22 168.177L1321.85 208.781L1316.19 212.058V117.705V117.743Z" fill="#00B795"/>
<path d="M1400.88 183.093L1330.51 223.696L1400.88 264.3V183.093ZM1404.65 176.577V270.854L1399 267.577L1328.63 226.973L1322.98 223.696L1328.63 220.42L1399 179.816L1404.65 176.539V176.577Z" fill="#00B795"/>
<path d="M1427.25 310.026V372.815L1481.65 341.401L1427.25 309.988M1423.49 303.472L1429.14 306.749L1483.54 338.162L1489.19 341.439L1483.54 344.716L1429.14 376.129L1423.49 379.406V303.547V303.472Z" fill="#00B795"/>
<path d="M1487 387.128L1464.17 400.311L1487 413.494V387.128ZM1490.77 380.611V420.01L1485.12 416.733L1462.29 403.55L1456.64 400.273L1462.29 396.996L1485.12 383.813L1490.77 380.536V380.611Z" fill="#00B795"/>
<path d="M1523.92 477.412V558.619L1594.29 518.016L1523.92 477.412ZM1520.15 470.896L1525.8 474.173L1596.18 514.776L1601.83 518.053L1596.18 521.33L1525.8 561.934L1520.15 565.211V470.934V470.896Z" fill="#00B795"/>
<path d="M1600.09 544.419L1543.89 576.849L1600.09 609.279V544.419ZM1603.86 537.903V615.833L1598.21 612.556L1542 580.126L1536.35 576.849L1542 573.572L1598.21 541.142L1603.86 537.865V537.903Z" fill="#00B795"/>
<path d="M1644.43 686.08V703.067L1659.16 694.592L1644.43 686.117M1640.67 679.601L1646.32 682.878L1661.05 691.353L1666.7 694.63L1661.05 697.907L1646.32 706.381L1640.67 709.658V679.639V679.601Z" fill="#00B795"/>
<path d="M1686.97 747.098L1675.93 753.463L1686.97 759.829V747.098ZM1690.73 740.582V766.345L1685.08 763.068L1674.04 756.703L1668.39 753.426L1674.04 750.149L1685.08 743.783L1690.73 740.506V740.582Z" fill="#00B795"/>
<path d="M1329.61 23.2022V71.0376L1371.05 47.1199L1329.61 23.2022ZM1325.84 16.686L1331.49 19.9629L1372.93 43.8806L1378.58 47.1575L1372.93 50.4345L1331.49 74.3521L1325.84 77.629V16.686Z" fill="#00B795"/>
<path d="M1400.88 65.3873L1330.51 105.991L1400.88 146.594V65.3873ZM1404.65 58.8712V153.148L1399 149.871L1328.63 109.268L1322.98 105.991L1328.63 102.714L1399 62.1104L1404.65 58.8335V58.8712Z" fill="#00B795"/>
<path d="M1421.94 183.093V264.3L1492.31 223.696L1421.94 183.093ZM1418.17 176.577L1423.82 179.854L1494.2 220.457L1499.85 223.734L1494.2 227.011L1423.82 267.615L1418.17 270.891V176.614V176.577Z" fill="#00B795"/>
<path d="M1502.82 241.964L1432.45 282.568L1502.82 323.171V241.964ZM1506.59 235.448V329.725L1500.94 326.448L1430.57 285.844L1424.92 282.568L1430.57 279.291L1500.94 238.687L1506.59 235.41V235.448Z" fill="#00B795"/>
<path d="M1540.68 388.747V411.874L1560.69 400.31L1540.68 388.747ZM1536.92 382.231L1542.57 385.508L1562.57 397.071L1568.22 400.348L1562.57 403.625L1542.57 415.188L1536.92 418.465V382.306V382.231Z" fill="#00B795"/>
<path d="M1591.69 441.253L1560.69 459.144L1591.69 477.035V441.253ZM1595.46 434.737V483.589L1589.81 480.312L1558.8 462.421L1553.15 459.144L1558.8 455.867L1589.81 437.976L1595.46 434.699V434.737Z" fill="#00B795"/>
<path d="M1635.24 552.48V601.294L1677.51 576.887L1635.24 552.48ZM1631.47 545.963L1637.13 549.24L1679.39 573.648L1685.04 576.925L1679.39 580.201L1637.13 604.609L1631.47 607.886V546.039V545.963Z" fill="#00B795"/>
<path d="M1696.31 613.234L1657.36 635.721L1696.31 658.207V613.234ZM1700.08 606.718V664.761L1694.42 661.484L1655.47 638.998L1649.82 635.721L1655.47 632.444L1694.42 609.958L1700.08 606.681V606.718Z" fill="#00B795"/>
<path d="M1750.97 752.898V754.028L1751.95 753.463L1750.97 752.898ZM1747.2 746.382L1752.85 749.659L1753.83 750.224L1759.48 753.501L1753.83 756.778L1752.85 757.343L1747.2 760.62V746.42V746.382Z" fill="#00B795"/>
<path d="M1421.94 65.3877V146.595L1492.31 105.991L1421.94 65.3877ZM1418.17 58.8716L1423.82 62.1485L1494.2 102.752L1499.85 106.029L1494.2 109.306L1423.82 149.909L1418.17 153.186V58.8716Z" fill="#00B795"/>
<path d="M1502.82 124.259L1432.45 164.862L1502.82 205.466V124.259ZM1506.59 117.743V212.02L1500.94 208.743L1430.57 168.139L1424.92 164.862L1430.57 161.586L1500.94 120.982L1506.59 117.705V117.743Z" fill="#00B795"/>
<path d="M1523.92 241.964V323.171L1594.29 282.567L1523.92 241.964ZM1520.15 235.448L1525.8 238.725L1596.18 279.328L1601.83 282.605L1596.18 285.882L1525.8 326.486L1520.15 329.763V235.485V235.448Z" fill="#00B795"/>
<path d="M1599.49 310.026L1545.09 341.439L1599.49 372.852V310.064M1603.26 303.547V379.406L1597.61 376.129L1543.21 344.716L1537.56 341.439L1543.21 338.162L1597.61 306.749L1603.26 303.472V303.547Z" fill="#00B795"/>
<path d="M1647.3 455.641V462.647L1653.36 459.144L1647.3 455.641ZM1643.53 449.125L1649.18 452.402L1655.25 455.905L1660.9 459.182L1655.25 462.459L1649.18 465.962L1643.53 469.238V449.163V449.125Z" fill="#00B795"/>
<path d="M1693.37 500.576L1663.12 518.016L1693.37 535.455V500.539M1697.14 494.023V541.971L1691.49 538.694L1661.24 521.255L1655.58 517.978L1661.24 514.701L1691.49 497.262L1697.14 493.985V494.023Z" fill="#00B795"/>
<path d="M1736.05 609.355V662.086L1781.71 635.72L1736.05 609.355ZM1732.29 602.838L1737.94 606.115L1783.6 632.481L1789.25 635.758L1783.6 639.035L1737.94 665.401L1732.29 668.678V602.914V602.838Z" fill="#00B795"/>
<path d="M1787.48 690.788L1780.88 694.592L1787.48 698.396V690.788ZM1791.24 684.272V704.912L1785.59 701.635L1779 697.831L1773.35 694.554L1779 691.277L1785.59 687.473L1791.24 684.196V684.272Z" fill="#00B795"/>
<path d="M1497.51 15.7444L1443.11 47.1575L1497.51 78.5707V15.7444ZM1501.28 9.22823V85.0492L1495.63 81.7722L1441.23 50.3591L1435.58 47.0822L1441.23 43.8053L1495.63 12.3921L1501.28 9.11523V9.22823Z" fill="#00B795"/>
<path d="M1523.92 124.259V205.466L1594.29 164.862L1523.92 124.259ZM1520.15 117.743L1525.8 121.02L1596.18 161.623L1601.83 164.9L1596.18 168.177L1525.8 208.781L1520.15 212.058V117.705V117.743Z" fill="#00B795"/>
<path d="M1604.8 183.093L1534.43 223.696L1604.8 264.3V183.093ZM1608.57 176.577V270.854L1602.92 267.577L1532.55 226.973L1526.9 223.696L1532.55 220.42L1602.92 179.816L1608.57 176.539V176.577Z" fill="#00B795"/>
<path d="M1633.24 313.604V369.311L1681.5 341.477L1633.24 313.642M1629.48 307.125L1635.13 310.402L1683.39 338.237L1689.04 341.514L1683.39 344.791L1635.13 372.626L1629.48 375.903V307.163V307.125Z" fill="#00B795"/>
<path d="M1684.71 397.9L1680.56 400.273L1684.71 402.645V397.862M1688.47 391.346V409.162L1682.82 405.885L1678.68 403.512L1673.03 400.235L1678.68 396.958L1682.82 394.585L1688.47 391.308V391.346Z" fill="#00B795"/>
<path d="M1740.16 498.769V537.263L1773.5 518.016L1740.16 498.769ZM1736.39 492.252L1742.04 495.529L1775.38 514.776L1781.03 518.053L1775.38 521.33L1742.04 540.577L1736.39 543.854V492.328V492.252Z" fill="#00B795"/>
<path d="M1799.08 552.932L1757.64 576.849L1799.08 600.767V552.932ZM1802.85 546.416V607.321L1797.19 604.044L1755.76 580.126L1750.1 576.849L1755.76 573.573L1797.19 549.655L1802.85 546.378V546.416Z" fill="#00B795"/>
<path d="M1853.18 694.479V694.705L1853.36 694.592L1853.18 694.479ZM1849.41 687.925L1855.06 691.202L1855.25 691.315L1860.86 694.592L1855.21 697.831L1855.02 697.944L1849.37 701.221V687.963L1849.41 687.925Z" fill="#00B795"/>
<path d="M1525.24 8.85118V85.4254L1591.58 47.1195L1525.24 8.81352M1521.47 2.29736L1527.12 5.57427L1593.46 43.8802L1599.11 47.1571L1593.46 50.4341L1527.12 88.74L1521.47 92.0169V2.33503V2.29736Z" fill="#00B795"/>
<path d="M1604.8 65.3873L1534.43 105.991L1604.8 146.594V65.3873ZM1608.57 58.8712V153.148L1602.92 149.871L1532.55 109.268L1526.9 105.991L1532.55 102.714L1602.92 62.1104L1608.57 58.8335V58.8712Z" fill="#00B795"/>
<path d="M1625.86 183.093V264.3L1696.23 223.696L1625.86 183.093ZM1622.09 176.577L1627.74 179.854L1698.12 220.457L1703.77 223.734L1698.12 227.011L1627.74 267.615L1622.09 270.891V176.614V176.577Z" fill="#00B795"/>
<path d="M1706.74 241.964L1636.37 282.568L1706.74 323.171V241.964ZM1710.51 235.448V329.725L1704.86 326.448L1634.49 285.844L1628.84 282.568L1634.49 279.291L1704.86 238.687L1710.51 235.41V235.448Z" fill="#00B795"/>
<path d="M1745.06 389.538V411.083L1763.7 400.31L1745.06 389.538ZM1741.29 383.022L1746.94 386.299L1765.59 397.071L1771.24 400.348L1765.59 403.625L1746.94 414.397L1741.29 417.674V383.097V383.022Z" fill="#00B795"/>
<path d="M1791.73 447.995L1772.41 459.144L1791.73 470.293V447.958M1795.5 441.441V476.809L1789.85 473.533L1770.52 462.384L1764.87 459.107L1770.52 455.83L1789.85 444.681L1795.5 441.404V441.441Z" fill="#00B795"/>
<path d="M1846.58 565.324V588.45L1866.59 576.887L1846.58 565.324ZM1842.82 558.808L1848.47 562.085L1868.47 573.648L1874.12 576.925L1868.47 580.202L1848.47 591.765L1842.82 595.042V558.883V558.808Z" fill="#00B795"/>
<path d="M1894.62 622.952L1872.5 635.72L1894.62 648.489V622.952ZM1898.38 616.436V655.005L1892.73 651.728L1870.62 638.96L1864.97 635.683L1870.62 632.406L1892.73 619.637L1898.38 616.36V616.436Z" fill="#00B795"/>
<path d="M1952.67 749.057V757.87L1960.32 753.464L1952.67 749.057ZM1948.9 742.541L1954.55 745.817L1962.2 750.224L1967.85 753.501L1962.2 756.778L1954.55 761.185L1948.9 764.462V742.578V742.541Z" fill="#00B795"/>
<path d="M1625.86 65.3877V146.595L1696.23 105.991L1625.86 65.3877ZM1622.09 58.8716L1627.74 62.1485L1698.12 102.752L1703.77 106.029L1698.12 109.306L1627.74 149.909L1622.09 153.186V58.8716Z" fill="#00B795"/>
<path d="M1706.74 124.259L1636.37 164.862L1706.74 205.466V124.259ZM1710.51 117.743V212.02L1704.86 208.743L1634.49 168.139L1628.84 164.862L1634.49 161.586L1704.86 120.982L1710.51 117.705V117.743Z" fill="#00B795"/>
<path d="M1727.84 241.964V323.171L1798.21 282.567L1727.84 241.964ZM1724.07 235.448L1729.72 238.725L1800.1 279.328L1805.75 282.605L1800.1 285.882L1729.72 326.486L1724.07 329.763V235.485V235.448Z" fill="#00B795"/>
<path d="M1808.65 300.948L1738.54 341.439L1808.65 381.929V300.986M1812.41 294.47V388.483L1806.76 385.206L1736.66 344.716L1731 341.439L1736.66 338.162L1806.76 297.671L1812.41 294.395V294.47Z" fill="#00B795"/>
<path d="M1841.87 439.445V478.843L1876.01 459.144L1841.87 439.445ZM1838.11 432.929L1843.76 436.206L1877.89 455.905L1883.54 459.182L1877.89 462.459L1843.76 482.158L1838.11 485.435V432.966V432.929Z" fill="#00B795"/>
<path d="M1902.19 492.139L1857.4 518.016L1902.19 543.892V492.139ZM1905.95 485.623V550.408L1900.3 547.131L1855.51 521.255L1849.86 517.978L1855.51 514.701L1900.3 488.825L1905.95 485.548V485.623Z" fill="#00B795"/>
<path d="M1943.59 615.569V655.909L1978.51 635.758L1943.59 615.607M1939.82 609.091L1945.47 612.368L1980.4 632.519L1986.05 635.796L1980.4 639.073L1945.47 659.224L1939.82 662.501V609.128V609.091Z" fill="#00B795"/>
<path d="M1998.78 678.019L1970.07 694.592L1998.78 711.165V678.019ZM2002.55 671.503V717.681L1996.9 714.404L1968.19 697.831L1962.54 694.554L1968.19 691.278L1996.9 674.705L2002.55 671.428V671.503Z" fill="#00B795"/>
<path d="M1706.74 6.51616L1636.37 47.1197L1706.74 87.7233V6.51616ZM1710.51 0V94.2771L1704.86 91.0002L1634.49 50.3966L1628.84 47.1197L1634.49 43.8428L1704.86 3.27691L1710.51 0Z" fill="#00B795"/>
<path d="M1727.84 124.259V205.466L1798.21 164.862L1727.84 124.259ZM1724.07 117.743L1729.72 121.02L1800.1 161.623L1805.75 164.9L1800.1 168.177L1729.72 208.781L1724.07 212.058V117.705V117.743Z" fill="#00B795"/>
<path d="M1808.72 183.093L1738.35 223.696L1808.72 264.3V183.093ZM1812.49 176.577V270.854L1806.84 267.577L1736.47 226.973L1730.82 223.696L1736.47 220.42L1806.84 179.816L1812.49 176.539V176.577Z" fill="#00B795"/>
<path d="M1830.84 302.605V380.272L1898.12 341.439L1830.84 302.605ZM1827.07 296.089L1832.72 299.366L1900 338.2L1905.65 341.476L1900 344.753L1832.72 383.587L1827.07 386.864V296.165V296.089Z" fill="#00B795"/>
<path d="M1895.82 385.432L1870.09 400.273L1895.82 415.113V385.432ZM1899.59 378.916V421.667L1893.94 418.39L1868.21 403.549L1862.56 400.273L1868.21 396.996L1893.94 382.155L1899.59 378.878V378.916Z" fill="#00B795"/>
<path d="M1940.58 492.629V543.402L1984.54 518.016L1940.58 492.629ZM1936.81 486.113L1942.46 489.39L1986.42 514.776L1992.07 518.053L1986.42 521.33L1942.46 546.717L1936.81 549.994V486.188V486.113Z" fill="#00B795"/>
<path d="M2002.47 553.911L1962.69 576.887L2002.47 599.863V553.911ZM2006.24 547.395V606.379L2000.59 603.102L1960.81 580.126L1955.15 576.849L1960.81 573.572L2000.59 550.596L2006.24 547.319V547.395Z" fill="#00B795"/>
<path d="M2043.65 671.126V718.02L2084.26 694.592L2043.65 671.164M2039.88 664.648L2045.53 667.925L2086.14 691.353L2091.79 694.63L2086.14 697.907L2045.53 721.335L2039.88 724.612V664.686V664.648Z" fill="#00B795"/>
<path d="M2108.41 723.594L2056.68 753.463L2108.41 783.332V723.594ZM2112.17 717.078V789.848L2106.52 786.571L2054.8 756.702L2049.15 753.426L2054.8 750.149L2106.52 720.28L2112.17 717.003V717.078Z" fill="#00B795"/>
<path d="M1731.95 13.6348V80.6043L1789.96 47.1196L1731.95 13.6348ZM1728.18 7.11865L1733.83 10.3956L1791.85 43.8803L1797.5 47.1572L1791.85 50.4341L1733.83 83.9189L1728.18 87.1958V7.11865Z" fill="#00B795"/>
<path d="M1808.72 65.3873L1738.35 105.991L1808.72 146.594V65.3873ZM1812.49 58.8712V153.148L1806.84 149.871L1736.47 109.268L1730.82 105.991L1736.47 102.714L1806.84 62.1104L1812.49 58.8335V58.8712Z" fill="#00B795"/>
<path d="M1829.78 183.093V264.3L1900.15 223.696L1829.78 183.093ZM1826.01 176.577L1831.67 179.854L1902.04 220.457L1907.69 223.734L1902.04 227.011L1831.67 267.615L1826.01 270.891V176.614V176.577Z" fill="#00B795"/>
<path d="M1910.7 241.964L1840.33 282.568L1910.7 323.171V241.964ZM1914.47 235.448V329.725L1908.82 326.448L1838.45 285.844L1832.8 282.568L1838.45 279.291L1908.82 238.687L1914.47 235.41V235.448Z" fill="#00B795"/>
<path d="M1945.13 382.833V417.75L1975.38 400.31L1945.13 382.871M1941.37 376.355L1947.02 379.632L1977.27 397.071L1982.92 400.348L1977.27 403.625L1947.02 421.064L1941.37 424.341V376.393V376.355Z" fill="#00B795"/>
<path d="M1996.33 446.79L1974.93 459.144L1996.33 471.498V446.79ZM2000.1 440.274V478.052L1994.45 474.775L1973.05 462.421L1967.4 459.144L1973.05 455.867L1994.45 443.513L2000.1 440.236V440.274Z" fill="#00B795"/>
<path d="M2038.75 544.946V608.79L2094.05 576.887L2038.75 544.984M2034.98 538.468L2040.63 541.745L2095.94 573.647L2101.59 576.924L2095.94 580.201L2040.63 612.104L2034.98 615.381V538.505V538.468Z" fill="#00B795"/>
<path d="M2112.36 599.072L2048.85 635.758L2112.36 672.445V599.11M2116.13 592.593V678.961L2110.48 675.684L2046.96 638.997L2041.31 635.721L2046.96 632.444L2110.48 595.757L2116.13 592.48V592.593Z" fill="#00B795"/>
<path d="M2138.58 717.87V789.058L2200.25 753.464L2138.58 717.87ZM2134.81 711.354L2140.46 714.63L2202.13 750.224L2207.79 753.501L2202.13 756.778L2140.46 792.372L2134.81 795.649V711.391V711.354Z" fill="#00B795"/>
<path d="M2195.32 808.493L2188.72 812.297L2195.32 816.101V808.493ZM2199.08 801.977V822.617L2193.43 819.341L2186.84 815.536L2181.19 812.259L2186.84 808.983L2193.43 805.178L2199.08 801.901V801.977Z" fill="#00B795"/>
<path d="M1829.78 65.3877V146.595L1900.15 105.991L1829.78 65.3877ZM1826.01 58.8716L1831.67 62.1485L1902.04 102.752L1907.69 106.029L1902.04 109.306L1831.67 149.909L1826.01 153.186V58.8716Z" fill="#00B795"/>
<path d="M1910.7 124.259L1840.33 164.862L1910.7 205.466V124.259ZM1914.47 117.743V212.02L1908.82 208.743L1838.45 168.139L1832.8 164.862L1838.45 161.586L1908.82 120.982L1914.47 117.705V117.743Z" fill="#00B795"/>
<path d="M1931.76 241.964V323.171L2002.13 282.567L1931.76 241.964ZM1927.99 235.448L1933.64 238.725L2004.02 279.328L2009.67 282.605L2004.02 285.882L1933.64 326.486L1927.99 329.763V235.485V235.448Z" fill="#00B795"/>
<path d="M2012.64 300.836L1942.27 341.439L2012.64 382.043V300.836ZM2016.41 294.319V388.596L2010.76 385.32L1940.39 344.716L1934.74 341.439L1940.39 338.162L2010.76 297.559L2016.41 294.282V294.319Z" fill="#00B795"/>
<path d="M2037.54 425.132V493.156L2096.46 459.144L2037.54 425.132ZM2033.78 418.616L2039.43 421.893L2098.35 455.905L2104 459.182L2098.35 462.459L2039.43 496.471L2033.78 499.747V418.691V418.616Z" fill="#00B795"/>
<path d="M2112.02 481.894L2049.41 518.016L2112.02 554.137V481.857M2115.79 475.34V560.653L2110.14 557.376L2047.53 521.255L2041.88 517.978L2047.53 514.701L2110.14 478.58L2115.79 475.303V475.34Z" fill="#00B795"/>
<path d="M2138.28 599.599V671.879L2200.89 635.758L2138.28 599.637M2134.51 593.121L2140.16 596.397L2202.77 632.519L2208.43 635.796L2202.77 639.073L2140.16 675.194L2134.51 678.471V593.158V593.121Z" fill="#00B795"/>
<path d="M2213.4 659.525L2152.63 694.592L2213.4 729.658V659.525ZM2217.17 653.009V736.175L2211.51 732.898L2150.75 697.831L2145.1 694.554L2150.75 691.277L2211.51 656.21L2217.17 652.934V653.009Z" fill="#00B795"/>
<path d="M2254.65 801.148V823.484L2273.98 812.335L2254.65 801.186M2250.88 794.669L2256.53 797.946L2275.86 809.095L2281.51 812.372L2275.86 815.649L2256.53 826.798L2250.88 830.075V794.707V794.669Z" fill="#00B795"/>
<path d="M1892.81 37.5148L1876.16 47.1195L1892.81 56.7242V37.5148ZM1896.57 30.9986V63.2781L1890.92 60.0011L1874.27 50.3964L1868.62 47.1195L1874.27 43.8426L1890.92 34.2378L1896.57 30.9609V30.9986Z" fill="#00B795"/>
<path d="M1931.76 124.259V205.466L2002.13 164.862L1931.76 124.259ZM1927.99 117.743L1933.64 121.02L2004.02 161.623L2009.67 164.9L2004.02 168.177L1933.64 208.781L1927.99 212.058V117.705V117.743Z" fill="#00B795"/>
<path d="M2012.64 183.093L1942.27 223.696L2012.64 264.3V183.093ZM2016.41 176.577V270.854L2010.76 267.577L1940.39 226.973L1934.74 223.696L1940.39 220.42L2010.76 179.816L2016.41 176.539V176.577Z" fill="#00B795"/>
<path d="M2033.74 300.836V382.043L2104.11 341.439L2033.74 300.836ZM2029.97 294.319L2035.62 297.596L2105.99 338.2L2111.65 341.477L2105.99 344.754L2035.62 385.357L2029.97 388.634V294.357V294.319Z" fill="#00B795"/>
<path d="M2114.62 359.669L2044.25 400.273L2114.62 440.876V359.669ZM2118.39 353.153V447.43L2112.74 444.153L2042.37 403.55L2036.72 400.273L2042.37 396.996L2112.74 356.392L2118.39 353.115V353.153Z" fill="#00B795"/>
<path d="M2139.82 484.531V551.5L2197.84 518.016L2139.82 484.531ZM2136.06 478.015L2141.71 481.292L2199.72 514.776L2205.37 518.053L2199.72 521.33L2141.71 554.815L2136.06 558.092V478.09V478.015Z" fill="#00B795"/>
<path d="M2207.52 551.99L2164.39 576.887L2207.52 601.784V551.99ZM2211.29 545.474V608.3L2205.64 605.023L2162.5 580.126L2156.85 576.849L2162.5 573.572L2205.64 548.675L2211.29 545.398V545.474Z" fill="#00B795"/>
<path d="M1951.12 40.0761V54.2008L1963.33 47.1573L1951.12 40.1138M1947.36 33.5977L1953.01 36.8746L1965.21 43.918L1970.86 47.195L1965.21 50.4719L1953.01 57.5153L1947.36 60.7922V33.6353V33.5977Z" fill="#00B795"/>
<path d="M2012.64 65.3873L1942.27 105.991L2012.64 146.594V65.3873ZM2016.41 58.8712V153.148L2010.76 149.871L1940.39 109.268L1934.74 105.991L1940.39 102.714L2010.76 62.1104L2016.41 58.8335V58.8712Z" fill="#00B795"/>
<path d="M2033.74 183.093V264.3L2104.11 223.696L2033.74 183.093ZM2029.97 176.577L2035.62 179.854L2105.99 220.457L2111.65 223.734L2105.99 227.011L2035.62 267.615L2029.97 270.891V176.614V176.577Z" fill="#00B795"/>
<path d="M2114.62 241.964L2044.25 282.568L2114.62 323.171V241.964ZM2118.39 235.448V329.725L2112.74 326.448L2042.37 285.844L2036.72 282.568L2042.37 279.291L2112.74 238.687L2118.39 235.41V235.448Z" fill="#00B795"/>
<path d="M2135.68 359.669V440.876L2206.05 400.273L2135.68 359.669ZM2131.91 353.153L2137.56 356.43L2207.94 397.033L2213.59 400.31L2207.94 403.587L2137.56 444.191L2131.91 447.468V353.19V353.153Z" fill="#00B795"/>
<path d="M2216.6 418.541L2146.23 459.144L2216.6 499.748V418.541ZM2220.37 412.024V506.302L2214.72 503.025L2144.34 462.421L2138.69 459.144L2144.34 455.867L2214.72 415.264L2220.37 411.987V412.024Z" fill="#00B795"/>
<path d="M2248.92 555.794V597.979L2285.47 576.887L2248.92 555.794ZM2245.16 549.278L2250.81 552.555L2287.35 573.648L2293 576.924L2287.35 580.201L2250.81 601.294L2245.16 604.571V549.353V549.278Z" fill="#00B795"/>
<path d="M2033.74 65.3877V146.595L2104.11 105.991L2033.74 65.3877ZM2029.97 58.8716L2035.62 62.1485L2105.99 102.752L2111.65 106.029L2105.99 109.306L2035.62 149.909L2029.97 153.186V58.8716Z" fill="#00B795"/>
<path d="M2114.62 124.259L2044.25 164.862L2114.62 205.466V124.259ZM2118.39 117.743V212.02L2112.74 208.743L2042.37 168.139L2036.72 164.862L2042.37 161.586L2112.74 120.982L2118.39 117.705V117.743Z" fill="#00B795"/>
<path d="M2135.68 241.964V323.171L2206.05 282.567L2135.68 241.964ZM2131.91 235.448L2137.56 238.725L2207.94 279.328L2213.59 282.605L2207.94 285.882L2137.56 326.486L2131.91 329.763V235.485V235.448Z" fill="#00B795"/>
<path d="M2216.6 300.836L2146.23 341.439L2216.6 382.043V300.836ZM2220.37 294.319V388.596L2214.72 385.32L2144.34 344.716L2138.69 341.439L2144.34 338.162L2214.72 297.559L2220.37 294.282V294.319Z" fill="#00B795"/>
<path d="M2097.18 36.7618L2079.21 47.1575L2097.18 57.5533V36.7995M2100.95 30.2833V64.1071L2095.3 60.8302L2077.33 50.4345L2071.68 47.1575L2077.33 43.8806L2095.3 33.4849L2100.95 30.208V30.2833Z" fill="#00B795"/>
<path d="M2135.68 124.259V205.466L2206.05 164.862L2135.68 124.259ZM2131.91 117.743L2137.56 121.02L2207.94 161.623L2213.59 164.9L2207.94 168.177L2137.56 208.781L2131.91 212.058V117.705V117.743Z" fill="#00B795"/>
<path d="M2216.6 183.093L2146.23 223.696L2216.6 264.3V183.093ZM2220.37 176.577V270.854L2214.72 267.577L2144.34 226.973L2138.69 223.696L2144.34 220.42L2214.72 179.816L2220.37 176.539V176.577Z" fill="#00B795"/>
<path d="M2150.07 31.4131V62.8263L2177.27 47.1197L2150.07 31.4131ZM2146.3 24.897L2151.95 28.1739L2179.15 43.8805L2184.81 47.1574L2179.15 50.4343L2151.95 66.1408L2146.3 69.4178V24.897Z" fill="#00B795"/>
<path d="M2216.6 65.3873L2146.23 105.991L2216.6 146.594V65.3873ZM2220.37 58.8712V153.148L2214.72 149.871L2144.34 109.268L2138.69 105.991L2144.34 102.714L2214.72 62.1104L2220.37 58.8335V58.8712Z" fill="#00B795"/>
</svg>
