<svg width="2293" height="831" viewBox="0 0 2293 831" fill="#00B795" xmlns="http://www.w3.org/2000/svg">
<path d="M2241.09 517.903L2241.28 518.016L2241.09 518.129V517.903ZM2237.32 511.386V524.645L2242.97 521.368L2243.16 521.255L2248.81 517.978L2243.16 514.701L2242.97 514.588L2237.32 511.311V511.386Z" fill="#00B795"/>
<path d="M2174.56 515.605V520.389L2170.41 518.016L2174.56 515.643M2178.33 509.126L2172.67 512.403L2168.53 514.776L2162.88 518.053L2168.53 521.33L2172.67 523.703L2178.33 526.98V509.164V509.126Z" fill="#00B795"/>
<path d="M2275.18 459.031V459.257L2274.99 459.144L2275.18 459.031ZM2278.95 452.515L2273.3 455.792L2273.11 455.905L2267.46 459.182L2273.11 462.459L2273.3 462.572L2278.95 465.849V452.59V452.515Z" fill="#00B795"/>
<path d="M2138.51 457.977L2140.54 459.144L2138.51 460.312V457.977ZM2134.74 451.461V466.866L2140.39 463.589L2142.42 462.421L2148.07 459.144L2142.42 455.867L2140.39 454.7L2134.74 451.423V451.461Z" fill="#00B795"/>
<path d="M2072.88 456.206V462.082L2067.79 459.144L2072.88 456.206ZM2076.65 449.69L2071 452.967L2065.91 455.905L2060.26 459.182L2065.91 462.459L2071 465.397L2076.65 468.673V449.765V449.69Z" fill="#00B795"/>
<path d="M2030.99 507.243L2049.64 518.016L2030.99 528.788V507.243ZM2027.22 500.727V535.304L2032.87 532.027L2051.52 521.255L2057.17 517.978L2051.52 514.701L2032.87 503.929L2027.22 500.652V500.727Z" fill="#00B795"/>
<path d="M2176.25 394.924V405.659L2166.95 400.31L2176.25 394.962M2180.02 388.446L2174.37 391.723L2165.06 397.071L2159.41 400.348L2165.06 403.625L2174.37 408.974L2180.02 412.25V388.483V388.446Z" fill="#00B795"/>
<path d="M2032.08 391.421L2047.41 400.272L2032.08 409.124V391.383M2028.31 384.867V415.64L2033.97 412.363L2049.3 403.512L2054.95 400.235L2049.3 396.958L2033.97 388.107L2028.31 384.83V384.867Z" fill="#00B795"/>
<path d="M1976.85 504.833V531.198L1954.02 518.016L1976.85 504.833ZM1980.62 498.316L1974.97 501.593L1952.14 514.776L1946.49 518.053L1952.14 521.33L1974.97 534.513L1980.62 537.79V498.392V498.316Z" fill="#00B795"/>
<path d="M2126.98 320.346L2163.52 341.439L2126.98 362.532V320.346ZM2123.21 313.83V369.048L2128.86 365.771L2165.4 344.678L2171.05 341.401L2165.4 338.125L2128.86 317.032L2123.21 313.755V313.83Z" fill="#00B795"/>
<path d="M2089.34 310.026V372.815L2034.94 341.401L2089.34 309.988M2093.11 303.472L2087.46 306.749L2033.06 338.162L2027.41 341.439L2033.06 344.716L2087.46 376.129L2093.11 379.406V303.547V303.472Z" fill="#00B795"/>
<path d="M1973.31 393.229V407.354L1961.11 400.311L1973.31 393.267M1977.08 386.751L1971.43 390.028L1959.22 397.071L1953.57 400.348L1959.22 403.625L1971.43 410.669L1977.08 413.946V386.789V386.751Z" fill="#00B795"/>
<path d="M1931.95 453.457L1941.82 459.144L1931.95 464.832V453.457ZM1928.18 446.941V471.385L1933.83 468.109L1943.7 462.421L1949.35 459.144L1943.7 455.867L1933.83 450.18L1928.18 446.903V446.941Z" fill="#00B795"/>
<path d="M2180.06 270.627V294.545L2159.34 282.605L2180.06 270.665M2183.83 264.149L2178.17 267.426L2157.46 279.366L2151.8 282.643L2157.46 285.92L2178.17 297.86L2183.83 301.137V264.187V264.149Z" fill="#00B795"/>
<path d="M2013.77 241.964L2084.14 282.568L2013.77 323.171V241.964ZM2010.01 235.448V329.725L2015.66 326.448L2086.03 285.844L2091.68 282.568L2086.03 279.291L2015.66 238.687L2010.01 235.41V235.448Z" fill="#00B795"/>
<path d="M1992.68 241.964V323.171L1922.3 282.567L1992.68 241.964ZM1996.44 235.448L1990.79 238.725L1920.42 279.328L1914.77 282.605L1920.42 285.882L1990.79 326.486L1996.44 329.763V235.485V235.448Z" fill="#00B795"/>
<path d="M1918.27 312.06L1969.13 341.401L1918.27 370.743V312.022M1914.51 305.506V377.259L1920.16 373.982L1971.01 344.641L1976.67 341.364L1971.01 338.087L1920.16 308.745L1914.51 305.468V305.506Z" fill="#00B795"/>
<path d="M1869.64 455.039V463.25L1862.52 459.144L1869.64 455.039ZM1873.41 448.522L1867.76 451.799L1860.63 455.905L1854.98 459.182L1860.63 462.459L1867.76 466.564L1873.41 469.841V448.598V448.522Z" fill="#00B795"/>
<path d="M1824.96 503.59L1849.94 518.015L1824.96 532.441V503.59ZM1821.19 497.073V538.958L1826.84 535.681L1851.82 521.255L1857.47 517.978L1851.82 514.701L1826.84 500.275L1821.19 496.998V497.073Z" fill="#00B795"/>
<path d="M2287.58 202.151V245.241L2250.24 223.696L2287.58 202.151ZM2291.34 195.635L2285.69 198.912L2248.36 220.457L2242.71 223.734L2248.36 227.011L2285.69 248.555L2291.34 251.832V195.673V195.635Z" fill="#00B795"/>
<path d="M2115.71 183.093L2186.09 223.696L2115.71 264.3V183.093ZM2111.95 176.577V270.854L2117.6 267.577L2187.97 226.973L2193.62 223.696L2187.97 220.42L2117.6 179.816L2111.95 176.539V176.577Z" fill="#00B795"/>
<path d="M2094.66 183.093V264.3L2024.28 223.696L2094.66 183.093ZM2098.42 176.577L2092.77 179.854L2022.4 220.457L2016.75 223.734L2022.4 227.011L2092.77 267.615L2098.42 270.891V176.614V176.577Z" fill="#00B795"/>
<path d="M1911.79 183.093L1982.17 223.696L1911.79 264.3V183.093ZM1908.03 176.577V270.854L1913.68 267.577L1984.05 226.973L1989.7 223.696L1984.05 220.42L1913.68 179.816L1908.03 176.539V176.577Z" fill="#00B795"/>
<path d="M1880.79 317.973V364.867L1840.18 341.439L1880.79 318.011M1884.56 311.495L1878.91 314.772L1838.3 338.2L1832.64 341.477L1838.3 344.753L1878.91 368.181L1884.56 371.458V311.532V311.495Z" fill="#00B795"/>
<path d="M1828.8 392.514L1842.25 400.273L1828.8 408.032V392.514ZM1825.03 385.998V414.586L1830.69 411.309L1844.13 403.55L1849.79 400.273L1844.13 396.996L1830.69 389.237L1825.03 385.96V385.998Z" fill="#00B795"/>
<path d="M1773.39 504.004V532.027L1749.12 518.016L1773.39 504.004ZM1777.15 497.488L1771.5 500.765L1747.24 514.776L1741.59 518.053L1747.24 521.33L1771.5 535.342L1777.15 538.619V497.563V497.488Z" fill="#00B795"/>
<path d="M2220.59 129.269L2282.26 164.863L2220.59 200.457V129.269ZM2216.83 122.753V207.011L2222.48 203.734L2284.15 168.14L2289.8 164.863L2284.15 161.586L2222.48 125.992L2216.83 122.715V122.753Z" fill="#00B795"/>
<path d="M2196.52 124.372V205.316L2126.41 164.825L2196.52 124.335M2200.29 117.818L2194.64 121.095L2124.53 161.586L2118.88 164.863L2124.53 168.14L2194.64 208.63L2200.29 211.907V117.856V117.818Z" fill="#00B795"/>
<path d="M2013.77 124.259L2084.14 164.862L2013.77 205.466V124.259ZM2010.01 117.743V212.02L2015.66 208.743L2086.03 168.139L2091.68 164.862L2086.03 161.586L2015.66 120.982L2010.01 117.705V117.743Z" fill="#00B795"/>
<path d="M1992.68 124.259V205.466L1922.3 164.862L1992.68 124.259ZM1996.44 117.743L1990.79 121.02L1920.42 161.623L1914.77 164.9L1920.42 168.177L1990.79 208.781L1996.44 212.058V117.705V117.743Z" fill="#00B795"/>
<path d="M1890.74 183.093V264.3L1820.36 223.696L1890.74 183.093ZM1894.5 176.577L1888.85 179.854L1818.48 220.457L1812.83 223.734L1818.48 227.011L1888.85 267.615L1894.5 270.891V176.614V176.577Z" fill="#00B795"/>
<path d="M1815.43 251.682L1868.92 282.568L1815.43 313.453V251.682ZM1811.66 245.166V320.007L1817.31 316.73L1870.81 285.844L1876.46 282.568L1870.81 279.291L1817.31 248.405L1811.66 245.128V245.166Z" fill="#00B795"/>
<path d="M1773.16 386.713V413.908L1749.61 400.31L1773.16 386.713ZM1776.93 380.197L1771.28 383.474L1747.73 397.071L1742.08 400.348L1747.73 403.625L1771.28 417.222L1776.93 420.499V380.272V380.197Z" fill="#00B795"/>
<path d="M1728.22 453.796L1737.52 459.144L1728.22 464.493V453.758M1724.45 447.242V471.009L1730.1 467.732L1739.41 462.383L1745.06 459.106L1739.41 455.83L1730.1 450.481L1724.45 447.204V447.242Z" fill="#00B795"/>
<path d="M2289.23 81.5835V130.398L2246.96 105.991L2289.23 81.5835ZM2293 75.0674L2287.35 78.3443L2245.08 102.752L2239.43 106.029L2245.08 109.305L2287.35 133.713L2293 136.99V75.0674Z" fill="#00B795"/>
<path d="M2117.37 68.2501L2182.77 105.991L2117.37 143.732V68.2501ZM2113.6 61.734V150.286L2119.26 147.009L2184.65 109.268L2190.31 105.991L2184.65 102.714L2119.26 64.9732L2113.6 61.6963V61.734Z" fill="#00B795"/>
<path d="M2093.6 67.1578V144.824L2026.32 105.991L2093.6 67.1578ZM2097.37 60.6416L2091.72 63.9185L2024.43 102.752L2018.78 106.029L2024.43 109.306L2091.72 148.139L2097.37 151.416V60.6416Z" fill="#00B795"/>
<path d="M1911.79 65.3873L1982.17 105.991L1911.79 146.594V65.3873ZM1908.03 58.8712V153.148L1913.68 149.871L1984.05 109.268L1989.7 105.991L1984.05 102.714L1913.68 62.1104L1908.03 58.8335V58.8712Z" fill="#00B795"/>
<path d="M1890.74 65.3877V146.595L1820.36 105.991L1890.74 65.3877ZM1894.5 58.8716L1888.85 62.1485L1818.48 102.752L1812.83 106.029L1818.48 109.306L1888.85 149.909L1894.5 153.186V58.8716Z" fill="#00B795"/>
<path d="M1809.82 124.259L1880.19 164.862L1809.82 205.466V124.259ZM1806.05 117.743V212.02L1811.7 208.743L1882.07 168.139L1887.72 164.862L1882.07 161.586L1811.7 120.982L1806.05 117.705V117.743Z" fill="#00B795"/>
<path d="M1781.37 254.733V310.44L1733.11 282.605L1781.37 254.771M1785.14 248.254L1779.49 251.531L1731.23 279.366L1725.58 282.643L1731.23 285.92L1779.49 313.755L1785.14 317.032V248.292V248.254Z" fill="#00B795"/>
<path d="M1716.09 315.073L1761.75 341.439L1716.09 367.805V315.073ZM1712.32 308.557V374.321L1717.97 371.044L1763.63 344.678L1769.28 341.401L1763.63 338.124L1717.97 311.758L1712.32 308.481V308.557Z" fill="#00B795"/>
<path d="M1664.29 457.524V460.801L1661.46 459.182L1664.29 457.562M1668.05 451.046L1662.4 454.323L1659.58 455.942L1653.93 459.219L1659.58 462.496L1662.4 464.116L1668.05 467.393V451.084V451.046Z" fill="#00B795"/>
<path d="M1620.02 501.857L1647.98 517.978L1620.02 534.099V501.819M1616.25 495.303V540.615L1621.91 537.338L1649.86 521.217L1655.51 517.94L1649.86 514.663L1621.91 498.543L1616.25 495.266V495.303Z" fill="#00B795"/>
<path d="M2237.36 40.4908V47.0823V53.6738L2243.05 50.3592L2248.55 47.1199L2243.08 43.843L2237.4 40.4531L2237.36 40.4908Z" fill="#00B795"/>
<path d="M2174.86 44.2193V50.0951L2169.77 47.1572L2174.86 44.2193ZM2178.63 37.7031L2172.98 40.98L2167.89 43.918L2162.24 47.1949L2167.89 50.4718L2172.98 53.4097L2178.63 56.6866V37.7785V37.7031Z" fill="#00B795"/>
<path d="M1973.01 40.6036L1967.36 43.8428L1961.67 47.1197L1967.36 50.359L1973.01 53.5606V47.0821V40.5659V40.6036Z" fill="#00B795"/>
<path d="M1788.76 124.259V205.466L1718.38 164.862L1788.76 124.259ZM1792.52 117.743L1786.87 121.02L1716.5 161.623L1710.85 164.9L1716.5 168.177L1786.87 208.781L1792.52 212.058V117.705V117.743Z" fill="#00B795"/>
<path d="M1707.87 183.093L1778.25 223.696L1707.87 264.3V183.093ZM1704.11 176.577V270.854L1709.76 267.577L1780.13 226.973L1785.78 223.696L1780.13 220.42L1709.76 179.816L1704.11 176.539V176.577Z" fill="#00B795"/>
<path d="M1680 312.587V370.291L1630.01 341.439L1680 312.587ZM1683.76 306.071L1678.11 309.348L1628.12 338.2L1622.47 341.477L1628.12 344.753L1678.11 373.605L1683.76 376.882V306.146V306.071Z" fill="#00B795"/>
<path d="M1621.27 386.299L1645.53 400.311L1621.27 414.322V386.299ZM1617.5 379.783V420.838L1623.15 417.561L1647.41 403.55L1653.06 400.273L1647.41 396.996L1623.15 382.984L1617.5 379.708V379.783Z" fill="#00B795"/>
<path d="M1571.69 500.125V535.907L1540.68 518.016L1571.69 500.125ZM1575.46 493.608L1569.8 496.885L1538.8 514.776L1533.15 518.053L1538.8 521.33L1569.8 539.221L1575.46 542.498V493.646V493.608Z" fill="#00B795"/>
<path d="M1527.05 576.322L1528.03 576.887L1527.05 577.452V576.322ZM1523.28 569.806V583.968L1528.93 580.691L1529.91 580.126L1535.56 576.849L1529.91 573.572L1528.93 573.007L1523.28 569.73V569.806Z" fill="#00B795"/>
<path d="M1707.95 65.5383L1778.06 106.029L1707.95 146.519V65.5383ZM1704.18 59.0221V153.036L1709.83 149.759L1779.94 109.268L1785.59 105.991L1779.94 102.714L1709.83 62.2237L1704.18 58.9468V59.0221Z" fill="#00B795"/>
<path d="M1686.78 183.093V264.3L1616.41 223.696L1686.78 183.093ZM1690.54 176.577L1684.89 179.854L1614.52 220.457L1608.87 223.734L1614.52 227.011L1684.89 267.615L1690.54 270.891V176.614V176.577Z" fill="#00B795"/>
<path d="M1610.6 250.137L1666.81 282.567L1610.6 314.998V250.137ZM1606.84 243.621V321.551L1612.49 318.274L1668.69 285.844L1674.35 282.567L1668.69 279.291L1612.49 246.86L1606.84 243.583V243.621Z" fill="#00B795"/>
<path d="M1568.03 388.747V411.874L1548.03 400.31L1568.03 388.747ZM1571.8 382.231L1566.15 385.508L1546.15 397.071L1540.5 400.348L1546.15 403.625L1566.15 415.188L1571.8 418.465V382.306V382.231Z" fill="#00B795"/>
<path d="M1460.22 575.456V578.243L1457.81 576.849L1460.22 575.456ZM1463.98 568.939L1458.33 572.216L1455.92 573.61L1450.27 576.887L1455.92 580.164L1458.33 581.557L1463.98 584.834V568.977V568.939Z" fill="#00B795"/>
<path d="M1686.7 65.5382V146.482L1616.59 105.991L1686.7 65.5005M1690.47 58.9844L1684.82 62.2613L1614.71 102.752L1609.06 106.029L1614.71 109.306L1684.82 149.796L1690.47 153.073V58.9844Z" fill="#00B795"/>
<path d="M1605.89 124.259L1676.27 164.862L1605.89 205.466V124.259ZM1602.13 117.743V212.02L1607.78 208.743L1678.15 168.139L1683.8 164.862L1678.15 161.586L1607.78 120.982L1602.13 117.705V117.743Z" fill="#00B795"/>
<path d="M1580.99 248.556V316.58L1522.07 282.568L1580.99 248.556ZM1584.76 242.04L1579.11 245.316L1520.19 279.329L1514.54 282.605L1520.19 285.882L1579.11 319.894L1584.76 323.171V242.115V242.04Z" fill="#00B795"/>
<path d="M1511.3 313.604L1559.56 341.439L1511.3 369.274V313.567M1507.53 307.05V375.79L1513.18 372.513L1561.44 344.678L1567.09 341.401L1561.44 338.124L1513.18 310.29L1507.53 307.013V307.05Z" fill="#00B795"/>
<path d="M1420.92 510.256L1434.37 518.016L1420.92 525.775V510.256ZM1417.16 503.74V532.329L1422.81 529.052L1436.26 521.292L1441.91 518.016L1436.26 514.739L1422.81 506.98L1417.16 503.703V503.74Z" fill="#00B795"/>
<path d="M1629.29 47.0445L1629.48 47.1575L1629.29 47.2705V47.0445ZM1625.52 40.5283V53.7866L1631.17 50.5474L1631.36 50.4344L1637.01 47.1575L1631.36 43.8806L1631.17 43.7676L1625.52 40.5283Z" fill="#00B795"/>
<path d="M1584.84 124.259V205.466L1514.46 164.862L1584.84 124.259ZM1588.6 117.743L1582.95 121.02L1512.58 161.623L1506.93 164.9L1512.58 168.177L1582.95 208.781L1588.6 212.058V117.705V117.743Z" fill="#00B795"/>
<path d="M1503.92 183.093L1574.29 223.696L1503.92 264.3V183.093ZM1500.15 176.577V270.854L1505.8 267.577L1576.17 226.973L1581.82 223.696L1576.17 220.42L1505.8 179.816L1500.15 176.539V176.577Z" fill="#00B795"/>
<path d="M1474.34 315.563V367.315L1429.55 341.439L1474.34 315.563ZM1478.11 309.046L1472.46 312.323L1427.67 338.2L1422.02 341.477L1427.67 344.753L1472.46 370.63L1478.11 373.907V309.122V309.046Z" fill="#00B795"/>
<path d="M1416.86 385.432L1442.59 400.273L1416.86 415.113V385.432ZM1413.09 378.916V421.667L1418.74 418.39L1444.47 403.549L1450.12 400.273L1444.47 396.996L1418.74 382.155L1413.09 378.878V378.916Z" fill="#00B795"/>
<path d="M1361.51 510.972V525.097L1349.31 518.053L1361.51 511.01M1365.28 504.494L1359.63 507.771L1347.43 514.814L1341.77 518.091L1347.43 521.368L1359.63 528.411L1365.28 531.688V504.531V504.494Z" fill="#00B795"/>
<path d="M1323.24 576.472L1323.92 576.849L1323.24 577.226V576.435M1319.47 569.919V583.742L1325.12 580.465L1325.8 580.088L1331.45 576.811L1325.8 573.534L1325.12 573.158L1319.47 569.881V569.919Z" fill="#00B795"/>
<path d="M1506.82 70.3971L1568.49 105.991L1506.82 141.585V70.3971ZM1503.05 63.8809V148.139L1508.7 144.862L1570.37 109.268L1576.02 105.991L1570.37 102.714L1508.7 67.1202L1503.05 63.8433V63.8809Z" fill="#00B795"/>
<path d="M1482.86 183.093V264.3L1412.49 223.696L1482.86 183.093ZM1486.62 176.577L1480.97 179.854L1410.6 220.457L1404.95 223.734L1410.6 227.011L1480.97 267.615L1486.62 270.891V176.614V176.577Z" fill="#00B795"/>
<path d="M1408.76 253.716L1458.75 282.567L1408.76 311.419V253.716ZM1404.99 247.199V317.935L1410.64 314.659L1460.63 285.807L1466.28 282.53L1460.63 279.253L1410.64 250.401L1404.99 247.124V247.199Z" fill="#00B795"/>
<path d="M1367.01 383.737V416.883L1338.31 400.31L1367.01 383.737ZM1370.78 377.221L1365.13 380.498L1336.43 397.071L1330.77 400.348L1336.43 403.625L1365.13 420.198L1370.78 423.475V377.297V377.221Z" fill="#00B795"/>
<path d="M1258.03 572.48V581.294L1250.38 576.887L1258.03 572.48ZM1261.8 565.964L1256.15 569.241L1248.5 573.648L1242.85 576.925L1248.5 580.201L1256.15 584.608L1261.8 587.885V566.002V565.964Z" fill="#00B795"/>
<path d="M1481.5 67.7228V144.297L1415.16 105.991L1481.5 67.6851M1485.27 61.1689L1479.62 64.4459L1413.28 102.752L1407.63 106.029L1413.28 109.306L1479.62 147.612L1485.27 150.888V61.1689Z" fill="#00B795"/>
<path d="M1401.97 124.259L1472.35 164.862L1401.97 205.466V124.259ZM1398.21 117.743V212.02L1403.86 208.743L1474.23 168.139L1479.88 164.862L1474.23 161.586L1403.86 120.982L1398.21 117.705V117.743Z" fill="#00B795"/>
<path d="M1376.17 250.137V314.997L1319.96 282.567L1376.17 250.137ZM1379.94 243.621L1374.29 246.898L1318.08 279.328L1312.43 282.605L1318.08 285.882L1374.29 318.312L1379.94 321.589V243.659V243.621Z" fill="#00B795"/>
<path d="M1304.4 308.482L1361.51 341.439L1304.4 374.396V308.482ZM1300.64 301.965V380.95L1306.29 377.673L1363.4 344.716L1369.05 341.439L1363.4 338.162L1306.29 305.205L1300.64 301.928V301.965Z" fill="#00B795"/>
<path d="M1259.16 452.779V465.51L1248.12 459.144L1259.16 452.779ZM1262.93 446.263L1257.28 449.54L1246.24 455.905L1240.59 459.182L1246.24 462.459L1257.28 468.824L1262.93 472.101V446.338V446.263Z" fill="#00B795"/>
<path d="M1213.88 504.833L1236.71 518.016L1213.88 531.199V504.833ZM1210.11 498.317V537.715L1215.76 534.438L1238.59 521.255L1244.24 517.978L1238.59 514.701L1215.76 501.518L1210.11 498.241V498.317Z" fill="#00B795"/>
<path d="M1423.86 44.483L1428.46 47.1573L1423.86 49.8315V44.5207M1420.1 38.0045V56.3854L1425.75 53.1085L1430.34 50.4342L1435.99 47.1573L1430.34 43.8804L1425.75 41.2061L1420.1 37.9292V38.0045Z" fill="#00B795"/>
<path d="M1380.88 124.259V205.466L1310.51 164.862L1380.88 124.259ZM1384.65 117.743L1378.99 121.02L1308.62 161.623L1302.97 164.9L1308.62 168.177L1378.99 208.781L1384.65 212.058V117.705V117.743Z" fill="#00B795"/>
<path d="M1300 183.093L1370.37 223.696L1300 264.3V183.093ZM1296.23 176.577V270.854L1301.88 267.577L1372.25 226.973L1377.9 223.696L1372.25 220.42L1301.88 179.816L1296.23 176.539V176.577Z" fill="#00B795"/>
<path d="M1278.94 300.836V382.043L1208.57 341.439L1278.94 300.836ZM1282.7 294.319L1277.05 297.596L1206.68 338.2L1201.03 341.477L1206.68 344.754L1277.05 385.357L1282.7 388.634V294.357V294.319Z" fill="#00B795"/>
<path d="M1200.01 363.097L1264.47 400.31L1200.01 437.524V363.097ZM1196.25 356.581V444.04L1201.9 440.763L1266.35 403.55L1272.01 400.273L1266.35 396.996L1201.9 359.782L1196.25 356.505V356.581Z" fill="#00B795"/>
<path d="M1161.36 504.418V531.613L1137.82 518.015L1161.36 504.418ZM1165.13 497.902L1159.48 501.179L1135.93 514.776L1130.28 518.053L1135.93 521.33L1159.48 534.927L1165.13 538.204V497.977V497.902Z" fill="#00B795"/>
<path d="M1112.16 564.118L1134.28 576.887L1112.16 589.656V564.118ZM1108.39 557.602V596.172L1114.05 592.895L1136.16 580.126L1141.81 576.849L1136.16 573.572L1114.05 560.804L1108.39 557.527V557.602Z" fill="#00B795"/>
<path d="M1364.11 35.5939V58.7206L1344.11 47.1572L1364.11 35.5939ZM1367.88 29.0777L1362.23 32.3546L1342.23 43.918L1336.58 47.1949L1342.23 50.4718L1362.23 62.0351L1367.88 65.312V29.04V29.0777Z" fill="#00B795"/>
<path d="M1300 65.3873L1370.37 105.991L1300 146.594V65.3873ZM1296.23 58.8712V153.148L1301.88 149.871L1372.25 109.268L1377.9 105.991L1372.25 102.714L1301.88 62.1104L1296.23 58.8335V58.8712Z" fill="#00B795"/>
<path d="M1278.94 183.093V264.3L1208.57 223.696L1278.94 183.093ZM1282.7 176.577L1277.05 179.854L1206.68 220.457L1201.03 223.734L1206.68 227.011L1277.05 267.615L1282.7 270.891V176.614V176.577Z" fill="#00B795"/>
<path d="M1198.02 241.964L1268.39 282.568L1198.02 323.171V241.964ZM1194.25 235.448V329.725L1199.9 326.448L1270.27 285.844L1275.92 282.568L1270.27 279.291L1199.9 238.687L1194.25 235.41V235.448Z" fill="#00B795"/>
<path d="M1176.96 359.669V440.876L1106.59 400.273L1176.96 359.669ZM1180.73 353.153L1175.07 356.43L1104.7 397.033L1099.05 400.31L1104.7 403.587L1175.07 444.191L1180.73 447.468V353.19V353.153Z" fill="#00B795"/>
<path d="M1113.97 449.539L1130.62 459.144L1113.97 468.749V449.539ZM1110.2 443.023V475.302L1115.85 472.026L1132.5 462.421L1138.16 459.144L1132.5 455.867L1115.85 446.262L1110.2 442.985V443.023Z" fill="#00B795"/>
<path d="M1059.38 563.29V590.484L1035.84 576.887L1059.38 563.29ZM1063.15 556.773L1057.5 560.05L1033.95 573.648L1028.3 576.925L1033.95 580.201L1057.5 593.799L1063.15 597.076V556.849V556.773Z" fill="#00B795"/>
<path d="M1013.87 629.355L1024.91 635.721L1013.87 642.086V629.355ZM1010.11 622.839V648.602L1015.76 645.325L1026.8 638.96L1032.45 635.683L1026.8 632.406L1015.76 626.041L1010.11 622.764V622.839Z" fill="#00B795"/>
<path d="M1278.94 65.3877V146.595L1208.57 105.991L1278.94 65.3877ZM1282.7 58.8716L1277.05 62.1485L1206.68 102.752L1201.03 106.029L1206.68 109.306L1277.05 149.909L1282.7 153.186V58.8716Z" fill="#00B795"/>
<path d="M1198.02 124.259L1268.39 164.862L1198.02 205.466V124.259ZM1194.25 117.743V212.02L1199.9 208.743L1270.27 168.139L1275.92 164.862L1270.27 161.586L1199.9 120.982L1194.25 117.705V117.743Z" fill="#00B795"/>
<path d="M1176.96 241.964V323.171L1106.59 282.567L1176.96 241.964ZM1180.73 235.448L1175.07 238.725L1104.7 279.328L1099.05 282.605L1104.7 285.882L1175.07 326.486L1180.73 329.763V235.485V235.448Z" fill="#00B795"/>
<path d="M1096.08 300.836L1166.45 341.439L1096.08 382.043V300.836ZM1092.31 294.319V388.596L1097.96 385.32L1168.33 344.716L1173.98 341.439L1168.33 338.162L1097.96 297.559L1092.31 294.282V294.319Z" fill="#00B795"/>
<path d="M1053.39 455.942V462.383L1047.82 459.182L1053.39 455.98M1057.16 449.464L1051.51 452.741L1045.93 455.942L1040.28 459.219L1045.93 462.496L1051.51 465.698L1057.16 468.975V449.502V449.464Z" fill="#00B795"/>
<path d="M1015.87 515.078L1020.96 518.016L1015.87 520.954V515.078ZM1012.1 508.562V527.47L1017.75 524.193L1022.84 521.255L1028.49 517.978L1022.84 514.701L1017.75 511.763L1012.1 508.486V508.562Z" fill="#00B795"/>
<path d="M953.637 628.677V642.802L941.431 635.758L953.637 628.715M957.404 622.199L951.753 625.476L939.547 632.519L933.896 635.796L939.547 639.073L951.753 646.116L957.404 649.393V622.236V622.199Z" fill="#00B795"/>
<path d="M1211.16 29.2286L1242.17 47.1198L1211.16 65.011V29.2286ZM1207.4 22.7125V71.5648L1213.05 68.2879L1244.05 50.3967L1249.7 47.1198L1244.05 43.8429L1213.05 25.9517L1207.4 22.6748V22.7125Z" fill="#00B795"/>
<path d="M1176.96 124.259V205.466L1106.59 164.862L1176.96 124.259ZM1180.73 117.743L1175.07 121.02L1104.7 161.623L1099.05 164.9L1104.7 168.177L1175.07 208.781L1180.73 212.058V117.705V117.743Z" fill="#00B795"/>
<path d="M1096.08 183.093L1166.45 223.696L1096.08 264.3V183.093ZM1092.31 176.577V270.854L1097.96 267.577L1168.33 226.973L1173.98 223.696L1168.33 220.42L1097.96 179.816L1092.31 176.539V176.577Z" fill="#00B795"/>
<path d="M1074.98 300.836V382.043L1004.61 341.439L1074.98 300.836ZM1078.75 294.319L1073.1 297.596L1002.72 338.2L997.073 341.477L1002.72 344.754L1073.1 385.357L1078.75 388.634V294.357V294.319Z" fill="#00B795"/>
<path d="M1000.31 370.442L1052.04 400.31L1000.31 430.179V370.442ZM996.545 363.925V436.695L1002.2 433.419L1053.92 403.55L1059.57 400.273L1053.92 396.996L1002.2 367.127L996.545 363.85V363.925Z" fill="#00B795"/>
<path d="M957.894 503.589V532.441L932.917 518.015L957.894 503.589ZM961.661 497.073L956.01 500.35L931.033 514.776L925.382 518.053L931.033 521.33L956.01 535.756L961.661 539.033V497.149V497.073Z" fill="#00B795"/>
<path d="M898.936 548.035L948.928 576.887L898.936 605.739V548.035ZM895.169 541.519V612.255L900.82 608.978L950.811 580.126L956.462 576.849L950.811 573.572L900.82 544.72L895.169 541.443V541.519Z" fill="#00B795"/>
<path d="M848.418 693.198V695.986L846.007 694.592L848.418 693.198ZM852.185 686.682L846.534 689.959L844.123 691.353L838.473 694.63L844.123 697.906L846.534 699.3L852.185 702.577V686.72V686.682Z" fill="#00B795"/>
<path d="M1165.43 26.5167V67.7606L1129.72 47.1198L1165.43 26.479M1169.2 19.9629L1163.55 23.2398L1127.83 43.8806L1122.18 47.1575L1127.83 50.4344L1163.55 71.0752L1169.2 74.3521V20.0006V19.9629Z" fill="#00B795"/>
<path d="M1096.08 65.3873L1166.45 105.991L1096.08 146.594V65.3873ZM1092.31 58.8712V153.148L1097.96 149.871L1168.33 109.268L1173.98 105.991L1168.33 102.714L1097.96 62.1104L1092.31 58.8335V58.8712Z" fill="#00B795"/>
<path d="M1074.98 183.093V264.3L1004.61 223.696L1074.98 183.093ZM1078.75 176.577L1073.1 179.854L1002.72 220.457L997.073 223.734L1002.72 227.011L1073.1 267.615L1078.75 270.891V176.614V176.577Z" fill="#00B795"/>
<path d="M994.097 241.964L1064.47 282.568L994.097 323.171V241.964ZM990.33 235.448V329.725L995.98 326.448L1066.35 285.844L1072 282.568L1066.35 279.291L995.98 238.687L990.33 235.41V235.448Z" fill="#00B795"/>
<path d="M964.524 374.434V426.187L919.732 400.31L964.524 374.434ZM968.291 367.918L962.64 371.195L917.848 397.071L912.197 400.348L917.848 403.625L962.64 429.501L968.291 432.778V367.993V367.918Z" fill="#00B795"/>
<path d="M905.265 441.253L936.27 459.144L905.265 477.035V441.253ZM901.498 434.737V483.589L907.149 480.312L938.153 462.421L943.804 459.144L938.153 455.867L907.149 437.976L901.498 434.699V434.737Z" fill="#00B795"/>
<path d="M866.651 543.892V609.806L809.54 576.849L866.651 543.892ZM870.419 537.375L864.768 540.652L807.657 573.61L802.006 576.887L807.657 580.164L864.768 613.121L870.419 616.398V537.413V537.375Z" fill="#00B795"/>
<path d="M807.619 625.362L825.589 635.758L807.619 646.154V625.4M803.852 618.884V652.708L809.502 649.431L827.472 639.035L833.123 635.758L827.472 632.481L809.502 622.086L803.852 618.809V618.884Z" fill="#00B795"/>
<path d="M1074.98 65.3877V146.595L1004.61 105.991L1074.98 65.3877ZM1078.75 58.8716L1073.1 62.1485L1002.72 102.752L997.073 106.029L1002.72 109.306L1073.1 149.909L1078.75 153.186V58.8716Z" fill="#00B795"/>
<path d="M994.097 124.259L1064.47 164.862L994.097 205.466V124.259ZM990.33 117.743V212.02L995.98 208.743L1066.35 168.139L1072 164.862L1066.35 161.586L995.98 120.982L990.33 117.705V117.743Z" fill="#00B795"/>
<path d="M973.038 241.964V323.171L902.666 282.567L973.038 241.964ZM976.805 235.448L971.154 238.725L900.782 279.328L895.132 282.605L900.782 285.882L971.154 326.486L976.805 329.763V235.485V235.448Z" fill="#00B795"/>
<path d="M895.659 306.9L955.483 341.439L895.659 375.978V306.9ZM891.892 300.383V382.495L897.543 379.218L957.366 344.678L963.017 341.401L957.366 338.124L897.543 303.585L891.892 300.308V300.383Z" fill="#00B795"/>
<path d="M862.545 433.268V485.021L817.753 459.144L862.545 433.268ZM866.312 426.752L860.661 430.029L815.869 455.905L810.218 459.182L815.869 462.459L860.661 488.335L866.312 491.612V426.827V426.752Z" fill="#00B795"/>
<path d="M790.177 477.412L860.548 518.015L790.177 558.619V477.412ZM786.409 470.896V565.173L792.06 561.896L862.432 521.292L868.083 518.015L862.432 514.738L792.06 474.135L786.409 470.858V470.896Z" fill="#00B795"/>
<path d="M751.186 626.116V645.325L734.535 635.72L751.186 626.116ZM754.953 619.6L749.302 622.877L732.651 632.481L727 635.758L732.651 639.035L749.302 648.64L754.953 651.917V619.637V619.6Z" fill="#00B795"/>
<path d="M1006.72 28.3244L1039.27 47.1196L1006.72 65.9147V28.3244ZM1002.95 21.8082V72.4309L1008.6 69.1539L1041.15 50.3588L1046.8 47.0819L1041.15 43.805L1008.6 25.0098L1002.95 21.7329V21.8082Z" fill="#00B795"/>
<path d="M973.038 124.259V205.466L902.666 164.862L973.038 124.259ZM976.805 117.743L971.154 121.02L900.782 161.623L895.132 164.9L900.782 168.177L971.154 208.781L976.805 212.058V117.705V117.743Z" fill="#00B795"/>
<path d="M892.118 183.093L962.49 223.696L892.118 264.3V183.093ZM888.351 176.577V270.854L894.001 267.577L964.373 226.973L970.024 223.696L964.373 220.42L894.001 179.816L888.351 176.539V176.577Z" fill="#00B795"/>
<path d="M865.747 310.026V372.815L811.348 341.401L865.747 309.988M869.514 303.472L863.864 306.749L809.465 338.162L803.814 341.439L809.465 344.716L863.864 376.129L869.514 379.406V303.547V303.472Z" fill="#00B795"/>
<path d="M805.999 387.128L828.828 400.311L805.999 413.494V387.128ZM802.232 380.611V420.01L807.883 416.733L830.712 403.55L836.363 400.273L830.712 396.996L807.883 383.813L802.232 380.536V380.611Z" fill="#00B795"/>
<path d="M769.08 477.412V558.619L698.708 518.016L769.08 477.412ZM772.847 470.896L767.196 474.173L696.825 514.776L691.174 518.053L696.825 521.33L767.196 561.934L772.847 565.211V470.934V470.896Z" fill="#00B795"/>
<path d="M692.907 544.419L749.114 576.849L692.907 609.279V544.419ZM689.139 537.903V615.833L694.79 612.556L750.997 580.126L756.648 576.849L750.997 573.572L694.79 541.142L689.139 537.865V537.903Z" fill="#00B795"/>
<path d="M648.566 686.08V703.067L633.837 694.592L648.566 686.117M652.334 679.601L646.683 682.878L631.953 691.353L626.302 694.63L631.953 697.907L646.683 706.381L652.334 709.658V679.639V679.601Z" fill="#00B795"/>
<path d="M606.034 747.098L617.072 753.463L606.034 759.829V747.098ZM602.267 740.582V766.345L607.918 763.068L618.956 756.703L624.607 753.426L618.956 750.149L607.918 743.783L602.267 740.506V740.582Z" fill="#00B795"/>
<path d="M963.394 23.2022V71.0376L921.954 47.1199L963.394 23.2022ZM967.161 16.686L961.51 19.9629L920.071 43.8806L914.42 47.1575L920.071 50.4345L961.51 74.3521L967.161 77.629V16.686Z" fill="#00B795"/>
<path d="M892.118 65.3873L962.49 105.991L892.118 146.594V65.3873ZM888.351 58.8712V153.148L894.001 149.871L964.373 109.268L970.024 105.991L964.373 102.714L894.001 62.1104L888.351 58.8335V58.8712Z" fill="#00B795"/>
<path d="M871.059 183.093V264.3L800.687 223.696L871.059 183.093ZM874.826 176.577L869.175 179.854L798.803 220.457L793.153 223.734L798.803 227.011L869.175 267.615L874.826 270.891V176.614V176.577Z" fill="#00B795"/>
<path d="M790.177 241.964L860.548 282.568L790.177 323.171V241.964ZM786.409 235.448V329.725L792.06 326.448L862.432 285.844L868.083 282.568L862.432 279.291L792.06 238.687L786.409 235.41V235.448Z" fill="#00B795"/>
<path d="M752.316 388.747V411.874L732.312 400.31L752.316 388.747ZM756.083 382.231L750.432 385.508L730.428 397.071L724.777 400.348L730.428 403.625L750.432 415.188L756.083 418.465V382.306V382.231Z" fill="#00B795"/>
<path d="M701.308 441.253L732.312 459.144L701.308 477.035V441.253ZM697.54 434.737V483.589L703.191 480.312L734.196 462.421L739.846 459.144L734.196 455.867L703.191 437.976L697.54 434.699V434.737Z" fill="#00B795"/>
<path d="M657.758 552.48V601.294L615.49 576.887L657.758 552.48ZM661.526 545.963L655.875 549.24L613.606 573.648L607.956 576.925L613.606 580.201L655.875 604.609L661.526 607.886V546.039V545.963Z" fill="#00B795"/>
<path d="M596.692 613.234L635.645 635.721L596.692 658.207V613.234ZM592.924 606.718V664.761L598.575 661.484L637.528 638.998L643.179 635.721L637.528 632.444L598.575 609.958L592.924 606.681V606.718Z" fill="#00B795"/>
<path d="M542.029 752.898V754.028L541.05 753.463L542.029 752.898ZM545.796 746.382L540.145 749.659L539.166 750.224L533.515 753.501L539.166 756.778L540.145 757.343L545.796 760.62V746.42V746.382Z" fill="#00B795"/>
<path d="M871.059 65.3877V146.595L800.687 105.991L871.059 65.3877ZM874.826 58.8716L869.175 62.1485L798.803 102.752L793.153 106.029L798.803 109.306L869.175 149.909L874.826 153.186V58.8716Z" fill="#00B795"/>
<path d="M790.177 124.259L860.548 164.862L790.177 205.466V124.259ZM786.409 117.743V212.02L792.06 208.743L862.432 168.139L868.083 164.862L862.432 161.586L792.06 120.982L786.409 117.705V117.743Z" fill="#00B795"/>
<path d="M769.08 241.964V323.171L698.708 282.567L769.08 241.964ZM772.847 235.448L767.196 238.725L696.825 279.328L691.174 282.605L696.825 285.882L767.196 326.486L772.847 329.763V235.485V235.448Z" fill="#00B795"/>
<path d="M693.509 310.026L747.908 341.439L693.509 372.852V310.064M689.742 303.547V379.406L695.393 376.129L749.792 344.716L755.443 341.439L749.792 338.162L695.393 306.749L689.742 303.472V303.547Z" fill="#00B795"/>
<path d="M645.703 455.641V462.647L639.638 459.144L645.703 455.641ZM649.47 449.125L643.82 452.402L637.754 455.905L632.104 459.182L637.754 462.459L643.82 465.962L649.47 469.238V449.163V449.125Z" fill="#00B795"/>
<path d="M599.63 500.576L629.881 518.016L599.63 535.455V500.539M595.863 494.023V541.971L601.514 538.694L631.764 521.255L637.415 517.978L631.764 514.701L601.514 497.262L595.863 493.985V494.023Z" fill="#00B795"/>
<path d="M556.947 609.355V662.086L511.288 635.72L556.947 609.355ZM560.715 602.838L555.064 606.115L509.405 632.481L503.754 635.758L509.405 639.035L555.064 665.401L560.715 668.678V602.914V602.838Z" fill="#00B795"/>
<path d="M505.525 690.788L512.117 694.592L505.525 698.396V690.788ZM501.757 684.272V704.912L507.408 701.635L514.001 697.831L519.652 694.554L514.001 691.277L507.408 687.473L501.757 684.196V684.272Z" fill="#00B795"/>
<path d="M795.488 15.7444L849.887 47.1575L795.488 78.5707V15.7444ZM791.721 9.22823V85.0492L797.372 81.7722L851.771 50.3591L857.422 47.0822L851.771 43.8053L797.372 12.3921L791.721 9.11523V9.22823Z" fill="#00B795"/>
<path d="M769.08 124.259V205.466L698.708 164.862L769.08 124.259ZM772.847 117.743L767.196 121.02L696.825 161.623L691.174 164.9L696.825 168.177L767.196 208.781L772.847 212.058V117.705V117.743Z" fill="#00B795"/>
<path d="M688.198 183.093L758.569 223.696L688.198 264.3V183.093ZM684.43 176.577V270.854L690.081 267.577L760.453 226.973L766.104 223.696L760.453 220.42L690.081 179.816L684.43 176.539V176.577Z" fill="#00B795"/>
<path d="M659.755 313.604V369.311L611.497 341.477L659.755 313.642M663.522 307.125L657.871 310.402L609.613 338.237L603.962 341.514L609.613 344.791L657.871 372.626L663.522 375.903V307.163V307.125Z" fill="#00B795"/>
<path d="M608.295 397.9L612.439 400.273L608.295 402.645V397.862M604.527 391.346V409.162L610.178 405.885L614.322 403.512L619.973 400.235L614.322 396.958L610.178 394.585L604.527 391.308V391.346Z" fill="#00B795"/>
<path d="M552.841 498.769V537.263L519.501 518.016L552.841 498.769ZM556.608 492.252L550.957 495.529L517.617 514.776L511.967 518.053L517.617 521.33L550.957 540.577L556.608 543.854V492.328V492.252Z" fill="#00B795"/>
<path d="M493.922 552.932L535.361 576.849L493.922 600.767V552.932ZM490.154 546.416V607.321L495.805 604.044L537.245 580.126L542.896 576.849L537.245 573.573L495.805 549.655L490.154 546.378V546.416Z" fill="#00B795"/>
<path d="M439.824 694.479V694.705L439.636 694.592L439.824 694.479ZM443.591 687.925L437.941 691.202L437.752 691.315L432.139 694.592L437.79 697.831L437.978 697.944L443.629 701.221V687.963L443.591 687.925Z" fill="#00B795"/>
<path d="M767.761 8.85118V85.4254L701.421 47.1195L767.761 8.81352M771.529 2.29736L765.878 5.57427L699.537 43.8802L693.886 47.1571L699.537 50.4341L765.878 88.74L771.529 92.0169V2.33503V2.29736Z" fill="#00B795"/>
<path d="M688.198 65.3873L758.569 105.991L688.198 146.594V65.3873ZM684.43 58.8712V153.148L690.081 149.871L760.453 109.268L766.104 105.991L760.453 102.714L690.081 62.1104L684.43 58.8335V58.8712Z" fill="#00B795"/>
<path d="M667.139 183.093V264.3L596.767 223.696L667.139 183.093ZM670.906 176.577L665.255 179.854L594.883 220.457L589.232 223.734L594.883 227.011L665.255 267.615L670.906 270.891V176.614V176.577Z" fill="#00B795"/>
<path d="M586.256 241.964L656.628 282.568L586.256 323.171V241.964ZM582.489 235.448V329.725L588.14 326.448L658.512 285.844L664.163 282.568L658.512 279.291L588.14 238.687L582.489 235.41V235.448Z" fill="#00B795"/>
<path d="M547.944 389.538V411.083L529.296 400.31L547.944 389.538ZM551.711 383.022L546.06 386.299L527.412 397.071L521.761 400.348L527.412 403.625L546.06 414.397L551.711 417.674V383.097V383.022Z" fill="#00B795"/>
<path d="M501.268 447.995L520.594 459.144L501.268 470.293V447.958M497.5 441.441V476.809L503.151 473.533L522.477 462.384L528.128 459.107L522.477 455.83L503.151 444.681L497.5 441.404V441.441Z" fill="#00B795"/>
<path d="M446.417 565.324V588.45L426.413 576.887L446.417 565.324ZM450.184 558.808L444.533 562.085L424.529 573.648L418.878 576.925L424.529 580.202L444.533 591.765L450.184 595.042V558.883V558.808Z" fill="#00B795"/>
<path d="M398.385 622.952L420.498 635.72L398.385 648.489V622.952ZM394.617 616.436V655.005L400.268 651.728L422.382 638.96L428.033 635.683L422.382 632.406L400.268 619.637L394.617 616.36V616.436Z" fill="#00B795"/>
<path d="M340.332 749.057V757.87L332.684 753.464L340.332 749.057ZM344.099 742.541L338.448 745.817L330.801 750.224L325.15 753.501L330.801 756.778L338.448 761.185L344.099 764.462V742.578V742.541Z" fill="#00B795"/>
<path d="M667.139 65.3877V146.595L596.767 105.991L667.139 65.3877ZM670.906 58.8716L665.255 62.1485L594.883 102.752L589.232 106.029L594.883 109.306L665.255 149.909L670.906 153.186V58.8716Z" fill="#00B795"/>
<path d="M586.256 124.259L656.628 164.862L586.256 205.466V124.259ZM582.489 117.743V212.02L588.14 208.743L658.512 168.139L664.163 164.862L658.512 161.586L588.14 120.982L582.489 117.705V117.743Z" fill="#00B795"/>
<path d="M565.16 241.964V323.171L494.788 282.567L565.16 241.964ZM568.927 235.448L563.276 238.725L492.904 279.328L487.254 282.605L492.904 285.882L563.276 326.486L568.927 329.763V235.485V235.448Z" fill="#00B795"/>
<path d="M484.353 300.948L554.461 341.439L484.353 381.929V300.986M480.586 294.47V388.483L486.236 385.206L556.345 344.716L561.995 341.439L556.345 338.162L486.236 297.671L480.586 294.395V294.47Z" fill="#00B795"/>
<path d="M451.126 439.445V478.843L416.995 459.144L451.126 439.445ZM454.893 432.929L449.242 436.206L415.111 455.905L409.46 459.182L415.111 462.459L449.242 482.158L454.893 485.435V432.966V432.929Z" fill="#00B795"/>
<path d="M390.812 492.139L435.605 518.016L390.812 543.892V492.139ZM387.045 485.623V550.408L392.696 547.131L437.488 521.255L443.139 517.978L437.488 514.701L392.696 488.825L387.045 485.548V485.623Z" fill="#00B795"/>
<path d="M349.411 615.569V655.909L314.488 635.758L349.411 615.607M353.178 609.091L347.527 612.368L312.605 632.519L306.954 635.796L312.605 639.073L347.527 659.224L353.178 662.501V609.128V609.091Z" fill="#00B795"/>
<path d="M294.221 678.019L322.927 694.592L294.221 711.165V678.019ZM290.453 671.503V717.681L296.104 714.404L324.811 697.831L330.461 694.554L324.811 691.278L296.104 674.705L290.453 671.428V671.503Z" fill="#00B795"/>
<path d="M586.256 6.51616L656.628 47.1197L586.256 87.7233V6.51616ZM582.489 0V94.2771L588.14 91.0002L658.512 50.3966L664.163 47.1197L658.512 43.8428L588.14 3.27691L582.489 0Z" fill="#00B795"/>
<path d="M565.16 124.259V205.466L494.788 164.862L565.16 124.259ZM568.927 117.743L563.276 121.02L492.904 161.623L487.254 164.9L492.904 168.177L563.276 208.781L568.927 212.058V117.705V117.743Z" fill="#00B795"/>
<path d="M484.277 183.093L554.649 223.696L484.277 264.3V183.093ZM480.51 176.577V270.854L486.161 267.577L556.533 226.973L562.184 223.696L556.533 220.42L486.161 179.816L480.51 176.539V176.577Z" fill="#00B795"/>
<path d="M462.164 302.605V380.272L394.881 341.439L462.164 302.605ZM465.931 296.089L460.28 299.366L392.998 338.2L387.347 341.476L392.998 344.753L460.28 383.587L465.931 386.864V296.165V296.089Z" fill="#00B795"/>
<path d="M397.179 385.432L422.909 400.273L397.179 415.113V385.432ZM393.412 378.916V421.667L399.063 418.39L424.793 403.549L430.444 400.273L424.793 396.996L399.063 382.155L393.412 378.878V378.916Z" fill="#00B795"/>
<path d="M352.424 492.629V543.402L308.461 518.016L352.424 492.629ZM356.192 486.113L350.541 489.39L306.577 514.776L300.926 518.053L306.577 521.33L350.541 546.717L356.192 549.994V486.188V486.113Z" fill="#00B795"/>
<path d="M290.529 553.911L330.311 576.887L290.529 599.863V553.911ZM286.762 547.395V606.379L292.412 603.102L332.194 580.126L337.845 576.849L332.194 573.572L292.412 550.596L286.762 547.319V547.395Z" fill="#00B795"/>
<path d="M249.353 671.126V718.02L208.742 694.592L249.353 671.164M253.12 664.648L247.469 667.925L206.859 691.353L201.208 694.63L206.859 697.907L247.469 721.335L253.12 724.612V664.686V664.648Z" fill="#00B795"/>
<path d="M184.594 723.594L236.318 753.463L184.594 783.332V723.594ZM180.827 717.078V789.848L186.478 786.571L238.202 756.702L243.853 753.426L238.202 750.149L186.478 720.28L180.827 717.003V717.078Z" fill="#00B795"/>
<path d="M561.054 13.6348V80.6043L503.038 47.1196L561.054 13.6348ZM564.821 7.11865L559.17 10.3956L501.155 43.8803L495.504 47.1572L501.155 50.4341L559.17 83.9189L564.821 87.1958V7.11865Z" fill="#00B795"/>
<path d="M484.277 65.3873L554.649 105.991L484.277 146.594V65.3873ZM480.51 58.8712V153.148L486.161 149.871L556.533 109.268L562.184 105.991L556.533 102.714L486.161 62.1104L480.51 58.8335V58.8712Z" fill="#00B795"/>
<path d="M463.219 183.093V264.3L392.847 223.696L463.219 183.093ZM466.986 176.577L461.335 179.854L390.963 220.457L385.312 223.734L390.963 227.011L461.335 267.615L466.986 270.891V176.614V176.577Z" fill="#00B795"/>
<path d="M382.298 241.964L452.67 282.568L382.298 323.171V241.964ZM378.531 235.448V329.725L384.182 326.448L454.554 285.844L460.205 282.568L454.554 279.291L384.182 238.687L378.531 235.41V235.448Z" fill="#00B795"/>
<path d="M347.866 382.833V417.75L317.615 400.31L347.866 382.871M351.633 376.355L345.982 379.632L315.732 397.071L310.081 400.348L315.732 403.625L345.982 421.064L351.633 424.341V376.393V376.355Z" fill="#00B795"/>
<path d="M296.669 446.79L318.067 459.144L296.669 471.498V446.79ZM292.902 440.274V478.052L298.553 474.775L319.951 462.421L325.602 459.144L319.951 455.867L298.553 443.513L292.902 440.236V440.274Z" fill="#00B795"/>
<path d="M254.25 544.946V608.79L198.947 576.887L254.25 544.984M258.018 538.468L252.367 541.745L197.064 573.647L191.413 576.924L197.064 580.201L252.367 612.104L258.018 615.381V538.505V538.468Z" fill="#00B795"/>
<path d="M180.639 599.072L244.154 635.758L180.639 672.445V599.11M176.871 592.593V678.961L182.522 675.684L246.038 638.997L251.689 635.721L246.038 632.444L182.522 595.757L176.871 592.48V592.593Z" fill="#00B795"/>
<path d="M154.419 717.87V789.058L92.7492 753.464L154.419 717.87ZM158.186 711.354L152.535 714.63L90.8656 750.224L85.2147 753.501L90.8656 756.778L152.535 792.372L158.186 795.649V711.391V711.354Z" fill="#00B795"/>
<path d="M97.6842 808.493L104.277 812.297L97.6842 816.101V808.493ZM93.917 801.977V822.617L99.5678 819.341L106.16 815.536L111.811 812.259L106.16 808.983L99.5678 805.178L93.917 801.901V801.977Z" fill="#00B795"/>
<path d="M463.219 65.3877V146.595L392.847 105.991L463.219 65.3877ZM466.986 58.8716L461.335 62.1485L390.963 102.752L385.312 106.029L390.963 109.306L461.335 149.909L466.986 153.186V58.8716Z" fill="#00B795"/>
<path d="M382.298 124.259L452.67 164.862L382.298 205.466V124.259ZM378.531 117.743V212.02L384.182 208.743L454.554 168.139L460.205 164.862L454.554 161.586L384.182 120.982L378.531 117.705V117.743Z" fill="#00B795"/>
<path d="M361.24 241.964V323.171L290.868 282.567L361.24 241.964ZM365.007 235.448L359.356 238.725L288.984 279.328L283.333 282.605L288.984 285.882L359.356 326.486L365.007 329.763V235.485V235.448Z" fill="#00B795"/>
<path d="M280.357 300.836L350.729 341.439L280.357 382.043V300.836ZM276.59 294.319V388.596L282.241 385.32L352.613 344.716L358.264 341.439L352.613 338.162L282.241 297.559L276.59 294.282V294.319Z" fill="#00B795"/>
<path d="M255.456 425.132V493.156L196.536 459.144L255.456 425.132ZM259.223 418.616L253.572 421.893L194.653 455.905L189.002 459.182L194.653 462.459L253.572 496.471L259.223 499.747V418.691V418.616Z" fill="#00B795"/>
<path d="M180.978 481.894L243.589 518.016L180.978 554.137V481.857M177.21 475.34V560.653L182.861 557.376L245.473 521.255L251.124 517.978L245.473 514.701L182.861 478.58L177.21 475.303V475.34Z" fill="#00B795"/>
<path d="M154.72 599.599V671.879L92.1088 635.758L154.72 599.637M158.487 593.121L152.837 596.397L90.2252 632.519L84.5743 635.796L90.2252 639.073L152.837 675.194L158.487 678.471V593.158V593.121Z" fill="#00B795"/>
<path d="M79.6016 659.525L140.367 694.592L79.6016 729.658V659.525ZM75.8344 653.009V736.175L81.4852 732.898L142.251 697.831L147.901 694.554L142.251 691.277L81.4852 656.21L75.8344 652.934V653.009Z" fill="#00B795"/>
<path d="M38.3505 801.148V823.484L19.0246 812.335L38.3505 801.186M42.1177 794.669L36.4669 797.946L17.141 809.095L11.4901 812.372L17.141 815.649L36.4669 826.798L42.1177 830.075V794.707V794.669Z" fill="#00B795"/>
<path d="M400.193 37.5148L416.844 47.1195L400.193 56.7242V37.5148ZM396.426 30.9986V63.2781L402.077 60.0011L418.728 50.3964L424.379 47.1195L418.728 43.8426L402.077 34.2378L396.426 30.9609V30.9986Z" fill="#00B795"/>
<path d="M361.24 124.259V205.466L290.868 164.862L361.24 124.259ZM365.007 117.743L359.356 121.02L288.984 161.623L283.333 164.9L288.984 168.177L359.356 208.781L365.007 212.058V117.705V117.743Z" fill="#00B795"/>
<path d="M280.357 183.093L350.729 223.696L280.357 264.3V183.093ZM276.59 176.577V270.854L282.241 267.577L352.613 226.973L358.264 223.696L352.613 220.42L282.241 179.816L276.59 176.539V176.577Z" fill="#00B795"/>
<path d="M259.261 300.836V382.043L188.889 341.439L259.261 300.836ZM263.028 294.319L257.377 297.596L187.005 338.2L181.354 341.477L187.005 344.754L257.377 385.357L263.028 388.634V294.357V294.319Z" fill="#00B795"/>
<path d="M178.378 359.669L248.75 400.273L178.378 440.876V359.669ZM174.611 353.153V447.43L180.262 444.153L250.634 403.55L256.285 400.273L250.634 396.996L180.262 356.392L174.611 353.115V353.153Z" fill="#00B795"/>
<path d="M153.176 484.531V551.5L95.1602 518.016L153.176 484.531ZM156.943 478.015L151.292 481.292L93.2766 514.776L87.6257 518.053L93.2766 521.33L151.292 554.815L156.943 558.092V478.09V478.015Z" fill="#00B795"/>
<path d="M85.4784 551.99L128.613 576.887L85.4784 601.784V551.99ZM81.7112 545.474V608.3L87.362 605.023L130.497 580.126L136.148 576.849L130.497 573.572L87.362 548.675L81.7112 545.398V545.474Z" fill="#00B795"/>
<path d="M341.876 40.0761V54.2008L329.67 47.1573L341.876 40.1138M345.643 33.5977L339.993 36.8746L327.787 43.918L322.136 47.195L327.787 50.4719L339.993 57.5153L345.643 60.7922V33.6353V33.5977Z" fill="#00B795"/>
<path d="M280.357 65.3873L350.729 105.991L280.357 146.594V65.3873ZM276.59 58.8712V153.148L282.241 149.871L352.613 109.268L358.264 105.991L352.613 102.714L282.241 62.1104L276.59 58.8335V58.8712Z" fill="#00B795"/>
<path d="M259.261 183.093V264.3L188.889 223.696L259.261 183.093ZM263.028 176.577L257.377 179.854L187.005 220.457L181.354 223.734L187.005 227.011L257.377 267.615L263.028 270.891V176.614V176.577Z" fill="#00B795"/>
<path d="M178.378 241.964L248.75 282.568L178.378 323.171V241.964ZM174.611 235.448V329.725L180.262 326.448L250.634 285.844L256.285 282.568L250.634 279.291L180.262 238.687L174.611 235.41V235.448Z" fill="#00B795"/>
<path d="M157.32 359.669V440.876L86.9477 400.273L157.32 359.669ZM161.087 353.153L155.436 356.43L85.0641 397.033L79.4132 400.31L85.0641 403.587L155.436 444.191L161.087 447.468V353.19V353.153Z" fill="#00B795"/>
<path d="M76.3994 418.541L146.771 459.144L76.3994 499.748V418.541ZM72.6322 412.024V506.302L78.283 503.025L148.655 462.421L154.306 459.144L148.655 455.867L78.283 415.264L72.6322 411.987V412.024Z" fill="#00B795"/>
<path d="M44.0766 555.794V597.979L7.53446 576.887L44.0766 555.794ZM47.8438 549.278L42.193 552.555L5.65085 573.648L0 576.924L5.65085 580.201L42.193 601.294L47.8438 604.571V549.353V549.278Z" fill="#00B795"/>
<path d="M259.261 65.3877V146.595L188.889 105.991L259.261 65.3877ZM263.028 58.8716L257.377 62.1485L187.005 102.752L181.354 106.029L187.005 109.306L257.377 149.909L263.028 153.186V58.8716Z" fill="#00B795"/>
<path d="M178.378 124.259L248.75 164.862L178.378 205.466V124.259ZM174.611 117.743V212.02L180.262 208.743L250.634 168.139L256.285 164.862L250.634 161.586L180.262 120.982L174.611 117.705V117.743Z" fill="#00B795"/>
<path d="M157.32 241.964V323.171L86.9477 282.567L157.32 241.964ZM161.087 235.448L155.436 238.725L85.0641 279.328L79.4132 282.605L85.0641 285.882L155.436 326.486L161.087 329.763V235.485V235.448Z" fill="#00B795"/>
<path d="M76.3994 300.836L146.771 341.439L76.3994 382.043V300.836ZM72.6322 294.319V388.596L78.283 385.32L148.655 344.716L154.306 341.439L148.655 338.162L78.283 297.559L72.6322 294.282V294.319Z" fill="#00B795"/>
<path d="M195.821 36.7618L213.79 47.1575L195.821 57.5533V36.7995M192.053 30.2833V64.1071L197.704 60.8302L215.674 50.4345L221.325 47.1575L215.674 43.8806L197.704 33.4849L192.053 30.208V30.2833Z" fill="#00B795"/>
<path d="M157.32 124.259V205.466L86.9477 164.862L157.32 124.259ZM161.087 117.743L155.436 121.02L85.0641 161.623L79.4132 164.9L85.0641 168.177L155.436 208.781L161.087 212.058V117.705V117.743Z" fill="#00B795"/>
<path d="M76.3994 183.093L146.771 223.696L76.3994 264.3V183.093ZM72.6322 176.577V270.854L78.283 267.577L148.655 226.973L154.306 223.696L148.655 220.42L78.283 179.816L72.6322 176.539V176.577Z" fill="#00B795"/>
<path d="M142.929 31.4131V62.8263L115.729 47.1197L142.929 31.4131ZM146.696 24.897L141.045 28.1739L113.846 43.8805L108.195 47.1574L113.846 50.4343L141.045 66.1408L146.696 69.4178V24.897Z" fill="#00B795"/>
<path d="M76.3994 65.3873L146.771 105.991L76.3994 146.594V65.3873ZM72.6322 58.8712V153.148L78.283 149.871L148.655 109.268L154.306 105.991L148.655 102.714L78.283 62.1104L72.6322 58.8335V58.8712Z" fill="#00B795"/>
</svg>
