<svg width="39" height="38" viewBox="0 0 39 38" fill="none" xmlns="http://www.w3.org/2000/svg">
<g clip-path="url(#clip0_219_6307)">
<rect x="-5" y="-6" width="50" height="50" fill="var(--ink)"/>
<path d="M8.68018 18.9995L13.4554 29.1183L19.6364 18.9995H8.68018Z" stroke="#00B795" stroke-linecap="round" stroke-linejoin="round"/>
<path d="M19.6361 18.9995L13.4551 29.1183H25.8177L19.6361 18.9995Z" stroke="#00B795" stroke-linecap="round" stroke-linejoin="round"/>
<path d="M19.6361 34.8631L13.4551 29.1182H25.8177L19.6361 34.8631Z" stroke="#00B795" stroke-linecap="round" stroke-linejoin="round"/>
<path d="M19.6364 18.9996L13.4554 8.88135L8.68018 18.9996H19.6364Z" stroke="#00B795" stroke-linecap="round" stroke-linejoin="round"/>
<path d="M13.4551 8.88135L19.6361 18.9996L25.8177 8.88162L13.4551 8.88135Z" stroke="#00B795" stroke-linecap="round" stroke-linejoin="round"/>
<path d="M25.8178 29.1183L30.5933 18.9995H19.6362L25.8178 29.1183Z" stroke="#00B795" stroke-linecap="round" stroke-linejoin="round"/>
<path d="M32.7121 27.7712L35.1383 18.9998L30.5933 18.9995L32.7121 27.7712Z" stroke="#00B795" stroke-linecap="round" stroke-linejoin="round"/>
<path d="M30.5933 18.9995L32.7122 27.7712L25.8179 29.1183L30.5933 18.9995Z" stroke="#00B795" stroke-linecap="round" stroke-linejoin="round"/>
<path d="M27.8378 32.7299L32.7122 27.771L25.8179 29.1181L27.8378 32.7299Z" stroke="#00B795" stroke-linecap="round" stroke-linejoin="round"/>
<path d="M19.6362 18.9993H30.5933L25.8178 8.88135L19.6362 18.9993Z" stroke="#00B795" stroke-linecap="round" stroke-linejoin="round"/>
<path d="M19.6362 34.8631L25.8178 29.1182L27.8377 32.73L19.6362 34.8631Z" stroke="#00B795" stroke-linecap="round" stroke-linejoin="round"/>
<path d="M6.56045 27.7712L4.13428 18.9998L8.67932 18.9995L6.56045 27.7712Z" stroke="#00B795" stroke-linecap="round" stroke-linejoin="round"/>
<path d="M8.67942 18.9995L6.56055 27.7712L13.4549 29.1183L8.67942 18.9995Z" stroke="#00B795" stroke-linecap="round" stroke-linejoin="round"/>
<path d="M11.4349 32.7299L6.56055 27.771L13.4549 29.1181L11.4349 32.7299Z" stroke="#00B795" stroke-linecap="round" stroke-linejoin="round"/>
<path d="M19.6363 34.8631L13.455 29.1182L11.4351 32.73L19.6363 34.8631Z" stroke="#00B795" stroke-linecap="round" stroke-linejoin="round"/>
<path d="M19.6361 3.13672L13.4551 8.8817H25.8177L19.6361 3.13672Z" stroke="#00B795" stroke-linecap="round" stroke-linejoin="round"/>
<path d="M32.7121 10.229L35.1383 19.0002L30.5933 19.0005L32.7121 10.229Z" stroke="#00B795" stroke-linecap="round" stroke-linejoin="round"/>
<path d="M30.5933 19.0006L32.7122 10.2292L25.8179 8.88184L30.5933 19.0006Z" stroke="#00B795" stroke-linecap="round" stroke-linejoin="round"/>
<path d="M27.8378 5.27002L32.7122 10.2292L25.8179 8.88183L27.8378 5.27002Z" stroke="#00B795" stroke-linecap="round" stroke-linejoin="round"/>
<path d="M19.6362 3.13672L25.8178 8.8817L27.8377 5.26989L19.6362 3.13672Z" stroke="#00B795" stroke-linecap="round" stroke-linejoin="round"/>
<path d="M6.56045 10.229L4.13428 19.0002L8.67932 19.0005L6.56045 10.229Z" stroke="#00B795" stroke-linecap="round" stroke-linejoin="round"/>
<path d="M8.67942 19.0006L6.56055 10.2292L13.4549 8.88184L8.67942 19.0006Z" stroke="#00B795" stroke-linecap="round" stroke-linejoin="round"/>
<path d="M11.4349 5.27002L6.56055 10.2292L13.4549 8.88183L11.4349 5.27002Z" stroke="#00B795" stroke-linecap="round" stroke-linejoin="round"/>
<path d="M19.6363 3.13672L13.455 8.8817L11.4351 5.26989L19.6363 3.13672Z" stroke="#00B795" stroke-linecap="round" stroke-linejoin="round"/>
</g>
<defs>
<clipPath id="clip0_219_6307">
<rect width="39" height="38" fill="white"/>
</clipPath>
</defs>
</svg>
