<svg width="124" height="38" viewBox="0 0 124 38" fill="none" xmlns="http://www.w3.org/2000/svg">
<path d="M13.6515 26.5V24.18H15.7515V26.5H13.6515ZM7.89151 31.46C6.73151 31.46 5.69151 31.2467 4.77151 30.82C3.86485 30.4067 3.15151 29.8267 2.63151 29.08C2.11151 28.3333 1.85151 27.4867 1.85151 26.54C1.85151 26.2733 1.87151 25.92 1.91151 25.48C1.95151 25.04 2.00485 24.5467 2.07151 24C2.15151 23.4533 2.23151 22.9 2.31151 22.34C2.40485 21.7667 2.49151 21.2133 2.57151 20.68L5.21151 21.04C5.06485 21.9333 4.93818 22.7533 4.83151 23.5C4.73818 24.2333 4.66485 24.86 4.61151 25.38C4.55818 25.9 4.53151 26.28 4.53151 26.52C4.53151 27.0533 4.66485 27.5133 4.93151 27.9C5.19818 28.2867 5.57818 28.5867 6.07151 28.8C6.57818 29.0267 7.18485 29.14 7.89151 29.14C8.62485 29.14 9.21818 29.0333 9.67151 28.82C10.1248 28.6067 10.4515 28.3133 10.6515 27.94C10.8648 27.5667 10.9715 27.1467 10.9715 26.68V12.36H13.6515V26.68C13.6515 27.64 13.3982 28.48 12.8915 29.2C12.3982 29.92 11.7182 30.4733 10.8515 30.86C9.98485 31.26 8.99818 31.46 7.89151 31.46ZM15.7515 26.5V24.18C15.9115 24.18 16.0182 24.2867 16.0715 24.5C16.1248 24.7 16.1515 24.98 16.1515 25.34C16.1515 25.6867 16.1248 25.9667 16.0715 26.18C16.0182 26.3933 15.9115 26.5 15.7515 26.5ZM20.5385 26.5V24.18H22.6385V26.5H20.5385ZM15.7585 26.5V24.18H19.4185L17.8585 25.48V16.46H20.5385V26.5H15.7585ZM15.7585 26.5C15.5985 26.5 15.4919 26.3933 15.4385 26.18C15.3852 25.9667 15.3585 25.6867 15.3585 25.34C15.3585 24.98 15.3852 24.7 15.4385 24.5C15.4919 24.2867 15.5985 24.18 15.7585 24.18V26.5ZM22.6385 26.5V24.18C22.7985 24.18 22.9052 24.2867 22.9585 24.5C23.0119 24.7 23.0385 24.98 23.0385 25.34C23.0385 25.6867 23.0119 25.9667 22.9585 26.18C22.9052 26.3933 22.7985 26.5 22.6385 26.5ZM17.8585 30.76V28.48H20.5385V30.76H17.8585ZM33.8335 26.5V24.18H35.9335V26.5H33.8335ZM22.6335 26.5V24.18H31.9735L31.1535 24.88V18.2L31.8335 18.78H29.3135C28.7269 18.78 28.2669 18.8533 27.9335 19C27.6002 19.1467 27.3669 19.42 27.2335 19.82C27.1002 20.2067 27.0335 20.76 27.0335 21.48C27.0335 22.2667 27.1002 22.8533 27.2335 23.24C27.3669 23.6133 27.6002 23.8667 27.9335 24C28.2669 24.12 28.7269 24.18 29.3135 24.18V26.26C28.1802 26.26 27.2469 26.1 26.5135 25.78C25.7802 25.46 25.2335 24.9533 24.8735 24.26C24.5269 23.5533 24.3535 22.6267 24.3535 21.48C24.3535 20.3867 24.5269 19.4667 24.8735 18.72C25.2335 17.9733 25.7802 17.4133 26.5135 17.04C27.2469 16.6533 28.1802 16.46 29.3135 16.46H33.8335V26.5H22.6335ZM22.6335 26.5C22.4735 26.5 22.3669 26.3933 22.3135 26.18C22.2602 25.9667 22.2335 25.6867 22.2335 25.34C22.2335 24.98 22.2602 24.7 22.3135 24.5C22.3669 24.2867 22.4735 24.18 22.6335 24.18V26.5ZM35.9335 26.5V24.18C36.0935 24.18 36.2002 24.2867 36.2535 24.5C36.3069 24.7 36.3335 24.98 36.3335 25.34C36.3335 25.6867 36.3069 25.9667 36.2535 26.18C36.2002 26.3933 36.0935 26.5 35.9335 26.5ZM27.2735 15.26V12.98H29.9535V15.26H27.2735ZM30.0135 15.26V12.98H32.6935V15.26H30.0135ZM41.7743 26.5V24.18H44.2743V26.5H41.7743ZM44.2743 26.5V24.18C44.4343 24.18 44.541 24.2867 44.5943 24.5C44.6477 24.7 44.6743 24.98 44.6743 25.34C44.6743 25.6867 44.6477 25.9667 44.5943 26.18C44.541 26.3933 44.4343 26.5 44.2743 26.5ZM35.9343 26.5V24.18H40.6743L39.1143 25.48V16.46H41.7743V26.5H35.9343ZM35.9343 26.5C35.7743 26.5 35.6677 26.3933 35.6143 26.18C35.561 25.9667 35.5343 25.6867 35.5343 25.34C35.5343 24.98 35.561 24.7 35.6143 24.5C35.6677 24.2867 35.7743 24.18 35.9343 24.18V26.5ZM36.7343 15.26V12.98H39.4143V15.26H36.7343ZM39.4743 15.26V12.98H42.1543V15.26H39.4743ZM61.0542 26.5V24.18H63.1742V26.5H61.0542ZM56.0342 26.5C55.4875 26.5 54.9408 26.4 54.3942 26.2C53.8608 25.9867 53.3675 25.6733 52.9142 25.26L54.5542 23.56C54.8208 23.7733 55.0675 23.9333 55.2942 24.04C55.5342 24.1333 55.7808 24.18 56.0342 24.18H59.7742L58.3942 25.44V21C58.3942 20.7867 58.3675 20.4667 58.3142 20.04C58.2742 19.6 58.2075 19.1067 58.1142 18.56C58.0342 18 57.9342 17.4333 57.8142 16.86L60.4542 16.46C60.5475 16.94 60.6342 17.48 60.7142 18.08C60.8075 18.6667 60.8875 19.2267 60.9542 19.76C61.0208 20.28 61.0542 20.6933 61.0542 21V26.5H56.0342ZM44.2742 26.5V24.18H47.1942L46.5942 24.8V18.5H49.2742V26.5H44.2742ZM49.2742 26.5V24.18H50.8942C51.3208 24.18 51.6475 24.12 51.8742 24C52.1008 23.8667 52.2542 23.6067 52.3342 23.22C52.4275 22.82 52.4742 22.2267 52.4742 21.44V17.5H55.1542V21.44C55.1542 22.6267 55.0008 23.5933 54.6942 24.34C54.4008 25.0867 53.9408 25.6333 53.3142 25.98C52.6875 26.3267 51.8808 26.5 50.8942 26.5H49.2742ZM44.2742 26.5C44.1142 26.5 44.0075 26.3933 43.9542 26.18C43.9008 25.9667 43.8742 25.6867 43.8742 25.34C43.8742 24.98 43.9008 24.7 43.9542 24.5C44.0075 24.2867 44.1142 24.18 44.2742 24.18V26.5ZM63.1742 26.5V24.18C63.3342 24.18 63.4408 24.2867 63.4942 24.5C63.5475 24.7 63.5742 24.98 63.5742 25.34C63.5742 25.6867 63.5475 25.9667 63.4942 26.18C63.4408 26.3933 63.3342 26.5 63.1742 26.5ZM63.1804 26.5V24.18H73.5604L72.3404 25.22V21.54C72.3404 20.82 72.2604 20.26 72.1004 19.86C71.9404 19.4467 71.6604 19.16 71.2604 19C70.8738 18.8267 70.3338 18.74 69.6404 18.74C69.0938 18.74 68.5538 18.78 68.0204 18.86C67.5004 18.9267 67.0938 19.02 66.8004 19.14L68.4604 17.58C68.3804 17.8867 68.3004 18.2733 68.2204 18.74C68.1538 19.2067 68.0938 19.7067 68.0404 20.24C67.9871 20.76 67.9604 21.2733 67.9604 21.78C67.9604 22.2467 67.9804 22.7333 68.0204 23.24C68.0738 23.7467 68.1271 24.1933 68.1804 24.58C68.2471 24.9667 68.3004 25.2333 68.3404 25.38L65.8004 26.08C65.7471 25.8933 65.6804 25.5867 65.6004 25.16C65.5204 24.7333 65.4471 24.2267 65.3804 23.64C65.3271 23.0533 65.3004 22.4333 65.3004 21.78C65.3004 21.1133 65.3338 20.4733 65.4004 19.86C65.4671 19.2333 65.5404 18.6733 65.6204 18.18C65.7138 17.6733 65.8004 17.2667 65.8804 16.96C66.2004 16.84 66.7004 16.72 67.3804 16.6C68.0604 16.48 68.8138 16.42 69.6404 16.42C70.8404 16.42 71.8338 16.5867 72.6204 16.92C73.4204 17.2533 74.0138 17.7933 74.4004 18.54C74.8004 19.2867 75.0004 20.2933 75.0004 21.56V26.5H63.1804ZM63.1804 26.5C63.0204 26.5 62.9138 26.3933 62.8604 26.18C62.8071 25.9667 62.7804 25.6867 62.7804 25.34C62.7804 24.98 62.8071 24.7 62.8604 24.5C62.9138 24.2867 63.0204 24.18 63.1804 24.18V26.5Z" fill="white"/>
<g clip-path="url(#clip0_27_1280)">
<path d="M97.4072 18.9995L102.182 29.1183L108.363 18.9995H97.4072Z" stroke="#00B795" stroke-linecap="round" stroke-linejoin="round"/>
<path d="M108.363 18.9995L102.182 29.1183H114.545L108.363 18.9995Z" stroke="#00B795" stroke-linecap="round" stroke-linejoin="round"/>
<path d="M108.363 34.8631L102.182 29.1182H114.545L108.363 34.8631Z" stroke="#00B795" stroke-linecap="round" stroke-linejoin="round"/>
<path d="M108.363 18.9996L102.182 8.88135L97.4072 18.9996H108.363Z" stroke="#00B795" stroke-linecap="round" stroke-linejoin="round"/>
<path d="M102.182 8.88135L108.363 18.9996L114.545 8.88162L102.182 8.88135Z" stroke="#00B795" stroke-linecap="round" stroke-linejoin="round"/>
<path d="M114.545 29.1183L119.321 18.9995H108.364L114.545 29.1183Z" stroke="#00B795" stroke-linecap="round" stroke-linejoin="round"/>
<path d="M121.439 27.7712L123.866 18.9998L119.321 18.9995L121.439 27.7712Z" stroke="#00B795" stroke-linecap="round" stroke-linejoin="round"/>
<path d="M119.321 18.9995L121.439 27.7712L114.545 29.1183L119.321 18.9995Z" stroke="#00B795" stroke-linecap="round" stroke-linejoin="round"/>
<path d="M116.565 32.7299L121.439 27.771L114.545 29.1181L116.565 32.7299Z" stroke="#00B795" stroke-linecap="round" stroke-linejoin="round"/>
<path d="M108.364 18.9993H119.321L114.545 8.88135L108.364 18.9993Z" stroke="#00B795" stroke-linecap="round" stroke-linejoin="round"/>
<path d="M108.364 34.8631L114.545 29.1182L116.565 32.73L108.364 34.8631Z" stroke="#00B795" stroke-linecap="round" stroke-linejoin="round"/>
<path d="M95.288 27.7712L92.8618 18.9998L97.4069 18.9995L95.288 27.7712Z" stroke="#00B795" stroke-linecap="round" stroke-linejoin="round"/>
<path d="M97.4067 18.9995L95.2878 27.7712L102.182 29.1183L97.4067 18.9995Z" stroke="#00B795" stroke-linecap="round" stroke-linejoin="round"/>
<path d="M100.162 32.7299L95.2878 27.771L102.182 29.1181L100.162 32.7299Z" stroke="#00B795" stroke-linecap="round" stroke-linejoin="round"/>
<path d="M108.364 34.8631L102.182 29.1182L100.162 32.73L108.364 34.8631Z" stroke="#00B795" stroke-linecap="round" stroke-linejoin="round"/>
<path d="M108.363 3.13672L102.182 8.8817H114.545L108.363 3.13672Z" stroke="#00B795" stroke-linecap="round" stroke-linejoin="round"/>
<path d="M121.439 10.229L123.866 19.0002L119.321 19.0005L121.439 10.229Z" stroke="#00B795" stroke-linecap="round" stroke-linejoin="round"/>
<path d="M119.321 19.0006L121.439 10.2292L114.545 8.88184L119.321 19.0006Z" stroke="#00B795" stroke-linecap="round" stroke-linejoin="round"/>
<path d="M116.565 5.27002L121.439 10.2292L114.545 8.88183L116.565 5.27002Z" stroke="#00B795" stroke-linecap="round" stroke-linejoin="round"/>
<path d="M108.364 3.13672L114.545 8.8817L116.565 5.26989L108.364 3.13672Z" stroke="#00B795" stroke-linecap="round" stroke-linejoin="round"/>
<path d="M95.288 10.229L92.8618 19.0002L97.4069 19.0005L95.288 10.229Z" stroke="#00B795" stroke-linecap="round" stroke-linejoin="round"/>
<path d="M97.4067 19.0006L95.2878 10.2292L102.182 8.88184L97.4067 19.0006Z" stroke="#00B795" stroke-linecap="round" stroke-linejoin="round"/>
<path d="M100.162 5.27002L95.2878 10.2292L102.182 8.88183L100.162 5.27002Z" stroke="#00B795" stroke-linecap="round" stroke-linejoin="round"/>
<path d="M108.364 3.13672L102.182 8.8817L100.162 5.26989L108.364 3.13672Z" stroke="#00B795" stroke-linecap="round" stroke-linejoin="round"/>
</g>
<defs>
<clipPath id="clip0_27_1280">
<rect width="31.2727" height="32" fill="white" transform="translate(92.7273 3)"/>
</clipPath>
</defs>
</svg>
