<svg width="167" height="48" viewBox="0 0 167 48" fill="none" xmlns="http://www.w3.org/2000/svg">
<path d="M160 48H6.15385C2.77077 48 0 45.2985 0 42V6C0 2.7015 2.77077 2.86102e-06 6.15385 2.86102e-06H160C163.383 2.86102e-06 166.154 2.7015 166.154 6V42C166.154 45.2985 163.383 48 160 48Z" fill="white"/>
<path d="M160 0.961502C162.849 0.961502 165.168 3.222 165.168 6V42C165.168 44.778 162.849 47.0385 160 47.0385H6.15385C3.30461 47.0385 0.986153 44.778 0.986153 42V6C0.986153 3.222 3.30461 0.961502 6.15385 0.961502H160ZM160 2.86102e-06H6.15385C2.77077 2.86102e-06 0 2.7015 0 6V42C0 45.2985 2.77077 48 6.15385 48H160C163.383 48 166.154 45.2985 166.154 42V6C166.154 2.7015 163.383 2.86102e-06 160 2.86102e-06Z" fill="#A6A6A6"/>
<path d="M12.8431 9.04652C12.4816 9.41552 12.2723 9.99002 12.2723 10.734V37.272C12.2723 38.016 12.4816 38.5905 12.8431 38.9595L12.9323 39.0405L28.1846 24.1755V23.8245L12.9323 8.95952L12.8431 9.04652Z" fill="url(#paint0_linear_1_307)"/>
<path d="M33.263 29.1331L28.1846 24.1756V23.8246L33.2692 18.8671L33.383 18.9316L39.4046 22.2721C41.123 23.2201 41.123 24.7801 39.4046 25.7341L33.383 29.0686L33.263 29.1331Z" fill="url(#paint1_linear_1_307)"/>
<path d="M33.3831 29.0685L28.1847 24L12.8431 38.9595C13.4139 39.5445 14.3447 39.615 15.4031 39.03L33.3831 29.0685Z" fill="url(#paint2_linear_1_307)"/>
<path d="M33.3831 18.9315L15.4031 8.97C14.3447 8.391 13.4139 8.4615 12.8431 9.0465L28.1847 24L33.3831 18.9315Z" fill="url(#paint3_linear_1_307)"/>
<path d="M58.36 12.2925C58.36 13.2945 58.0523 14.097 57.4462 14.6955C56.7492 15.405 55.8415 15.762 54.7292 15.762C53.6662 15.762 52.7585 15.399 52.0138 14.6835C51.2677 13.9575 50.8954 13.0665 50.8954 12C50.8954 10.9335 51.2677 10.0425 52.0138 9.32254C52.7585 8.60104 53.6662 8.23804 54.7292 8.23804C55.2585 8.23804 55.7631 8.34454 56.2446 8.54254C56.7246 8.74204 57.1154 9.01204 57.3985 9.34504L56.7554 9.97804C56.2615 9.40954 55.5892 9.12904 54.7292 9.12904C53.9538 9.12904 53.2815 9.39304 52.7108 9.92554C52.1462 10.4595 51.8631 11.151 51.8631 12C51.8631 12.849 52.1462 13.5465 52.7108 14.0805C53.2815 14.607 53.9538 14.877 54.7292 14.877C55.5523 14.877 56.2446 14.607 56.7908 14.0745C57.1508 13.722 57.3554 13.236 57.4092 12.615H54.7292V11.748H58.3046C58.3477 11.9355 58.36 12.117 58.36 12.2925Z" fill="black" stroke="black" stroke-width="0.16" stroke-miterlimit="10"/>
<path d="M64.0323 9.28658H60.6738V11.5666H63.7015V12.4336H60.6738V14.7136H64.0323V15.5971H59.723V8.40308H64.0323V9.28658Z" fill="black" stroke="black" stroke-width="0.16" stroke-miterlimit="10"/>
<path d="M68.0353 15.5971H67.0845V9.28658H65.0245V8.40308H70.0968V9.28658H68.0353V15.5971Z" fill="black" stroke="black" stroke-width="0.16" stroke-miterlimit="10"/>
<path d="M73.7677 15.5971V8.40308H74.7169V15.5971H73.7677Z" fill="black" stroke="black" stroke-width="0.16" stroke-miterlimit="10"/>
<path d="M78.9246 15.5971H77.9815V9.28658H75.9138V8.40308H80.9923V9.28658H78.9246V15.5971Z" fill="black" stroke="black" stroke-width="0.16" stroke-miterlimit="10"/>
<path d="M90.5954 14.6715C89.8677 15.399 88.9661 15.762 87.8907 15.762C86.8092 15.762 85.9077 15.399 85.18 14.6715C84.4538 13.9455 84.0923 13.0545 84.0923 12C84.0923 10.9455 84.4538 10.0545 85.18 9.32854C85.9077 8.60104 86.8092 8.23804 87.8907 8.23804C88.96 8.23804 89.8615 8.60104 90.5892 9.33454C91.3215 10.0665 91.6831 10.9515 91.6831 12C91.6831 13.0545 91.3215 13.9455 90.5954 14.6715ZM85.8831 14.0685C86.4307 14.607 87.0969 14.877 87.8907 14.877C88.6784 14.877 89.3507 14.607 89.8923 14.0685C90.4384 13.53 90.7154 12.8385 90.7154 12C90.7154 11.1615 90.4384 10.47 89.8923 9.93154C89.3507 9.39304 88.6784 9.12304 87.8907 9.12304C87.0969 9.12304 86.4307 9.39304 85.8831 9.93154C85.3369 10.47 85.06 11.1615 85.06 12C85.06 12.8385 85.3369 13.53 85.8831 14.0685Z" fill="black" stroke="black" stroke-width="0.16" stroke-miterlimit="10"/>
<path d="M93.017 15.5971V8.40308H94.1708L97.7585 13.9981H97.8L97.7585 12.6151V8.40308H98.7077V15.5971H97.717L93.96 9.72608H93.9185L93.96 11.1151V15.5971H93.017Z" fill="black" stroke="black" stroke-width="0.16" stroke-miterlimit="10"/>
<path d="M83.8584 26.1031C80.9676 26.1031 78.6061 28.2481 78.6061 31.2076C78.6061 34.1431 80.9676 36.3106 83.8584 36.3106C86.7553 36.3106 89.1169 34.1431 89.1169 31.2076C89.1169 28.2481 86.7553 26.1031 83.8584 26.1031ZM83.8584 34.3006C82.2723 34.3006 80.9077 33.0241 80.9077 31.2076C80.9077 29.3671 82.2723 28.1131 83.8584 28.1131C85.4446 28.1131 86.8153 29.3671 86.8153 31.2076C86.8153 33.0241 85.4446 34.3006 83.8584 34.3006ZM72.3984 26.1031C69.5015 26.1031 67.1461 28.2481 67.1461 31.2076C67.1461 34.1431 69.5015 36.3106 72.3984 36.3106C75.2938 36.3106 77.6507 34.1431 77.6507 31.2076C77.6507 28.2481 75.2938 26.1031 72.3984 26.1031ZM72.3984 34.3006C70.8107 34.3006 69.4415 33.0241 69.4415 31.2076C69.4415 29.3671 70.8107 28.1131 72.3984 28.1131C73.9846 28.1131 75.3492 29.3671 75.3492 31.2076C75.3492 33.0241 73.9846 34.3006 72.3984 34.3006ZM58.7615 27.6676V29.8366H64.0738C63.9184 31.0486 63.503 31.9396 62.8661 32.5606C62.0907 33.3106 60.883 34.1431 58.7615 34.1431C55.4923 34.1431 52.9323 31.5706 52.9323 28.3831C52.9323 25.1956 55.4923 22.6231 58.7615 22.6231C60.5292 22.6231 61.8154 23.2966 62.7646 24.1696L64.3323 22.6411C63.0046 21.4051 61.2384 20.4556 58.7615 20.4556C54.2784 20.4556 50.5107 24.0121 50.5107 28.3831C50.5107 32.7541 54.2784 36.3106 58.7615 36.3106C61.1846 36.3106 63.0046 35.5366 64.4353 34.0846C65.9015 32.6551 66.3584 30.6451 66.3584 29.0221C66.3584 28.5181 66.3154 28.0546 66.2384 27.6676H58.7615ZM114.525 29.3491C114.092 28.2076 112.758 26.1031 110.041 26.1031C107.349 26.1031 105.108 28.1716 105.108 31.2076C105.108 34.0666 107.326 36.3106 110.3 36.3106C112.705 36.3106 114.092 34.8811 114.663 34.0486L112.878 32.8891C112.283 33.7381 111.472 34.3006 110.3 34.3006C109.135 34.3006 108.3 33.7801 107.765 32.7541L114.766 29.9296L114.525 29.3491ZM107.386 31.0486C107.326 29.0806 108.954 28.0726 110.12 28.0726C111.034 28.0726 111.809 28.5181 112.068 29.1556L107.386 31.0486ZM101.695 36.0001H103.997V21.0001H101.695V36.0001ZM97.9261 27.2401H97.8492C97.3323 26.6431 96.3461 26.1031 95.0969 26.1031C92.4753 26.1031 90.0784 28.3471 90.0784 31.2241C90.0784 34.0846 92.4753 36.3106 95.0969 36.3106C96.3461 36.3106 97.3323 35.7661 97.8492 35.1511H97.9261V35.8831C97.9261 37.8346 96.8569 38.8831 95.1323 38.8831C93.7261 38.8831 92.8538 37.8931 92.4938 37.0606L90.4923 37.8751C91.0692 39.2281 92.5969 40.8931 95.1323 40.8931C97.8307 40.8931 100.108 39.3451 100.108 35.5786V26.4136H97.9261V27.2401ZM95.2938 34.3006C93.7076 34.3006 92.3799 33.0061 92.3799 31.2241C92.3799 29.4256 93.7076 28.1131 95.2938 28.1131C96.8569 28.1131 98.0892 29.4256 98.0892 31.2241C98.0892 33.0061 96.8569 34.3006 95.2938 34.3006ZM125.3 21.0001H119.795V36.0001H122.091V30.3166H125.3C127.849 30.3166 130.349 28.5181 130.349 25.6576C130.349 22.7986 127.843 21.0001 125.3 21.0001ZM125.36 28.2301H122.091V23.0866H125.36C127.074 23.0866 128.052 24.4741 128.052 25.6576C128.052 26.8186 127.074 28.2301 125.36 28.2301ZM139.549 26.0746C137.891 26.0746 136.166 26.7886 135.457 28.3711L137.494 29.2036C137.932 28.3711 138.738 28.1011 139.591 28.1011C140.781 28.1011 141.989 28.7986 142.008 30.0301V30.1876C141.592 29.9536 140.703 29.6071 139.609 29.6071C137.415 29.6071 135.18 30.7846 135.18 32.9821C135.18 34.9921 136.977 36.2866 138.997 36.2866C140.541 36.2866 141.394 35.6071 141.929 34.8166H142.008V35.9761H144.225V30.2221C144.225 27.5626 142.188 26.0746 139.549 26.0746ZM139.272 34.2946C138.521 34.2946 137.475 33.9316 137.475 33.0241C137.475 31.8631 138.78 31.4176 139.909 31.4176C140.92 31.4176 141.394 31.6351 142.008 31.9216C141.828 33.3106 140.601 34.2946 139.272 34.2946ZM152.301 26.4031L149.663 32.9056H149.585L146.857 26.4031H144.381L148.48 35.4901L146.141 40.5466H148.54L154.855 26.4031H152.301ZM131.611 36.0001H133.912V21.0001H131.611V36.0001Z" fill="black"/>
<defs>
<linearGradient id="paint0_linear_1_307" x1="26.8304" y1="37.5484" x2="6.69799" y2="16.8998" gradientUnits="userSpaceOnUse">
<stop stop-color="#00A0FF"/>
<stop offset="0.0066" stop-color="#00A1FF"/>
<stop offset="0.2601" stop-color="#00BEFF"/>
<stop offset="0.5122" stop-color="#00D2FF"/>
<stop offset="0.7604" stop-color="#00DFFF"/>
<stop offset="1" stop-color="#00E3FF"/>
</linearGradient>
<linearGradient id="paint1_linear_1_307" x1="41.6423" y1="23.9984" x2="11.8615" y2="23.9984" gradientUnits="userSpaceOnUse">
<stop stop-color="#FFE000"/>
<stop offset="0.4087" stop-color="#FFBD00"/>
<stop offset="0.7754" stop-color="#FFA500"/>
<stop offset="1" stop-color="#FF9C00"/>
</linearGradient>
<linearGradient id="paint2_linear_1_307" x1="30.5564" y1="21.2447" x2="3.25516" y2="-6.75658" gradientUnits="userSpaceOnUse">
<stop stop-color="#FF3A44"/>
<stop offset="1" stop-color="#C31162"/>
</linearGradient>
<linearGradient id="paint3_linear_1_307" x1="8.98136" y1="47.7886" x2="21.1726" y2="35.2849" gradientUnits="userSpaceOnUse">
<stop stop-color="#32A071"/>
<stop offset="0.0685" stop-color="#2DA771"/>
<stop offset="0.4762" stop-color="#15CF74"/>
<stop offset="0.8009" stop-color="#06E775"/>
<stop offset="1" stop-color="#00F076"/>
</linearGradient>
</defs>
</svg>
