<svg width="179" height="32" viewBox="0 0 179 32" fill="none" xmlns="http://www.w3.org/2000/svg">
<g clip-path="url(#clip0_1_997)">
<path d="M4.68005 15.9995L9.45524 26.1183L15.6363 15.9995H4.68005Z" stroke="#00B795" stroke-linecap="round" stroke-linejoin="round"/>
<path d="M15.6362 15.9995L9.4552 26.1183H21.8178L15.6362 15.9995Z" stroke="#00B795" stroke-linecap="round" stroke-linejoin="round"/>
<path d="M15.6362 31.8631L9.4552 26.1182H21.8178L15.6362 31.8631Z" stroke="#00B795" stroke-linecap="round" stroke-linejoin="round"/>
<path d="M15.6363 15.9996L9.45524 5.88135L4.68005 15.9996H15.6363Z" stroke="#00B795" stroke-linecap="round" stroke-linejoin="round"/>
<path d="M9.4552 5.88135L15.6362 15.9996L21.8178 5.88162L9.4552 5.88135Z" stroke="#00B795" stroke-linecap="round" stroke-linejoin="round"/>
<path d="M21.8178 26.1183L26.5933 15.9995H15.6362L21.8178 26.1183Z" stroke="#00B795" stroke-linecap="round" stroke-linejoin="round"/>
<path d="M28.7121 24.7712L31.1383 15.9998L26.5933 15.9995L28.7121 24.7712Z" stroke="#00B795" stroke-linecap="round" stroke-linejoin="round"/>
<path d="M26.5932 15.9995L28.7121 24.7712L21.8177 26.1183L26.5932 15.9995Z" stroke="#00B795" stroke-linecap="round" stroke-linejoin="round"/>
<path d="M23.8377 29.7299L28.7121 24.771L21.8177 26.1181L23.8377 29.7299Z" stroke="#00B795" stroke-linecap="round" stroke-linejoin="round"/>
<path d="M15.6362 15.9993H26.5933L21.8178 5.88135L15.6362 15.9993Z" stroke="#00B795" stroke-linecap="round" stroke-linejoin="round"/>
<path d="M15.6362 31.8631L21.8178 26.1182L23.8377 29.73L15.6362 31.8631Z" stroke="#00B795" stroke-linecap="round" stroke-linejoin="round"/>
<path d="M2.56057 24.7712L0.134399 15.9998L4.67944 15.9995L2.56057 24.7712Z" stroke="#00B795" stroke-linecap="round" stroke-linejoin="round"/>
<path d="M4.67942 15.9995L2.56055 24.7712L9.45487 26.1183L4.67942 15.9995Z" stroke="#00B795" stroke-linecap="round" stroke-linejoin="round"/>
<path d="M7.43494 29.7299L2.56055 24.771L9.45487 26.1181L7.43494 29.7299Z" stroke="#00B795" stroke-linecap="round" stroke-linejoin="round"/>
<path d="M15.6362 31.8631L9.45487 26.1182L7.43494 29.73L15.6362 31.8631Z" stroke="#00B795" stroke-linecap="round" stroke-linejoin="round"/>
<path d="M15.6362 0.136719L9.4552 5.8817H21.8178L15.6362 0.136719Z" stroke="#00B795" stroke-linecap="round" stroke-linejoin="round"/>
<path d="M28.7121 7.229L31.1383 16.0002L26.5933 16.0005L28.7121 7.229Z" stroke="#00B795" stroke-linecap="round" stroke-linejoin="round"/>
<path d="M26.5932 16.0006L28.7121 7.22919L21.8177 5.88184L26.5932 16.0006Z" stroke="#00B795" stroke-linecap="round" stroke-linejoin="round"/>
<path d="M23.8377 2.27002L28.7121 7.22918L21.8177 5.88183L23.8377 2.27002Z" stroke="#00B795" stroke-linecap="round" stroke-linejoin="round"/>
<path d="M15.6362 0.136719L21.8178 5.8817L23.8377 2.26989L15.6362 0.136719Z" stroke="#00B795" stroke-linecap="round" stroke-linejoin="round"/>
<path d="M2.56057 7.229L0.134399 16.0002L4.67944 16.0005L2.56057 7.229Z" stroke="#00B795" stroke-linecap="round" stroke-linejoin="round"/>
<path d="M4.67942 16.0006L2.56055 7.22919L9.45487 5.88184L4.67942 16.0006Z" stroke="#00B795" stroke-linecap="round" stroke-linejoin="round"/>
<path d="M7.43494 2.27002L2.56055 7.22918L9.45487 5.88183L7.43494 2.27002Z" stroke="#00B795" stroke-linecap="round" stroke-linejoin="round"/>
<path d="M15.6362 0.136719L9.45487 5.8817L7.43494 2.26989L15.6362 0.136719Z" stroke="#00B795" stroke-linecap="round" stroke-linejoin="round"/>
</g>
<path d="M64.1117 8.16V20H61.4077V12.592L57.7917 20H55.0877L51.2157 12.48V20H48.5117V8.16H51.7757L56.4157 17.28L60.8637 8.16H64.1117ZM81.0238 13.12C82.3572 13.12 83.4665 13.1787 84.3518 13.296C85.2478 13.4133 86.0052 13.7013 86.6238 14.16C87.2532 14.608 87.5678 15.296 87.5678 16.224C87.5678 17.856 86.8585 18.9547 85.4398 19.52C84.0212 20.0853 82.4265 20.368 80.6558 20.368C79.6745 20.368 78.6505 20.2613 77.5838 20.048C76.5172 19.8453 75.5732 19.4293 74.7518 18.8C73.9305 18.16 73.5198 17.2587 73.5198 16.096L76.3358 16.048C76.3358 16.72 76.5972 17.2213 77.1198 17.552C77.6425 17.872 78.2132 18.0693 78.8318 18.144C79.4505 18.2187 80.1172 18.256 80.8318 18.256C81.9198 18.256 82.8532 18.1067 83.6318 17.808C84.4105 17.4987 84.8052 16.992 84.8158 16.288V16.272C84.8158 15.9307 84.5972 15.6747 84.1598 15.504C83.7332 15.3333 83.2585 15.232 82.7358 15.2C82.2132 15.1573 81.5785 15.1307 80.8318 15.12H80.4798C78.9652 15.12 77.7438 15.0613 76.8158 14.944C75.8878 14.8267 75.1038 14.5333 74.4638 14.064C73.8345 13.584 73.5198 12.8373 73.5198 11.824C73.5198 10.1707 74.2558 9.088 75.7278 8.576C77.2105 8.064 78.8532 7.808 80.6558 7.808C81.6158 7.808 82.6078 7.91467 83.6318 8.128C84.6665 8.33067 85.5785 8.752 86.3678 9.392C87.1678 10.0213 87.5678 10.9173 87.5678 12.08H84.7678C84.7678 11.3973 84.3732 10.8853 83.5838 10.544C82.7945 10.192 81.8345 9.99467 80.7038 9.952C79.4665 9.952 78.4158 10.1013 77.5518 10.4C76.6985 10.688 76.2718 11.1467 76.2718 11.776C76.2718 12.3307 76.6772 12.6933 77.4878 12.864C78.3092 13.0347 79.2798 13.12 80.3998 13.12H81.0238ZM96.7248 10.416V8.16H110.133L96.7248 10.416ZM110.133 8.16V10.464H104.821V20H102.117V10.464H96.7248V8.16H110.133ZM133.417 14.128C133.417 15.0773 133.199 15.9627 132.761 16.784C132.335 17.5947 131.732 18.2827 130.953 18.848C130.185 19.4133 129.289 19.8187 128.265 20.064L130.473 22.288H125.449V20.304C124.191 20.2187 123.028 19.8987 121.961 19.344C120.895 18.7893 120.041 18.0587 119.401 17.152C118.772 16.2347 118.457 15.2267 118.457 14.128C118.457 12.9547 118.804 11.8933 119.497 10.944C120.201 9.99467 121.135 9.25333 122.297 8.72C123.471 8.176 124.729 7.904 126.073 7.904C127.46 7.904 128.713 8.176 129.833 8.72C130.953 9.25333 131.828 9.99467 132.457 10.944C133.097 11.8827 133.417 12.944 133.417 14.128ZM126.121 18.064C126.932 18.064 127.679 17.9093 128.361 17.6C129.055 17.2907 129.609 16.8373 130.025 16.24C130.441 15.6427 130.649 14.9387 130.649 14.128C130.649 13.3067 130.441 12.592 130.025 11.984C129.609 11.376 129.055 10.912 128.361 10.592C127.668 10.272 126.921 10.112 126.121 10.112C125.332 10.112 124.559 10.2773 123.801 10.608C123.055 10.928 122.441 11.392 121.961 12C121.481 12.608 121.241 13.3173 121.241 14.128C121.241 14.928 121.481 15.6267 121.961 16.224C122.441 16.8213 123.055 17.28 123.801 17.6C124.559 17.9093 125.332 18.064 126.121 18.064ZM154.328 13.792C155.224 13.9733 155.902 14.288 156.36 14.736C156.819 15.1733 157.048 15.8027 157.048 16.624V16.688C157.048 17.616 156.814 18.32 156.344 18.8C155.886 19.28 155.251 19.6 154.44 19.76C153.64 19.9093 152.579 19.9947 151.256 20.016H151.224H150.472L142.824 20V8.16H151.992C153.23 8.17067 154.216 8.42667 154.952 8.928C155.688 9.42933 156.056 10.1387 156.056 11.056V11.12C156.056 11.8133 155.912 12.3787 155.624 12.816C155.336 13.2533 154.904 13.5787 154.328 13.792ZM153.4 11.488C153.4 11.04 153.304 10.72 153.112 10.528C152.92 10.3253 152.67 10.2027 152.36 10.16C152.051 10.1067 151.603 10.08 151.016 10.08H150.984H145.432V12.896L149.576 12.944H149.416H151.016C151.614 12.944 152.056 12.928 152.344 12.896C152.643 12.8533 152.894 12.7307 153.096 12.528C153.299 12.3147 153.4 11.968 153.4 11.488ZM151.528 17.968C152.222 17.968 152.739 17.9413 153.08 17.888C153.432 17.8347 153.71 17.696 153.912 17.472C154.115 17.2373 154.216 16.8587 154.216 16.336C154.216 15.8347 154.115 15.472 153.912 15.248C153.71 15.024 153.432 14.8907 153.08 14.848C152.739 14.7947 152.222 14.768 151.528 14.768H151.512H145.432V17.936C147.928 17.936 149.72 17.9467 150.808 17.968H151.528ZM169.153 8.16V17.776H177.281V20H166.449V8.16H169.153Z" fill="white"/>
<defs>
<clipPath id="clip0_1_997">
<rect width="31.2727" height="32" fill="white"/>
</clipPath>
</defs>
</svg>
