<svg width="40" height="40" viewBox="0 0 40 40" fill="none" xmlns="http://www.w3.org/2000/svg">
<g id="Legal, Law/document-legal-users">
<g id="Group">
<path id="Path" d="M4.99375 31.6716C4.99375 33.5133 6.48676 35.0064 8.32847 35.0064" stroke="#00B795" stroke-width="2" stroke-linecap="round" stroke-linejoin="round"/>
<path id="Path_2" d="M4.99375 8.32861V31.6717" stroke="#00B795" stroke-width="2" stroke-linecap="round" stroke-linejoin="round"/>
<path id="Path_3" d="M14.9979 35.0063H8.32848" stroke="#00B795" stroke-width="2" stroke-linecap="round" stroke-linejoin="round"/>
<path id="Path_4" d="M35.0063 8.32862C35.0063 6.4869 33.5132 4.9939 31.6715 4.9939" stroke="#00B795" stroke-width="2" stroke-linecap="round" stroke-linejoin="round"/>
<path id="Path_5" d="M35.0063 13.3307V8.32861" stroke="#00B795" stroke-width="2" stroke-linecap="round" stroke-linejoin="round"/>
<path id="Path_6" d="M8.32848 4.99384H31.6715" stroke="#00B795" stroke-width="2" stroke-linecap="round" stroke-linejoin="round"/>
<path id="Path_7" d="M4.99375 8.32862C4.99375 6.4869 6.48676 4.9939 8.32847 4.9939" stroke="#00B795" stroke-width="2" stroke-linecap="round" stroke-linejoin="round"/>
<path id="Path_8" fill-rule="evenodd" clip-rule="evenodd" d="M14.1642 28.4403V28.4403C12.7829 28.4403 11.6632 27.3206 11.6632 25.9393V25.9393C11.6632 24.558 12.7829 23.4382 14.1642 23.4382V23.4382C15.5455 23.4382 16.6653 24.558 16.6653 25.9393V25.9393C16.6653 27.3206 15.5455 28.4403 14.1642 28.4403V28.4403Z" stroke="#00B795" stroke-width="2" stroke-linecap="round" stroke-linejoin="round"/>
<path id="Path_9" d="M11.6632 11.7665H25.0021" stroke="#00B795" stroke-width="2" stroke-linecap="round" stroke-linejoin="round"/>
<path id="Path_10" d="M11.6632 17.6025H20" stroke="#00B795" stroke-width="2" stroke-linecap="round" stroke-linejoin="round"/>
<path id="Path_11" fill-rule="evenodd" clip-rule="evenodd" d="M22.501 34.1726V33.4956C22.5065 31.5696 24.0665 30.0096 25.9925 30.0042H31.5148C33.4408 30.0096 35.0008 31.5696 35.0063 33.4956V34.1726C35.0063 34.633 34.633 35.0062 34.1726 35.0062H23.3347C22.8743 35.0062 22.501 34.633 22.501 34.1726Z" stroke="#00B795" stroke-width="2" stroke-linecap="round" stroke-linejoin="round"/>
<path id="Path_12" fill-rule="evenodd" clip-rule="evenodd" d="M25.4189 22.4877C25.4263 20.6477 26.9225 19.1614 28.7625 19.1663C30.6025 19.1712 32.0908 20.6654 32.0883 22.5054C32.0859 24.3454 30.5936 25.8357 28.7536 25.8357C27.8669 25.8357 27.0167 25.4826 26.3909 24.8543C25.7651 24.226 25.4154 23.3744 25.4189 22.4877V22.4877Z" stroke="#00B795" stroke-width="2" stroke-linecap="round" stroke-linejoin="round"/>
</g>
</g>
</svg>
