<svg width="25" height="24" viewBox="0 0 25 24" fill="none" xmlns="http://www.w3.org/2000/svg">
<g id="_Twitter">
<path id="Vector" d="M21.557 7.18114C21.5663 7.39235 21.5663 7.59395 21.5663 7.80515C21.5755 14.2084 16.8711 21.6004 8.26781 21.6004C5.73036 21.6004 3.23921 20.842 1.09998 19.4212C1.47041 19.4692 1.84084 19.4884 2.21127 19.4884C4.31346 19.4884 6.36009 18.7588 8.01777 17.4052C6.01744 17.3668 4.2579 16.0132 3.64669 14.0356C4.3505 14.1796 5.07284 14.1508 5.75814 13.9492C3.58186 13.5076 2.01679 11.5204 2.00753 9.20675C2.00753 9.18755 2.00753 9.16835 2.00753 9.14915C2.65578 9.52355 3.38738 9.73475 4.12825 9.75395C2.08162 8.33315 1.44262 5.50114 2.68357 3.28353C5.06358 6.31714 8.56415 8.15075 12.324 8.35235C11.9443 6.67234 12.4629 4.90594 13.6761 3.71553C15.556 1.88193 18.5195 1.97793 20.2975 3.92673C21.344 3.71553 22.3534 3.31233 23.2702 2.74593C22.9183 3.86913 22.1867 4.81954 21.2144 5.42434C22.1404 5.30914 23.048 5.04994 23.9 4.66594C23.2702 5.64514 22.4738 6.48994 21.557 7.18114Z" fill="#00B795"/>
</g>
</svg>
